<svg xmlns="http://www.w3.org/2000/svg" xmlns:xlink="http://www.w3.org/1999/xlink" viewBox="0 0 1022.7 785.81"><defs><style>.cls-1,.cls-10,.cls-3{fill:#190a36;}.cls-1,.cls-2,.cls-4,.cls-6,.cls-9{opacity:0.1;}.cls-1,.cls-10,.cls-11,.cls-12,.cls-13,.cls-4,.cls-6,.cls-9{isolation:isolate;}.cls-4{fill:#468c3e;}.cls-5{fill:#d0d2d5;}.cls-7{fill:#3f3d56;}.cls-8{fill:#fff;}.cls-9{fill:#444053;}.cls-10{opacity:0.3;}.cls-11{fill:#fa5959;}.cls-11,.cls-12,.cls-13{opacity:0.8;}.cls-12{fill:#fed253;}.cls-13{fill:#8ccf4d;}.cls-14{fill:url(#linear-gradient);}.cls-15{fill:#2f2e41;}.cls-16{fill:#454b69;}.cls-17{fill:#fbbebe;}</style><linearGradient id="linear-gradient" x1="655.3" y1="-34.48" x2="655.3" y2="293.88" gradientTransform="matrix(1, -0.04, -0.04, -1, -54.34, 758.33)" gradientUnits="userSpaceOnUse"><stop offset="0" stop-color="gray" stop-opacity="0.25"/><stop offset="0.54" stop-color="gray" stop-opacity="0.12"/><stop offset="1" stop-color="gray" stop-opacity="0.1"/></linearGradient></defs><g id="Layer_2" data-name="Layer 2"><g id="e7dedc5b-fca6-4313-b5a0-e6297481e8ae"><ellipse class="cls-1" cx="468.63" cy="660.88" rx="425" ry="33"/><g class="cls-2"><path class="cls-3" d="M845.05,472.84c-2.54-7.71-12.84-11.26-23-7.92a25.13,25.13,0,0,0-4.23,1.83c-.65-.18-1.32-.34-2-.46a22.19,22.19,0,0,0,.63-6.79A24.58,24.58,0,0,0,827.35,438a24.62,24.62,0,0,0,10.86-21.47,23.8,23.8,0,0,0,8.23-9.32c4.9-9.7,2.87-20.6-4.54-24.35s-17.4,1.08-22.3,10.78A23.72,23.72,0,0,0,817,405.82a24.62,24.62,0,0,0-10.86,21.47,24.62,24.62,0,0,0-10.86,21.47,24.66,24.66,0,0,0-10.9,21.48,23.8,23.8,0,0,0-8.23,9.32A25.43,25.43,0,0,0,774,485.3a21.23,21.23,0,0,0-4.44-4.73,25.66,25.66,0,0,0-1-4.5c-3.34-10.17-12.3-16.37-20-13.83s-11.26,12.83-7.92,23a23.09,23.09,0,0,0,7.56,11.08,25.66,25.66,0,0,0,1,4.5c1.94,5.9,5.77,10.46,10.15,12.75a22.56,22.56,0,0,0-.83,3.9A25.28,25.28,0,0,0,751,532.38a25.3,25.3,0,0,0-7.54,14.92,24.61,24.61,0,0,0-5,6.81c-4.91,9.7-2.88,20.61,4.53,24.35s17.4-1.07,22.31-10.78a24.72,24.72,0,0,0,2.5-8.09,25.28,25.28,0,0,0,7.54-14.91,25.3,25.3,0,0,0,7.54-14.92,25.21,25.21,0,0,0,7.45-14.91,25.16,25.16,0,0,0,7.56-14.94,24.42,24.42,0,0,0,3.39-4,23.47,23.47,0,0,0,12.27-.77,25.13,25.13,0,0,0,4.23-1.83,23.17,23.17,0,0,0,13.42-.48C841.35,489.52,847.58,480.56,845.05,472.84Z"/><g class="cls-2"><path class="cls-3" d="M827.12,442.44a21.73,21.73,0,0,1-3.44,2.75,23,23,0,0,1-1.11,8.43,25.6,25.6,0,0,0,2.1-3.43A24.6,24.6,0,0,0,827.12,442.44Z"/><path class="cls-3" d="M838,421a21.73,21.73,0,0,1-3.44,2.75,23,23,0,0,1-1.11,8.43,25.71,25.71,0,0,0,2.1-3.44A24.8,24.8,0,0,0,838,421Z"/><path class="cls-3" d="M813.35,413a22.43,22.43,0,0,1,.17-4.41,24.78,24.78,0,0,0-4.78,6.57,26.27,26.27,0,0,0-1.52,3.73A22.76,22.76,0,0,1,813.35,413Z"/><path class="cls-3" d="M744.42,542.91a23.13,23.13,0,0,1,3-3.38,22.64,22.64,0,0,1,.87-4,24.85,24.85,0,0,0-2.29,3.71A25.6,25.6,0,0,0,744.42,542.91Z"/><path class="cls-3" d="M752,528a23.13,23.13,0,0,1,2.95-3.38,22.56,22.56,0,0,1,.83-3.9h0a25.38,25.38,0,0,0-2.2,3.59A26.09,26.09,0,0,0,752,528Z"/><path class="cls-3" d="M816.25,463.91a20.63,20.63,0,0,1-3.43,2.74,22.51,22.51,0,0,1-.63,6.79,19.94,19.94,0,0,1,2,.46,25.13,25.13,0,0,1,4.23-1.83c10.18-3.34,20.47.21,23,7.92a11.65,11.65,0,0,1,.32,6c3.35-3.94,4.74-8.74,3.3-13.14-2.54-7.71-12.84-11.26-23-7.92a25.13,25.13,0,0,0-4.23,1.83c-.65-.18-1.32-.34-2-.46C816,465.5,816.14,464.71,816.25,463.91Z"/><path class="cls-3" d="M740.7,550.4a24.85,24.85,0,0,0-2.29,3.71,27,27,0,0,0-1.54,3.74,24.83,24.83,0,0,1,3-3.4A22.39,22.39,0,0,1,740.7,550.4Z"/><path class="cls-3" d="M802.44,434.45a22.43,22.43,0,0,1,.17-4.41,24.78,24.78,0,0,0-4.78,6.57,26.27,26.27,0,0,0-1.52,3.73A22.76,22.76,0,0,1,802.44,434.45Z"/><path class="cls-3" d="M786.75,522a24.38,24.38,0,0,1-1,4.38,26.72,26.72,0,0,0,2.09-3.44,24.85,24.85,0,0,0,1.63-4A24.69,24.69,0,0,1,786.75,522Z"/><path class="cls-3" d="M771.67,551.83a24.38,24.38,0,0,1-1,4.38,25.71,25.71,0,0,0,2.1-3.44,26.21,26.21,0,0,0,1.63-4A23.32,23.32,0,0,1,771.67,551.83Z"/><path class="cls-3" d="M779.21,536.91a24.38,24.38,0,0,1-1,4.38,26.39,26.39,0,0,0,2.14-3.38,24.85,24.85,0,0,0,1.63-4A23.85,23.85,0,0,1,779.21,536.91Z"/><path class="cls-3" d="M794.29,507.1a24.27,24.27,0,0,1-1,4.37,26.61,26.61,0,0,0,2.09-3.43A26,26,0,0,0,797,504,23.2,23.2,0,0,1,794.29,507.1Z"/><path class="cls-3" d="M744.92,469.39c7.72-2.53,16.68,3.66,20,13.83a25.77,25.77,0,0,1,1,4.51,21.23,21.23,0,0,1,4.44,4.73,25.68,25.68,0,0,1,2.08-5.75c.35-.68.73-1.33,1.12-2a20.86,20.86,0,0,0-4-4.18,25.66,25.66,0,0,0-1-4.5c-3.34-10.17-12.3-16.37-20-13.83-4.4,1.44-7.44,5.41-8.62,10.43A11.66,11.66,0,0,1,744.92,469.39Z"/><path class="cls-3" d="M780.72,477.39a21.59,21.59,0,0,1,.18-4.4,24.6,24.6,0,0,0-4.79,6.57,25,25,0,0,0-1.52,3.72A23.06,23.06,0,0,1,780.72,477.39Z"/><path class="cls-3" d="M791.58,455.91a21.59,21.59,0,0,1,.18-4.4,24.55,24.55,0,0,0-4.79,6.56,26.27,26.27,0,0,0-1.52,3.73A22.76,22.76,0,0,1,791.58,455.91Z"/><path class="cls-3" d="M764.13,566.74a24.48,24.48,0,0,1-1,4.39,26,26,0,0,0,3.73-7.49A23.66,23.66,0,0,1,764.13,566.74Z"/></g><path class="cls-3" d="M859.87,373.62a23.72,23.72,0,0,0,8.23-9.32c4.91-9.7,2.88-20.61-4.53-24.36s-17.4,1.08-22.31,10.79a23.72,23.72,0,0,0-2.62,12.18,24.62,24.62,0,0,0-10.86,21.47,23.58,23.58,0,0,0-8.23,9.32,24.64,24.64,0,0,0-1.51,3.69,20.88,20.88,0,0,1,10.77-8,12.24,12.24,0,0,0,15.41,7.88l.13,0a20.81,20.81,0,0,1,0,13.41,25.14,25.14,0,0,0,2.08-3.4,23.71,23.71,0,0,0,2.62-12.15,24.56,24.56,0,0,0,10.86-21.47Z"/><path class="cls-3" d="M979.23,236a72.64,72.64,0,0,0,8.72-4.83l-32.33-23.62,38,19.57a72.13,72.13,0,0,0,27-50.31l-64.58.66,64.72-10.82a72,72,0,0,0-143.66,9.82,70.89,70.89,0,0,0,1.08,8.46,71.81,71.81,0,0,0-13.26,8l33.75,46.93-40.52-41.08A72.09,72.09,0,0,0,838,264.37a72,72,0,1,0,101,51.1A72,72,0,0,0,979.23,236Z"/><path class="cls-1" d="M844.35,217.66A71.76,71.76,0,0,0,838,264.37a72,72,0,1,0,101,51.1C953.18,308.91,848,210.45,844.35,217.66Z"/><circle class="cls-3" cx="925.49" cy="102.72" r="10.69"/><circle class="cls-3" cx="987.93" cy="109.58" r="10.69"/><circle class="cls-3" cx="1012.01" cy="205.64" r="10.69"/><circle class="cls-3" cx="979.51" cy="253.61" r="10.69"/><circle class="cls-3" cx="935.11" cy="353.24" r="10.69"/><circle class="cls-1" cx="935.11" cy="353.24" r="10.69"/><circle class="cls-3" cx="836.39" cy="240.4" r="10.69"/><circle class="cls-1" cx="836.39" cy="240.4" r="10.69"/><path class="cls-1" d="M825,416.23c-7.11-3.59-9.26-13.76-5.11-23.14-.22.38-.43.77-.63,1.18-4.91,9.7-2.88,20.6,4.53,24.35s17.4-1.08,22.3-10.78c.21-.4.39-.81.57-1.21C841.56,415.54,832.09,419.83,825,416.23Z"/><path class="cls-1" d="M814.43,437.11c-7.1-3.59-9.26-13.76-5.1-23.15-.22.39-.44.78-.64,1.18-4.91,9.7-2.88,20.61,4.53,24.35s17.4-1.07,22.31-10.78c.2-.4.39-.8.57-1.21C831,436.41,821.54,440.7,814.43,437.11Z"/><path class="cls-1" d="M803.87,458c-7.1-3.59-9.26-13.76-5.1-23.14-.22.38-.44.77-.64,1.18-4.91,9.7-2.87,20.6,4.54,24.35s17.39-1.08,22.3-10.78c.2-.4.39-.81.57-1.21C820.45,457.29,811,461.58,803.87,458Z"/><path class="cls-1" d="M793.35,478.91c-7.11-3.59-9.26-13.76-5.11-23.14-.22.38-.43.77-.64,1.17-4.9,9.7-2.87,20.61,4.54,24.36s17.4-1.08,22.3-10.79c.21-.4.39-.8.57-1.21C809.89,478.16,800.42,482.45,793.35,478.91Z"/><path class="cls-1" d="M782.76,499.73c-7.11-3.59-9.26-13.76-5.11-23.14-.22.38-.43.77-.63,1.18-4.91,9.7-2.88,20.6,4.53,24.35S799,501,803.86,491.34c.2-.4.39-.81.57-1.21C799.35,499,789.86,503.33,782.76,499.73Z"/><path class="cls-1" d="M772.2,520.61c-7.1-3.59-9.26-13.76-5.1-23.14-.22.38-.44.77-.64,1.17-4.91,9.7-2.88,20.61,4.54,24.36s17.35-1.09,22.35-10.79c.2-.4.39-.8.57-1.21C788.77,519.91,779.35,524.2,772.2,520.61Z"/><path class="cls-1" d="M761.64,541.48c-7.1-3.59-9.26-13.76-5.1-23.14-.22.39-.43.77-.64,1.18-4.9,9.7-2.87,20.6,4.54,24.35s17.4-1.08,22.3-10.78c.21-.4.39-.81.57-1.21C778.22,540.79,768.75,545.08,761.64,541.48Z"/><path class="cls-1" d="M751.09,562.36c-7.11-3.59-9.26-13.76-5.11-23.14q-.33.57-.63,1.17c-4.91,9.7-2.88,20.61,4.53,24.36s17.4-1.08,22.31-10.79c.2-.4.38-.8.56-1.21C767.66,561.66,758.19,565.91,751.09,562.36Z"/><path class="cls-1" d="M744.15,576.08c-7.1-3.6-9.26-13.76-5.1-23.15-.22.39-.44.78-.64,1.18-4.91,9.7-2.88,20.61,4.53,24.35s17.4-1.07,22.31-10.78c.2-.4.39-.8.57-1.21C760.72,575.38,751.25,579.67,744.15,576.08Z"/><path class="cls-3" d="M934.94,483.17a37.63,37.63,0,0,0,2-9.79,5.34,5.34,0,0,0,0-10.68,5.16,5.16,0,0,0-.79.06,37.31,37.31,0,0,0-19.64-25.31,5.34,5.34,0,1,0-9.54-4.82,5.13,5.13,0,0,0-.48,1.43,37.48,37.48,0,0,0-32.87,9.85,37.56,37.56,0,0,0-9.82-.29l-4.33,19.71-.26-19a37.42,37.42,0,0,0,16,73.1,36,36,0,0,0,4-1.1,5.34,5.34,0,0,0,9.57-4.72,36.82,36.82,0,0,0,4.8-3.92,37.45,37.45,0,0,0,39.31-19.83l-20.15-3.39Z"/><g class="cls-2"><path class="cls-3" d="M903.81,492.74c-7.44-9.82-12-21.45-17.25-32.61a137.4,137.4,0,0,0-7.07-13.36l-3.94-4.59c-.66.56-1.32,1.14-2,1.75a37.56,37.56,0,0,0-9.82-.29l-4.33,19.71-.26-19a37.42,37.42,0,1,0,16,73.1,36,36,0,0,0,4-1.1,5.34,5.34,0,0,0,9.57-4.72,36.82,36.82,0,0,0,4.8-3.92A37.46,37.46,0,0,0,916,504.39,52.86,52.86,0,0,1,903.81,492.74Z"/></g><path class="cls-3" d="M772.06,450.54a5.34,5.34,0,0,0-4.78-7.75A37.42,37.42,0,0,0,755.58,422a37.51,37.51,0,0,0,1.1-11.7L737,406.91l19.08-1.2a37,37,0,0,0-1.41-5.28,5.47,5.47,0,0,0,1.76-2,5.35,5.35,0,0,0-6.59-7.44,37.42,37.42,0,0,0-66.79,30.92,5.27,5.27,0,0,0-2.66,2.5,5.34,5.34,0,0,0,6.75,7.37,37.6,37.6,0,0,0,7.09,8.65A37.4,37.4,0,0,0,696,464.19l26.35-6.84-23.5,12.36a37.42,37.42,0,0,0,68.91-16.26A5.33,5.33,0,0,0,772.06,450.54Z"/><path class="cls-1" d="M772.06,450.54a5.34,5.34,0,0,0-4.78-7.75A37.42,37.42,0,0,0,755.58,422c.16-.63.3-1.25.42-1.88a13.65,13.65,0,0,0-1.93,1.71c-3.55,3.89-5.37,9.12-8.88,13-4.14,4.64-10.34,7.06-16.53,7.71s-12.42-.3-18.53-1.49c-5.06-1-10.19-2.16-15.32-1.67a8.57,8.57,0,0,0-1.46.19c.3.29.6.58.91.86A37.4,37.4,0,0,0,696,464.2l26.35-6.85-23.5,12.36a37.42,37.42,0,0,0,68.91-16.26A5.33,5.33,0,0,0,772.06,450.54Z"/></g><g class="cls-2"><path class="cls-3" d="M89.49,511.24c1.28-3.89,6.47-5.68,11.59-4a12.56,12.56,0,0,1,2.13.92c.33-.09.67-.17,1-.23a11.26,11.26,0,0,1-.32-3.42,12.48,12.48,0,0,1-5.47-10.82A12.43,12.43,0,0,1,93,482.88a12,12,0,0,1-4.14-4.7c-2.46-4.88-1.46-10.37,2.29-12.27s8.77.55,11.24,5.43a12,12,0,0,1,1.32,6.13,12.37,12.37,0,0,1,5.47,10.81,12.42,12.42,0,0,1,5.47,10.82,12.37,12.37,0,0,1,5.47,10.81,11.92,11.92,0,0,1,4.15,4.7,12.45,12.45,0,0,1,1,2.9,10.78,10.78,0,0,1,2.23-2.39,12.65,12.65,0,0,1,.52-2.27c1.69-5.12,6.2-8.24,10.09-7s5.67,6.47,4,11.59a11.71,11.71,0,0,1-3.81,5.59,12.55,12.55,0,0,1-.52,2.26,11.12,11.12,0,0,1-5.11,6.42,13.4,13.4,0,0,1,.42,2,12.76,12.76,0,0,1,3.79,7.51,12.7,12.7,0,0,1,3.8,7.51,12.43,12.43,0,0,1,2.54,3.44c2.47,4.88,1.45,10.38-2.28,12.26s-8.77-.54-11.24-5.43a12.49,12.49,0,0,1-1.26-4.08,12.75,12.75,0,0,1-3.8-7.51,12.75,12.75,0,0,1-3.8-7.51,12.59,12.59,0,0,1-2.54-3.43,12.73,12.73,0,0,1-1.26-4.08,12.76,12.76,0,0,1-3.79-7.51,11.67,11.67,0,0,1-1.71-2,11.9,11.9,0,0,1-6.18-.38,13.57,13.57,0,0,1-2.14-.93,11.59,11.59,0,0,1-6.75-.24C91.35,519.64,88.22,515.13,89.49,511.24Z"/><g class="cls-2"><path class="cls-3" d="M98.52,495.91a10.62,10.62,0,0,0,1.74,1.39,11.48,11.48,0,0,0,.56,4.24,11.79,11.79,0,0,1-1.06-1.73A12.43,12.43,0,0,1,98.52,495.91Z"/><path class="cls-3" d="M93.05,485.11a11,11,0,0,0,1.74,1.38,11.56,11.56,0,0,0,.56,4.25A12.69,12.69,0,0,1,93.05,485.11Z"/><path class="cls-3" d="M105.48,481.08a11,11,0,0,0-.08-2.22,12.53,12.53,0,0,1,3.17,5.19A11.35,11.35,0,0,0,105.48,481.08Z"/><path class="cls-3" d="M140.18,546.54a12,12,0,0,0-1.48-1.7,12.3,12.3,0,0,0-.44-2,13.69,13.69,0,0,1,1.15,1.86A13.49,13.49,0,0,1,140.18,546.54Z"/><path class="cls-3" d="M136.35,539a12,12,0,0,0-1.48-1.7,11.29,11.29,0,0,0-.42-2h0a12.81,12.81,0,0,1,1.88,3.68Z"/><path class="cls-3" d="M104,506.75a9.93,9.93,0,0,0,1.73,1.37,11,11,0,0,0,.32,3.42c-.34.06-.67.14-1,.23a12.66,12.66,0,0,0-2.14-.92c-5.12-1.68-10.31.11-11.58,4a5.77,5.77,0,0,0-.17,3,7,7,0,0,1-1.66-6.61c1.28-3.89,6.47-5.68,11.59-4a12.56,12.56,0,0,1,2.13.92c.33-.09.67-.17,1-.23A9.43,9.43,0,0,1,104,506.75Z"/><path class="cls-3" d="M142.06,550.31a12.35,12.35,0,0,1,1.15,1.87,12.79,12.79,0,0,1,.77,1.88,11.5,11.5,0,0,0-1.48-1.71A13,13,0,0,0,142.06,550.31Z"/><path class="cls-3" d="M111,491.91a11,11,0,0,0-.08-2.22,12.5,12.5,0,0,1,2.41,3.31,12.63,12.63,0,0,1,.76,1.87A11.31,11.31,0,0,0,111,491.91Z"/><path class="cls-3" d="M118.86,536a11.85,11.85,0,0,0,.49,2.2,12.69,12.69,0,0,1-1.88-3.77A12.19,12.19,0,0,0,118.86,536Z"/><path class="cls-3" d="M126.45,551a12.74,12.74,0,0,0,.5,2.2,11.79,11.79,0,0,1-1.06-1.73,12.92,12.92,0,0,1-.82-2A12.55,12.55,0,0,0,126.45,551Z"/><path class="cls-3" d="M122.66,543.52a11.85,11.85,0,0,0,.49,2.2,13.36,13.36,0,0,1-1.06-1.73,12.92,12.92,0,0,1-.82-2A11.85,11.85,0,0,0,122.66,543.52Z"/><path class="cls-3" d="M115.06,528.49a12,12,0,0,0,.49,2.21,13,13,0,0,1-1-1.73,12,12,0,0,1-.83-2A10.8,10.8,0,0,0,115.06,528.49Z"/><path class="cls-3" d="M139.93,509.5c-3.89-1.28-8.4,1.84-10.08,7a12.65,12.65,0,0,0-.52,2.27,10.77,10.77,0,0,0-2.24,2.38,12.42,12.42,0,0,0-1-2.9c-.17-.34-.36-.67-.56-1a10.76,10.76,0,0,1,2-2.1,12.65,12.65,0,0,1,.52-2.27c1.69-5.12,6.2-8.24,10.09-7a6.92,6.92,0,0,1,4.34,5.26A5.9,5.9,0,0,0,139.93,509.5Z"/><path class="cls-3" d="M121.89,513.53a11,11,0,0,0-.08-2.22,12.5,12.5,0,0,1,2.41,3.31,12.75,12.75,0,0,1,.76,1.88A11.2,11.2,0,0,0,121.89,513.53Z"/><path class="cls-3" d="M116.42,502.71a11,11,0,0,0-.08-2.22,12.53,12.53,0,0,1,3.17,5.19A11.35,11.35,0,0,0,116.42,502.71Z"/><path class="cls-3" d="M130.25,558.54a12,12,0,0,0,.5,2.21,13.3,13.3,0,0,1-1.88-3.74A12.55,12.55,0,0,0,130.25,558.54Z"/></g><path class="cls-3" d="M82,461.25a12,12,0,0,1-4.14-4.69c-2.47-4.89-1.45-10.38,2.28-12.27s8.77.54,11.24,5.43a11.94,11.94,0,0,1,1.32,6.12,12.42,12.42,0,0,1,5.47,10.82,12,12,0,0,1,4.15,4.69,13.69,13.69,0,0,1,.76,1.86,10.52,10.52,0,0,0-5.43-4,6.16,6.16,0,0,1-7.72,4l-.11,0a10.54,10.54,0,0,0,0,6.75,12.73,12.73,0,0,1-1-1.71,12,12,0,0,1-1.33-6.12A12.42,12.42,0,0,1,82,461.31Z"/><path class="cls-3" d="M21.9,391.91a36.81,36.81,0,0,1-4.39-2.43l16.28-11.9-19.14,9.85A36.33,36.33,0,0,1,1.06,362.09l32.54.34L1,357a36.29,36.29,0,1,1,72.46,4.09,35.18,35.18,0,0,1-.65,5.11,36.47,36.47,0,0,1,6.68,4l-17,23.64,20.41-20.68a36.31,36.31,0,0,1,10.16,33.05,36.29,36.29,0,1,1-50.9,25.74,36.28,36.28,0,0,1-20.25-40Z"/><path class="cls-1" d="M89.85,382.69a36.08,36.08,0,0,1,3.2,23.53A36.29,36.29,0,1,1,42.15,432C35,428.65,88,379.06,89.85,382.69Z"/><circle class="cls-3" cx="48.97" cy="324.78" r="5.39"/><circle class="cls-3" cx="17.51" cy="328.24" r="5.39"/><circle class="cls-3" cx="5.39" cy="376.63" r="5.39"/><circle class="cls-3" cx="21.76" cy="400.8" r="5.39"/><circle class="cls-3" cx="44.12" cy="450.99" r="5.39"/><circle class="cls-1" cx="44.12" cy="450.99" r="5.39"/><circle class="cls-3" cx="93.85" cy="394.14" r="5.39"/><circle class="cls-1" cx="93.85" cy="394.14" r="5.39"/><path class="cls-1" d="M99.6,482.72c3.58-1.81,4.66-6.93,2.57-11.66.11.2.22.39.32.59,2.47,4.89,1.45,10.38-2.29,12.27s-8.76-.54-11.23-5.43c-.1-.2-.2-.4-.29-.61C91.25,482.37,96,484.53,99.6,482.72Z"/><path class="cls-1" d="M104.91,493.24c3.58-1.81,4.67-6.94,2.58-11.66.11.19.22.39.32.59,2.47,4.89,1.45,10.38-2.29,12.27s-8.76-.54-11.23-5.43c-.11-.2-.2-.41-.29-.61C96.57,492.91,101.35,495.05,104.91,493.24Z"/><path class="cls-1" d="M110.23,503.75c3.58-1.81,4.67-6.93,2.57-11.66.12.2.22.39.33.6,2.47,4.88,1.44,10.38-2.29,12.26s-8.76-.54-11.23-5.43c-.11-.2-.2-.4-.29-.61C101.88,503.4,106.65,505.56,110.23,503.75Z"/><path class="cls-1" d="M115.55,514.27c3.58-1.81,4.67-6.93,2.57-11.66.11.19.22.39.32.59,2.48,4.89,1.45,10.38-2.28,12.27s-8.77-.54-11.24-5.43c-.1-.2-.19-.41-.28-.61C107.2,513.91,112,516.08,115.55,514.27Z"/><path class="cls-1" d="M120.87,524.78c3.58-1.81,4.66-6.93,2.57-11.65.11.19.22.39.32.59,2.47,4.89,1.45,10.38-2.28,12.27s-8.77-.55-11.24-5.43c-.1-.21-.19-.41-.29-.61C112.52,524.43,117.29,526.59,120.87,524.78Z"/><path class="cls-1" d="M126.19,535.3c3.58-1.81,4.66-6.93,2.57-11.66.11.2.22.39.32.59,2.47,4.89,1.45,10.38-2.28,12.27s-8.77-.54-11.24-5.43c-.1-.2-.2-.4-.29-.61C117.84,534.91,122.61,537.11,126.19,535.3Z"/><path class="cls-1" d="M131.51,545.82c3.57-1.81,4.66-6.94,2.57-11.66.11.19.22.39.32.59,2.47,4.89,1.45,10.38-2.29,12.27s-8.76-.55-11.23-5.43c-.1-.21-.2-.41-.29-.61C123.16,545.46,127.93,547.63,131.51,545.82Z"/><path class="cls-1" d="M136.82,556.33c3.58-1.81,4.67-6.93,2.57-11.66.12.2.22.39.33.6,2.47,4.88,1.44,10.38-2.29,12.26s-8.76-.54-11.23-5.43c-.11-.2-.2-.4-.29-.61C128.48,556,133.24,558.14,136.82,556.33Z"/><path class="cls-1" d="M140.35,563.24c3.58-1.81,4.66-6.93,2.57-11.66.11.2.22.39.32.6,2.47,4.88,1.45,10.38-2.28,12.26s-8.77-.54-11.24-5.43c-.1-.2-.2-.4-.29-.61C132,562.91,136.74,565.05,140.35,563.24Z"/><path class="cls-3" d="M44.21,516.44a18.47,18.47,0,0,1-1-4.93,2.69,2.69,0,1,1,0-5.38,2.56,2.56,0,0,1,.39,0,18.84,18.84,0,0,1,9.89-12.75A2.69,2.69,0,1,1,58.32,491h0a2.35,2.35,0,0,1,.24.72,18.93,18.93,0,0,1,16.56,5,18.6,18.6,0,0,1,5-.14l2.18,9.92,0-9.57a18.85,18.85,0,1,1-8.49,36.73c-.54-.12-1.07-.27-1.59-.44a2.76,2.76,0,0,1-1.13,1.09,2.7,2.7,0,0,1-3.7-3.47,19.23,19.23,0,0,1-2.41-2,18.87,18.87,0,0,1-19.8-10l10.15-1.71Z"/><g class="cls-2"><path class="cls-3" d="M59.89,521.26c3.75-5,6-10.8,8.69-16.42a68.79,68.79,0,0,1,3.56-6.74l2-2.31,1,.88a18.6,18.6,0,0,1,5-.14l2.18,9.92,0-9.54a18.85,18.85,0,1,1-8.49,36.73c-.54-.12-1.07-.27-1.59-.44a2.76,2.76,0,0,1-1.13,1.09,2.7,2.7,0,0,1-3.7-3.47,19.23,19.23,0,0,1-2.41-2,19,19,0,0,1-11.31-1.67A26.75,26.75,0,0,0,59.89,521.26Z"/></g><path class="cls-3" d="M126.26,500a2.68,2.68,0,0,1,1.18-3.6h0a2.74,2.74,0,0,1,1.22-.29,18.82,18.82,0,0,1,5.89-10.5,18.84,18.84,0,0,1-.55-5.89l9.89-1.66-9.61-.61a17.73,17.73,0,0,1,.72-2.66,2.69,2.69,0,0,1,2.43-4.75,18.84,18.84,0,0,1,33.64,15.57,2.68,2.68,0,0,1,1.41,3.53,2.72,2.72,0,0,1-1.25,1.34,2.69,2.69,0,0,1-2.22.1,18.88,18.88,0,0,1-3.57,4.34,18.93,18.93,0,0,1-.87,12l-13.23-3.48,11.83,6.23a18.85,18.85,0,0,1-32.83-1.54,19.09,19.09,0,0,1-1.94-6.65A2.66,2.66,0,0,1,126.26,500Z"/><path class="cls-1" d="M126.26,500a2.68,2.68,0,0,1,1.18-3.6h0a2.74,2.74,0,0,1,1.22-.29,18.82,18.82,0,0,1,5.89-10.5c-.08-.31-.15-.63-.21-.94a7.44,7.44,0,0,1,1,.86c1.79,2,2.71,4.59,4.47,6.57a12.94,12.94,0,0,0,8.33,3.89,31.49,31.49,0,0,0,9.33-.75,27.15,27.15,0,0,1,7.72-.85l.74.1-.46.43a18.93,18.93,0,0,1-.87,12l-13.26-3.48,11.83,6.23a18.85,18.85,0,0,1-32.83-1.54,19.09,19.09,0,0,1-1.94-6.65A2.66,2.66,0,0,1,126.26,500Z"/></g><path class="cls-4" d="M346.35,51.91a20.28,20.28,0,0,0-11.74,1.28,17.32,17.32,0,0,1-14.1,0,19.73,19.73,0,0,0-16.58.33,10.31,10.31,0,0,1-4.77,1.19c-6.72,0-12.31-6.77-13.47-15.7a13,13,0,0,0,3.36-3.62C293,29,299.05,25,305.94,25s12.89,4,16.83,10.31a13,13,0,0,0,11.16,6.14h.18C339.41,41.38,344,45.67,346.35,51.91Z"/><path class="cls-1" d="M366.77,23.91,355.91,30.8l6.59-12a10.75,10.75,0,0,0-6.57-2.34h-.17a13,13,0,0,1-2.25-.17l-3.69,2.34,1.58-2.87A13.17,13.17,0,0,1,345,10.91L338.35,15l4.16-7.57C338.66,2.84,333.46,0,327.75,0c-6.85,0-13,4.08-16.9,10.43a12.63,12.63,0,0,1-11.17,6h-.33c-7.56,0-13.7,8.57-13.7,19.16s6.14,19.15,13.7,19.15a10.31,10.31,0,0,0,4.77-1.19,19.7,19.7,0,0,1,16.58-.32,17.4,17.4,0,0,0,14.1,0,19.72,19.72,0,0,1,16.43.32A10.35,10.35,0,0,0,356,54.71c7.57,0,13.7-8.57,13.7-19.15A24.28,24.28,0,0,0,366.77,23.91Z"/><path class="cls-4" d="M120.35,190.45a29,29,0,0,0-16.77,1.82,24.71,24.71,0,0,1-20.14-.05,28.24,28.24,0,0,0-23.68.47,14.72,14.72,0,0,1-6.82,1.7c-9.6,0-17.59-9.67-19.25-22.43a18.34,18.34,0,0,0,4.8-5.17c5.63-9.07,14.35-14.9,24.14-14.9s18.4,5.76,24,14.73a18.52,18.52,0,0,0,16,8.77h.25C110.46,175.38,117.08,181.51,120.35,190.45Z"/><path class="cls-1" d="M149.55,150.4,134,160.24l9.42-17.13a15.34,15.34,0,0,0-9.39-3.35h-.25a17.33,17.33,0,0,1-3.22-.24l-5.24,3.39,2.26-4.1a18.66,18.66,0,0,1-9.2-7l-9.42,6,5.93-10.9c-5.51-6.61-12.93-10.66-21.09-10.66-9.79,0-18.51,5.82-24.14,14.89a18,18,0,0,1-16,8.61h-.53c-10.81,0-19.57,12.25-19.57,27.37s8.76,27.37,19.57,27.37A14.61,14.61,0,0,0,60,192.78a28.2,28.2,0,0,1,23.68-.46,24.71,24.71,0,0,0,20.14.05,28.27,28.27,0,0,1,23.48.45,14.65,14.65,0,0,0,6.74,1.67c10.81,0,19.57-12.26,19.57-27.37A34.68,34.68,0,0,0,149.55,150.4Z"/><path class="cls-4" d="M748,90.91a20.28,20.28,0,0,1,11.74,1.28,17.29,17.29,0,0,0,14.09,0,19.73,19.73,0,0,1,16.58.33,10.31,10.31,0,0,0,4.77,1.19c6.72,0,12.32-6.77,13.48-15.7a13,13,0,0,1-3.36-3.62c-3.92-6.37-10-10.48-16.92-10.48s-12.88,4-16.82,10.31a13,13,0,0,1-11.18,6.17h-.17C754.86,80.38,750.22,84.67,748,90.91Z"/><path class="cls-1" d="M727.49,62.91l10.86,6.87-6.6-12a10.75,10.75,0,0,1,6.57-2.34h.18a13,13,0,0,0,2.25-.17l3.68,2.34-1.58-2.87a13.22,13.22,0,0,0,6.5-4.83l6.59,4.18-4.17-7.57c3.86-4.63,9-7.47,14.77-7.47,6.85,0,13,4.08,16.9,10.43a12.62,12.62,0,0,0,11.17,6H795c7.57,0,13.7,8.57,13.7,19.16S802.54,93.79,795,93.79a10.43,10.43,0,0,1-4.77-1.19,19.7,19.7,0,0,0-16.58-.32,17.37,17.37,0,0,1-14.09,0,19.75,19.75,0,0,0-16.44.32,10.35,10.35,0,0,1-4.72,1.16c-7.56,0-13.7-8.57-13.7-19.15A24.45,24.45,0,0,1,727.49,62.91Z"/><ellipse class="cls-4" cx="615.63" cy="756.88" rx="115" ry="20"/><polygon class="cls-5" points="555.44 661.88 377.25 659.59 377.78 655.02 386.39 579.63 542.88 579.63 554.39 655.02 555.27 660.74 555.44 661.88"/><polygon class="cls-6" points="555.27 660.74 466.35 660.74 377.25 659.59 377.78 655.02 554.39 655.02 555.27 660.74"/><rect class="cls-5" x="347.55" y="656.17" width="236.45" height="5.71"/><path class="cls-7" d="M809.59,126.83a14.88,14.88,0,0,0-14.8-14.92H134.47a14.87,14.87,0,0,0-14.8,14.94h0V527.1H809.59Z"/><path class="cls-5" d="M119.67,523.1V570a14.8,14.8,0,0,0,14.8,14.8H794.79a14.8,14.8,0,0,0,14.8-14.8V523.1Z"/><rect class="cls-8" x="148.23" y="137.01" width="636.23" height="359.81"/><path class="cls-3" d="M468.06,567a15.4,15.4,0,0,0,12.13-5.89h0a16.06,16.06,0,0,0,1.2-1.76l-8.47-1.43,9.15.06a15.42,15.42,0,0,0,.29-12.21l-12.27,6.36,11.32-8.32a15.42,15.42,0,0,0-26.66,15.51,15.85,15.85,0,0,0,1.19,1.75h0A15.39,15.39,0,0,0,468.06,567Z"/><polygon class="cls-6" points="483.48 584.77 554.57 656.17 543.66 584.77 483.48 584.77"/><rect class="cls-9" x="147.73" y="137.05" width="636.92" height="21.02"/><rect class="cls-10" x="368.87" y="140.71" width="191.9" height="12.79" rx="0.58"/><path class="cls-7" d="M555.07,148.43h-.47l-.17-.15a3.9,3.9,0,0,0,.9-2.49,3.78,3.78,0,1,0-3.77,3.81,3.91,3.91,0,0,0,2.49-.91l.17.15v.47l2.93,2.93.87-.88Zm-3.51,0a2.64,2.64,0,1,1,2.63-2.65h0a2.62,2.62,0,0,1-2.6,2.64Z"/><circle class="cls-11" cx="159.18" cy="147.56" r="3.85"/><circle class="cls-12" cx="169.77" cy="147.56" r="3.85"/><circle class="cls-13" cx="180.37" cy="147.56" r="3.85"/><path class="cls-3" d="M500.05,291.4c-8.73-11.6-21.38-18.92-35.46-18.92s-26.73,7.32-35.46,18.92a38.28,38.28,0,0,0,70.92,0Z"/><path class="cls-3" d="M424.52,298.19a9.28,9.28,0,0,1-1.76-1,7.11,7.11,0,0,1-1.94-2.51,7.18,7.18,0,1,0-11.72,1.74,8,8,0,0,0,1.7,1.37,5,5,0,0,1,1.91,2,14.6,14.6,0,0,0,3.32,4.36,28.88,28.88,0,0,0,4.55,3.2,66.27,66.27,0,0,0-3.74,19.56,27,27,0,0,0-7.62,1.23,12.29,12.29,0,0,0-3.53,1.76l-.87-.06a7.19,7.19,0,1,0,6.73,9.72,4.6,4.6,0,0,1,3.71-3c.61-.07,1.23-.11,1.85-.12a64.46,64.46,0,0,0,8.55,26.67c-4.24,3.29-6.85,6.88-8,10.86a2.58,2.58,0,0,0-.57.41,7.76,7.76,0,0,0-.84.78,7.18,7.18,0,1,0,12.05,2.35,4.7,4.7,0,0,1,1.17-5.08,20.16,20.16,0,0,1,1.7-1.46c8.11,9.47,17.76,15.54,29.81,16.26V323C445.1,322.11,431.22,311.74,424.52,298.19Zm99.83,31.72a6.36,6.36,0,0,0-.87.06,13.25,13.25,0,0,0-3.53-1.76,27,27,0,0,0-7.62-1.23,67.91,67.91,0,0,0-3.74-19.55,28.88,28.88,0,0,0,4.55-3.2,15.54,15.54,0,0,0,3.44-4.57,4.21,4.21,0,0,1,1.77-1.75h0a7.18,7.18,0,1,0-10-3.17,6.83,6.83,0,0,1-1.94,2.51,20.38,20.38,0,0,1-1.76,1.29c-6.7,13.54-20.57,23.62-36.48,24.49v64.31c12-.72,21.71-6.82,29.81-16.26.63.5,1.16.95,1.61,1.37a4.87,4.87,0,0,1,1.26,5.23,7.18,7.18,0,1,0,12.08-2.33,7.76,7.76,0,0,0-.84-.78c-.33-.26-.57-.41-.57-.41-1.1-4-3.7-7.57-8-10.86a64.46,64.46,0,0,0,8.55-26.67,17.54,17.54,0,0,1,1.77.12,4.79,4.79,0,0,1,3.85,3,7.18,7.18,0,0,0,13.85-2.18,7.29,7.29,0,0,0-6.91-7.65Z"/><path class="cls-14" d="M681,745.22a9.41,9.41,0,0,0-2.17-2.41c-4.37-4.13-6.4-10.19-7.48-16.13s-1.39-12-3.12-17.81a58.74,58.74,0,0,0-3.52-8.67c-1-2.14-2.26-6.33-4.09-7.83a2.7,2.7,0,0,0-1.26-.61,14.78,14.78,0,0,0-3.62-4.82c-2.86-2.59-6.35-4.65-8.26-8a17.83,17.83,0,0,0-1.93-3.29c-1.29-1.42-3.33-2-4.52-3.5-1.55-1.94-1.2-4.72-1-7.19s0-5.43-2.14-6.73c-1.28-.79-2.93-.71-4.26-1.41-2-1-2.79-3.52-2.75-5.77s.74-4.44.92-6.69c.56-7.16-4.16-14.28-2.34-21.22.69-2.63,2.27-4.91,3.44-7.36a15.76,15.76,0,0,0,1-2.54,35.55,35.55,0,0,0,9.74,2.35c-5.51-12.36-4.11-26.72-6.68-40l.33-.45a20.8,20.8,0,0,0,4.22-11.86c0-4.94-2.31-9.56-3.35-14.4-.89-4.11-.85-8.41-2-12.45a38,38,0,0,0-3.16-7.22q-1.87-3.47-3.93-6.83-1.92-6.36-3.85-12.72c-1.8-6-3.65-12-7.15-17.14-1.28-1.88-1.67-5.7-3.64-6.84a8.75,8.75,0,0,0-5.2-.91c-2.78-1.56-5.22-3.81-5.57-6.89a6.74,6.74,0,0,1,.2-2h.34c4.4-.4,6.63-4.28,8.92-7.68,3.7-5.5,2.29-12.94,0-19.2a13,13,0,0,0-3-5.29c-3.21-3-8.29-2.34-12.43-3.79-1.39-.48-2.69-1.21-4.11-1.55-2.75-.64-5.63.26-8.15,1.53s-4.87,2.91-7.51,3.91-5.9,1.79-6.55,4.5a5,5,0,0,0,.22,2.73,10.23,10.23,0,0,0,3.09,4.46,17.79,17.79,0,0,0,10.87,24.82c.76,1.22,1.47,2.46,2.12,3.73,1.16,2.24,2.14,4.88,1.74,7.28a23.49,23.49,0,0,0-2,2.45c-2.87,4-4.5,8.69-6,13.37a142.42,142.42,0,0,0-4.83,18.27c-2.44,5.19-5.42,10.15-7.19,15.6a35.4,35.4,0,0,1-9.38-1.26l-8.44-1.91c-2.94-.67-6-1.39-8.3-3.33-1.22-1-2.17-2.33-3.41-3.32s-3.73-2.15-5.09-1.33a4,4,0,0,0-.69.53c-1.24-2.51-2.42-5-3.86-7.43-2.07-3.4-5.15-6.51-9.05-7.16a9.21,9.21,0,0,0-6.79,1.58c-2.28,1.62-3.71,5-2,7.28a13.31,13.31,0,0,0,1.39,1.42,29,29,0,0,1,3.09,4.29,21.92,21.92,0,0,0,13.49,8.76l-.35,1c-.71,2.08-2.22,4.59-1.84,6.75l37.54,12.85a23.1,23.1,0,0,0,7.56,1.67,12.17,12.17,0,0,0,3-.4v2c.1,13.19-2,26.29-2.39,39.47-.07,2.41,0,5,1.52,6.88,1.7,2.06,4.72,2.47,7.35,2q.94-.17,1.86-.42a69.58,69.58,0,0,1,1.92,10.11L589,638.91a27,27,0,0,1,.39,5.54c-.29,4.19-2.5,7.94-4.1,11.81s-2.55,8.5-.45,12.12c.66,1.12,1.57,2.07,2.16,3.23a13.18,13.18,0,0,1,1,5.68q.22,8.09.44,16.18a1.86,1.86,0,0,0-1.26.25c-2.08,1.62-1.85,9.33-2,11.72-.16,4,0,8.08-.22,12.12a72.54,72.54,0,0,1-2.61,16.09,10.29,10.29,0,0,1-2.29,4.61,9.69,9.69,0,0,1-4.07,2.11,46.49,46.49,0,0,1-15.41,2.1c-2.11-.07-4.31-.27-6.27.53s-3.54,3-2.83,5c.61,1.68,2.46,2.48,4.13,3.11a65.53,65.53,0,0,1,11,5.06,30.17,30.17,0,0,0,4.25,2.41,22.08,22.08,0,0,0,4.38,1.08L593,762.72c3.63.62,8,1,10.31-2,1.25-1.62,1.43-3.82,1.37-5.88-.1-4-.9-8.07-.38-12.07a36.94,36.94,0,0,1,1.86-6.93q2.65-7.87,5.32-15.73c1.78-5.26,3.58-10.57,4.27-16.09.25-2,.23-4.28-1.3-5.53a3.54,3.54,0,0,0-1.32-.68c-.06-4.82-.69-9.65-.42-14.47.07-1.2.19-2.4.29-3.61a17.21,17.21,0,0,1,2.47,2.92c1.71,2.68,2.34,6.22,4.95,8,2.22,1.52,5.51,1.44,7.07,3.64a10.21,10.21,0,0,1,1.12,2.71,19.25,19.25,0,0,0,4,6.35,31.93,31.93,0,0,0,2.47,6.34l4.4,9.31a108.23,108.23,0,0,0,5,9.77,27.72,27.72,0,0,1,3.35,6.46c1.41,4.94-.89,10.36-4.53,14s-8.44,5.73-13.17,7.68a3.66,3.66,0,0,0-1.34.8,2.57,2.57,0,0,0-.61,1.74,5.65,5.65,0,0,0,4.08,5,15.3,15.3,0,0,0,6.83.25c12.78-1.55,25.52-4.67,36.82-10.88a13,13,0,0,0,4.39-3.39A5.14,5.14,0,0,0,681,745.22Z"/><path class="cls-15" d="M627,521q3.19,4.9,6,10.06a36.72,36.72,0,0,1,3.17,7.17c1.16,4,1.13,8.27,2,12.35,1,4.8,3.34,9.38,3.34,14.3a20.57,20.57,0,0,1-4.22,11.76,55.43,55.43,0,0,1-8.82,9.1A187.62,187.62,0,0,1,616,524.5c-.1-2.9-.12-5.89.94-8.6.65-1.7,3.77-6.36,5.78-4.53.73.67.92,3.69,1.37,4.7A35.59,35.59,0,0,0,627,521Z"/><path class="cls-6" d="M627,521q3.19,4.9,6,10.06a36.72,36.72,0,0,1,3.17,7.17c1.16,4,1.13,8.27,2,12.35,1,4.8,3.34,9.38,3.34,14.3a20.57,20.57,0,0,1-4.22,11.76,55.43,55.43,0,0,1-8.82,9.1A187.62,187.62,0,0,1,616,524.5c-.1-2.9-.12-5.89.94-8.6.65-1.7,3.77-6.36,5.78-4.53.73.67.92,3.69,1.37,4.7A35.59,35.59,0,0,0,627,521Z"/><path class="cls-5" d="M363.35,384.54c-7.91,7.9-8.86,11.38-13.61,12.95s-21.84,10.42-16.47,20.23l14.44,9.54.42.28,2.21,6.64L328.5,473.06S292.5,456.6,289,481s-1.29,31-2.24,44,.31,16.76-2.86,16.76-4.42-8.54-4.42-8.54-.2-.39-.55-1.12c-4.71-9.79-36.68-81.66,14.53-131.06,0,0,23.72-1.56,29.43-28.76,3.94-18.8,17.72-17.18,26.88-13.35a30.49,30.49,0,0,1,8.22,4.83,40.26,40.26,0,0,1,5.89,7C366.46,374.83,367.88,380,363.35,384.54Z"/><path class="cls-6" d="M348.13,427.54l2.21,6.64L328.5,473.06S292.5,456.6,289,481s-1.29,31-2.24,44,.31,16.76-2.86,16.76-4.42-8.54-4.42-8.54-.2-.39-.55-1.12c-1.59-12.16-9.65-83.29,19.57-79.51,0,0,23.71,11.08,27.5,6.66,3-3.5,16.32-23.63,21.74-31.89Z"/><path class="cls-6" d="M363.85,370.65l-14.44,16.41s-16.77,22.44-20.25,21.49a16.05,16.05,0,0,0-3.17-.37,6.16,6.16,0,0,1-4-10.38c5.72-6,16.26-17.39,16.95-19.92s7.4-13.62,10.76-19.05a30.49,30.49,0,0,1,8.22,4.83A40.86,40.86,0,0,1,363.85,370.65Z"/><path class="cls-16" d="M772.41,606.74c-2.45,4.9-15,23.28-20.49,31.31l-2.57,3.78s-1,6.64-17.39-1.59S330.48,469.52,330.48,469.52l-2.61-7.84,19-28.45L768.94,596.3S775.58,600.41,772.41,606.74Z"/><path class="cls-6" d="M751.92,638.05l-2.57,3.78s-1,6.64-17.39-1.59S330.48,469.52,330.48,469.52l-2.61-7.84Z"/><path class="cls-17" d="M519.64,531.91c-3.91-.64-8.25-.33-11.29,2.21a9.27,9.27,0,0,0-3.24,6.16c-.26,2.77,1.35,6.06,4.13,6.27a13.35,13.35,0,0,0,2-.13,29.65,29.65,0,0,1,5.24.44,21.38,21.38,0,0,0,18.23-7.36c2.39-3-.76-4.3-3.58-4.9C527.27,533.78,523.5,532.53,519.64,531.91Z"/><path class="cls-7" d="M586.52,622.22,589,639.84a26.8,26.8,0,0,1,.38,5.51c-.29,4.15-2.5,7.87-4.09,11.71s-2.56,8.44-.45,12c.65,1.11,1.56,2.06,2.15,3.21a12.93,12.93,0,0,1,1,5.63l.68,25a157.32,157.32,0,0,0,23.18-.13,1.33,1.33,0,0,0,.84-.26,1.36,1.36,0,0,0,.29-.91c.34-5.85-.68-11.71-.35-17.56.12-2.14.42-4.27.46-6.42.12-8.71-4.18-17.24-2.88-25.85a57,57,0,0,1,1.6-6.43c4.11-15,3.24-30.76,2.33-46.25a1.09,1.09,0,0,0-.2-.7,1.06,1.06,0,0,0-.54-.29,28.45,28.45,0,0,0-25.78,4.9c-1.09.88-3.84,1.73-4.56,2.78-1,1.46.31,2.92.89,4.47A57,57,0,0,1,586.52,622.22Z"/><path class="cls-6" d="M586.52,622.22,589,639.84a26.8,26.8,0,0,1,.38,5.51c-.29,4.15-2.5,7.87-4.09,11.71s-2.56,8.44-.45,12c.65,1.11,1.56,2.06,2.15,3.21a12.93,12.93,0,0,1,1,5.63l.68,25a157.32,157.32,0,0,0,23.18-.13,1.33,1.33,0,0,0,.84-.26,1.36,1.36,0,0,0,.29-.91c.34-5.85-.68-11.71-.35-17.56.12-2.14.42-4.27.46-6.42.12-8.71-4.18-17.24-2.88-25.85a57,57,0,0,1,1.6-6.43c4.11-15,3.24-30.76,2.33-46.25a1.09,1.09,0,0,0-.2-.7,1.06,1.06,0,0,0-.54-.29,28.45,28.45,0,0,0-25.78,4.9c-1.09.88-3.84,1.73-4.56,2.78-1,1.46.31,2.92.89,4.47A57,57,0,0,1,586.52,622.22Z"/><path class="cls-7" d="M632.89,616.91c-1.17,2.43-2.74,4.69-3.44,7.3-1.82,6.89,2.89,14,2.33,21.06-.18,2.23-.87,4.4-.92,6.63s.77,4.71,2.75,5.74c1.33.68,3,.61,4.25,1.39,2.11,1.29,2.35,4.22,2.14,6.68s-.56,5.21,1,7.13c1.19,1.49,3.23,2.07,4.51,3.48a17.27,17.27,0,0,1,1.93,3.26c1.91,3.34,5.4,5.38,8.26,8s5.28,6.46,4,10.09c-.94,2.66-3.58,4.3-6.12,5.55A64.93,64.93,0,0,1,639,708.37a3.63,3.63,0,0,1-1.67.09,3.67,3.67,0,0,1-1.46-1c-3-2.89-6-5.92-7.36-9.81A10,10,0,0,0,627.4,695c-1.56-2.19-4.85-2.11-7.07-3.62-2.6-1.77-3.23-5.28-4.93-7.93s-4.19-4.23-6-6.56c-3.06-3.88-3.81-9.06-6-13.49-.93-1.88-2.12-3.64-2.86-5.6a30.27,30.27,0,0,1-1.37-7.24c-1.41-11.68-5-23.44-2.74-35,.5-2.54,1.27-5,1.59-7.62.55-4.53-.32-9.17.35-13.69a3.76,3.76,0,0,1,1.51-2.91,4.08,4.08,0,0,1,1.72-.35,117.28,117.28,0,0,1,17.78.4c3,.29,6.36.9,8.16,3.35,1.53,2.1,1.45,4.91,1.94,7.46.61,3.14,2.2,4.85,3.87,7.31S634.12,614.37,632.89,616.91Z"/><path class="cls-15" d="M609.82,698.17c1.58,0,3.33-.1,4.55.9,1.52,1.25,1.54,3.54,1.3,5.49-.7,5.48-2.49,10.75-4.28,16l-5.32,15.61a36.44,36.44,0,0,0-1.86,6.88c-.52,4,.28,8,.38,12,0,2-.13,4.22-1.38,5.83-2.26,2.91-6.67,2.57-10.3,2l-17.71-3a21.39,21.39,0,0,1-4.38-1.07,30,30,0,0,1-4.25-2.39,65.26,65.26,0,0,0-11-5c-1.66-.62-3.52-1.41-4.12-3.08-.71-2,.87-4.2,2.83-5s4.15-.6,6.27-.54a47,47,0,0,0,15.4-2.08,9.81,9.81,0,0,0,4.06-2.1,10,10,0,0,0,2.34-4.71,70,70,0,0,0,2.68-16c.21-4,.07-8,.23-12,.1-2.37-.13-10,2-11.63,1.59-1.22,8.13,2.15,10.28,2.64A49.62,49.62,0,0,0,609.82,698.17Z"/><path class="cls-15" d="M668.16,709.29c1.73,5.73,2,11.79,3.12,17.68s3.1,11.9,7.47,16a10.12,10.12,0,0,1,2.17,2.4,5.07,5.07,0,0,1-.75,5.23,13.17,13.17,0,0,1-4.39,3.37c-11.29,6.16-24,9.27-36.81,10.81a15.55,15.55,0,0,1-6.82-.25c-2.18-.74-4.11-2.7-4.07-5a2.54,2.54,0,0,1,.6-1.73A3.76,3.76,0,0,1,630,757c4.72-1.94,9.51-4,13.16-7.63s5.94-9,4.53-13.86a27.64,27.64,0,0,0-3.37-6.41,106.83,106.83,0,0,1-5-9.69l-4.4-9.23c-1.29-2.7-2.59-5.48-2.81-8.46a40.59,40.59,0,0,0,16.22-2.6,25.43,25.43,0,0,0,6.67-4c1.7-1.42,3.25-4.07,5.54-2.22,1.84,1.48,3,5.65,4.08,7.76A57.05,57.05,0,0,1,668.16,709.29Z"/><path class="cls-17" d="M603.68,480.1c.44,3.84,4.16,6.37,7.71,7.89l-22.47,7.17c1.45-2.78.28-6.18-1.16-9a50.5,50.5,0,0,0-4-6.41c-.22-.31-.47-.7-.31-1.06a1.1,1.1,0,0,1,.63-.49c4.62-2.06,9.38-4.19,14.43-4.94,1.46-.21,4.22-.79,5.31.69S603.47,478.33,603.68,480.1Z"/><path class="cls-6" d="M603.68,480.1c.44,3.84,4.16,6.37,7.71,7.89l-22.47,7.17c1.45-2.78.28-6.18-1.16-9a50.5,50.5,0,0,0-4-6.41c-.22-.31-.47-.7-.31-1.06a1.1,1.1,0,0,1,.63-.49c4.62-2.06,9.38-4.19,14.43-4.94,1.46-.21,4.22-.79,5.31.69S603.47,478.33,603.68,480.1Z"/><circle class="cls-17" cx="590.62" cy="465.59" r="17.62"/><path class="cls-15" d="M575.35,610.59c1.71,2,4.72,2.45,7.35,2,6.15-1,11.18-5.53,17.2-7.16,7.38-2,15.19.57,22.16,3.72s13.9,7,21.52,7.54c-6.89-15.36-3-33.84-9.54-49.33-1.61-3.79-3.86-7.44-4.22-11.54-.45-5.09,2.09-10,2.48-15.06.36-4.51-1-9-2.3-13.3q-2.41-7.92-4.82-15.84c-1.8-5.91-3.65-11.92-7.14-17-1.29-1.87-1.68-5.66-3.64-6.79-4.28-2.47-10.77.64-15.41.81s-8.87,3.47-11.58,7.2c-2.87,3.94-4.5,8.63-6,13.27a126.14,126.14,0,0,0-5.33,21.23c-.15,1.08-.28,2.16-.38,3.25-1,10.27.46,20.6.54,30.92v.07c.1,13.09-2,26.1-2.39,39.18C573.81,606.15,573.87,608.76,575.35,610.59Z"/><path class="cls-6" d="M576.27,564.52c3.45-.87,6.57-3.1,9.25-5.54a39,39,0,0,0,6.14-7A50,50,0,0,0,597,540.91a129.65,129.65,0,0,0,7-32.27c.26-3,.34-6.22-1.45-8.6a7.25,7.25,0,0,0-8.75-2.12c-2.36,1.15-3.89,3.48-5.31,5.71-2.81,4.42-5.64,8.9-7.45,13.82-.8,2.18-1.39,4.42-2.17,6.61a61,61,0,0,1-2.74,6.33c-.15,1.08-.28,2.16-.38,3.25C574.77,543.91,576.19,554.2,576.27,564.52Z"/><path class="cls-15" d="M602.45,498.11c1.79,2.38,1.71,5.63,1.46,8.59a129.21,129.21,0,0,1-7,32.27,49.41,49.41,0,0,1-5.29,11.16,39,39,0,0,1-6.14,7c-3.4,3.1-7.54,5.87-12.15,5.91a23.13,23.13,0,0,1-7.56-1.65l-37.55-12.78c-.38-2.14,1.13-4.64,1.84-6.7l2-5.93c.57-1.64,1.23-3.41,2.72-4.3s3.85.33,5.09,1.32,2.18,2.29,3.4,3.3c2.31,1.92,5.36,2.64,8.3,3.3l8.43,1.89a35,35,0,0,0,9.38,1.25c2.35-7.18,6.82-13.5,9.35-20.62.78-2.18,1.37-4.43,2.18-6.61,1.8-4.92,4.64-9.39,7.45-13.82,1.41-2.22,2.94-4.55,5.31-5.71A7.23,7.23,0,0,1,602.45,498.11Z"/><path class="cls-15" d="M596.24,469.57a8.76,8.76,0,0,0-1.06-3.3,2.77,2.77,0,0,0-3-1.32c-1.76.55-2.35,3.27-4.19,3.36-1.24.06-2.13-1.2-2.52-2.38s-.6-2.53-1.53-3.36a5.7,5.7,0,0,0-2.18-1c-4.27-1.35-8.68-3.84-10.1-8.09a4.91,4.91,0,0,1-.23-2.71c.65-2.69,4-3.5,6.55-4.47s5-2.63,7.5-3.89,5.4-2.15,8.15-1.51a42.17,42.17,0,0,1,4.11,1.53c4.14,1.44,9.21.77,12.42,3.76a12.85,12.85,0,0,1,3,5.24c2.24,6.22,3.66,13.6,0,19.06-2.29,3.37-4.51,7.22-8.91,7.63C599.08,478.55,597.05,473.91,596.24,469.57Z"/><g class="cls-2"><path d="M588.42,463.81c-.39-1.18-.6-2.53-1.52-3.36a5.7,5.7,0,0,0-2.18-1c-4.28-1.35-8.68-3.84-10.11-8.09a4.91,4.91,0,0,1-.22-2.71,3.45,3.45,0,0,1,.53-1.19c-1.63.71-3,1.65-3.45,3.31a4.91,4.91,0,0,0,.23,2.71c1.42,4.25,5.83,6.74,10.1,8.09a5.7,5.7,0,0,1,2.18,1c.93.83,1.13,2.17,1.53,3.36s1.28,2.44,2.52,2.38,1.84-1.19,2.63-2.14A3.18,3.18,0,0,1,588.42,463.81Z"/><path d="M607.14,476c-5.14.47-7.17-4.21-8-8.52a8.67,8.67,0,0,0-1-3.3,2.77,2.77,0,0,0-3-1.32,5.33,5.33,0,0,0-2.21,2,3,3,0,0,1,2.26,1.4,8.76,8.76,0,0,1,1.06,3.3c.81,4.31,2.84,9,8,8.52a8.22,8.22,0,0,0,5.28-2.74A7.59,7.59,0,0,1,607.14,476Z"/></g><ellipse class="cls-3" cx="813.11" cy="655.78" rx="32.29" ry="6.21"/><ellipse class="cls-7" cx="812.57" cy="653.14" rx="3.76" ry="4.92"/><ellipse class="cls-7" cx="812.57" cy="647.12" rx="3.76" ry="4.92"/><ellipse class="cls-7" cx="812.57" cy="641.11" rx="3.76" ry="4.92"/><ellipse class="cls-7" cx="812.57" cy="635.09" rx="3.76" ry="4.92"/><ellipse class="cls-7" cx="812.57" cy="629.07" rx="3.76" ry="4.92"/><ellipse class="cls-7" cx="812.57" cy="623.06" rx="3.76" ry="4.92"/><ellipse class="cls-7" cx="812.57" cy="617.04" rx="3.76" ry="4.92"/><path class="cls-3" d="M826.64,575.91a18.19,18.19,0,0,0,1.4-2.06l-9.88-1.62,10.69.07a18.1,18.1,0,0,0,.34-14.27l-14.34,7.44,13.22-9.72a18,18,0,0,0-31.13,18.08,17.27,17.27,0,0,0,1.41,2.08,18.62,18.62,0,0,0-2.06,3.28l12.83,6.67-13.68-4.59a18,18,0,0,0,2.91,16.88,18,18,0,1,0,28.31,0,18,18,0,0,0,0-22.27Z"/><path class="cls-6" d="M794.47,587a18,18,0,0,0,3.88,11.14,18,18,0,1,0,28.31,0C829.05,595.08,794.47,585,794.47,587Z"/><ellipse class="cls-3" cx="148.42" cy="776.87" rx="46.49" ry="8.94"/><ellipse class="cls-7" cx="147.64" cy="773.07" rx="5.41" ry="7.09"/><ellipse class="cls-7" cx="147.64" cy="764.41" rx="5.41" ry="7.09"/><ellipse class="cls-7" cx="147.64" cy="755.75" rx="5.41" ry="7.09"/><ellipse class="cls-7" cx="147.64" cy="747.09" rx="5.41" ry="7.09"/><ellipse class="cls-7" cx="147.64" cy="738.43" rx="5.41" ry="7.09"/><ellipse class="cls-7" cx="147.64" cy="729.76" rx="5.41" ry="7.09"/><ellipse class="cls-7" cx="147.64" cy="721.1" rx="5.41" ry="7.09"/><path class="cls-3" d="M167.9,661.84a27.44,27.44,0,0,0,2-3l-14.22-2.34,15.38.12a26,26,0,0,0,.49-20.55l-20.62,10.74,19-14a25.93,25.93,0,1,0-42.83,29,25.82,25.82,0,0,0-3,4.72l18.47,9.6-19.69-6.61a25.94,25.94,0,0,0,4.26,24.39,25.93,25.93,0,1,0,40.76,0,25.92,25.92,0,0,0,0-32.06Z"/><path class="cls-6" d="M121.59,677.91a25.86,25.86,0,0,0,5.55,16,25.93,25.93,0,1,0,40.76,0C171.35,689.49,121.59,675,121.59,677.91Z"/></g></g></svg>