<svg width="115" height="115" viewBox="0 0 115 115" fill="none" xmlns="http://www.w3.org/2000/svg">
<circle cx="57.5" cy="57.5" r="57.5" fill="#E7ECF7"/>
<circle cx="57.5002" cy="57.2165" r="25.6188" fill="#F6F7F7"/>
<path d="M57.5 29.3203C42.1014 29.3203 29.604 41.8177 29.604 57.2164C29.604 72.615 42.1014 85.1124 57.5 85.1124C72.8987 85.1124 85.3961 72.615 85.3961 57.2164C85.3961 41.8177 72.8987 29.3203 57.5 29.3203ZM57.5 37.6891C62.1308 37.6891 65.8689 41.4272 65.8689 46.0579C65.8689 50.6887 62.1308 54.4267 57.5 54.4267C52.8693 54.4267 49.1312 50.6887 49.1312 46.0579C49.1312 41.4272 52.8693 37.6891 57.5 37.6891ZM57.5 77.3015C50.526 77.3015 44.361 73.7308 40.7624 68.319C40.8461 62.7677 51.9208 59.727 57.5 59.727C63.0514 59.727 74.154 62.7677 74.2377 68.319C70.6391 73.7308 64.4741 77.3015 57.5 77.3015Z" fill="#E7ECF7"/>
<line x1="68.4551" y1="44.4258" x2="74.1217" y2="44.4258" stroke="#F6F7F7" stroke-width="2" stroke-linecap="round" stroke-linejoin="round"/>
<line x1="71.0542" y1="47.4922" x2="71.0542" y2="41.8255" stroke="#F6F7F7" stroke-width="2" stroke-linecap="round" stroke-linejoin="round"/>
</svg>
