<svg width="62" height="62" viewBox="0 0 62 62" fill="none" xmlns="http://www.w3.org/2000/svg">
<circle cx="31" cy="31" r="31" fill="#F0E4FB"/>
<path d="M17.9771 45H37.9429C38.4857 45 38.9257 44.56 38.9257 44.0171V38.92H44.0229C44.5657 38.92 45 38.48 45 37.9429V17.9771C45 17.4343 44.56 17 44.0229 17H24.0571C23.5143 17 23.0743 17.44 23.0743 17.9771V23.0743H17.9771C17.4343 23.0743 17 23.5143 17 24.0571V44.0229C17 44.56 17.44 45 17.9771 45ZM25.0343 18.96H43.04V36.9657H25.0343V18.96ZM18.96 25.0343H23.0743V37.9429C23.0743 38.4857 23.5143 38.92 24.0571 38.92H36.9657V43.0343H18.96V25.0343Z" fill="#31005C"/>
<path d="M29.5426 28.9433H33.0569V32.4576C33.0569 33.0005 33.4969 33.4405 34.0398 33.4405C34.5826 33.4405 35.0169 33.0005 35.0169 32.4576V28.9433H38.5312C39.074 28.9433 39.5083 28.5033 39.5083 27.9605C39.5083 27.4176 39.0683 26.9776 38.5312 26.9776H35.0169V23.4633C35.0169 22.9205 34.5769 22.4805 34.0398 22.4805C33.4969 22.4805 33.0569 22.9205 33.0569 23.4633V26.9776H29.5426C28.9998 26.9776 28.5655 27.4176 28.5655 27.9605C28.5598 28.5033 28.9998 28.9433 29.5426 28.9433Z" fill="#31005C"/>
</svg>
