<svg width="62" height="62" viewBox="0 0 62 62" fill="none" xmlns="http://www.w3.org/2000/svg">
<circle cx="31" cy="31" r="31" fill="#F0E4FB"/>
<path d="M41.6875 24.25H20.3125C19.368 24.251 18.4625 24.6069 17.7946 25.2396C17.1267 25.8723 16.751 26.7302 16.75 27.625V34.375C16.7507 34.9715 17.0012 35.5434 17.4464 35.9652C17.8917 36.387 18.4953 36.6243 19.125 36.625V44.5C19.1257 45.0965 19.3762 45.6684 19.8214 46.0902C20.2667 46.512 20.8703 46.7493 21.5 46.75H26.25C26.8797 46.7493 27.4833 46.512 27.9286 46.0902C28.3738 45.6684 28.6243 45.0965 28.625 44.5V31H26.25V44.5H21.5V34.375H19.125V27.625C19.1253 27.3267 19.2505 27.0407 19.4731 26.8298C19.6958 26.6189 19.9976 26.5003 20.3125 26.5H41.6875C42.0024 26.5003 42.3042 26.6189 42.5269 26.8298C42.7495 27.0407 42.8747 27.3267 42.875 27.625V34.375H40.5V44.5H35.75V31H33.375V44.5C33.3757 45.0965 33.6262 45.6684 34.0714 46.0902C34.5167 46.512 35.1203 46.7493 35.75 46.75H40.5C41.1297 46.7493 41.7333 46.512 42.1786 46.0902C42.6238 45.6684 42.8743 45.0965 42.875 44.5V36.625C43.5047 36.6243 44.1083 36.387 44.5536 35.9652C44.9988 35.5434 45.2493 34.9715 45.25 34.375V27.625C45.249 26.7302 44.8733 25.8723 44.2054 25.2396C43.5375 24.6069 42.632 24.251 41.6875 24.25Z" fill="#31005C"/>
<path d="M23.875 23.125C22.9355 23.125 22.0172 22.8611 21.236 22.3666C20.4549 21.8721 19.8461 21.1693 19.4866 20.3471C19.1271 19.5248 19.033 18.62 19.2163 17.7471C19.3996 16.8742 19.8519 16.0724 20.5162 15.443C21.1805 14.8137 22.0269 14.3851 22.9483 14.2115C23.8697 14.0378 24.8248 14.1269 25.6927 14.4675C26.5607 14.8081 27.3025 15.3849 27.8245 16.1249C28.3464 16.865 28.625 17.735 28.625 18.625C28.6237 19.8181 28.1228 20.962 27.2323 21.8056C26.3418 22.6492 25.1344 23.1238 23.875 23.125ZM23.875 16.375C23.4053 16.375 22.9461 16.507 22.5555 16.7542C22.165 17.0014 21.8605 17.3528 21.6808 17.764C21.501 18.1751 21.454 18.6275 21.5456 19.064C21.6373 19.5004 21.8635 19.9013 22.1956 20.216C22.5278 20.5307 22.951 20.745 23.4117 20.8318C23.8724 20.9186 24.3499 20.874 24.7839 20.7037C25.2179 20.5334 25.5888 20.245 25.8497 19.875C26.1107 19.505 26.25 19.07 26.25 18.625C26.2493 18.0285 25.9988 17.4566 25.5536 17.0348C25.1083 16.613 24.5047 16.3757 23.875 16.375Z" fill="#31005C"/>
<path d="M38.125 23.125C37.1855 23.125 36.2672 22.8611 35.486 22.3666C34.7049 21.8721 34.0961 21.1693 33.7366 20.3471C33.3771 19.5248 33.283 18.62 33.4663 17.7471C33.6496 16.8742 34.1019 16.0724 34.7662 15.443C35.4305 14.8137 36.2769 14.3851 37.1983 14.2115C38.1197 14.0378 39.0748 14.1269 39.9427 14.4675C40.8107 14.8081 41.5525 15.3849 42.0745 16.1249C42.5964 16.865 42.875 17.735 42.875 18.625C42.8737 19.8181 42.3728 20.962 41.4823 21.8056C40.5918 22.6492 39.3844 23.1238 38.125 23.125ZM38.125 16.375C37.6553 16.375 37.1961 16.507 36.8055 16.7542C36.415 17.0014 36.1105 17.3528 35.9308 17.764C35.751 18.1751 35.704 18.6275 35.7956 19.064C35.8873 19.5004 36.1135 19.9013 36.4456 20.216C36.7778 20.5307 37.201 20.745 37.6617 20.8318C38.1224 20.9186 38.5999 20.874 39.0339 20.7037C39.4679 20.5334 39.8388 20.245 40.0997 19.875C40.3607 19.505 40.5 19.07 40.5 18.625C40.4993 18.0285 40.2488 17.4566 39.8036 17.0348C39.3583 16.613 38.7547 16.3757 38.125 16.375Z" fill="#31005C"/>
</svg>
