<svg width="62" height="62" viewBox="0 0 62 62" fill="none" xmlns="http://www.w3.org/2000/svg">
<circle cx="31" cy="31" r="31" fill="#EAD1FF" fill-opacity="0.5"/>
<path d="M30.1849 34.3991V36.9824C28.1295 36.9824 26.1582 37.7989 24.7048 39.2523C23.2514 40.7057 22.4349 42.677 22.4349 44.7324H19.8516C19.8516 41.9918 20.9403 39.3635 22.8781 37.4257C24.816 35.4878 27.4443 34.3991 30.1849 34.3991ZM30.1849 33.1074C25.903 33.1074 22.4349 29.6393 22.4349 25.3574C22.4349 21.0755 25.903 17.6074 30.1849 17.6074C34.4668 17.6074 37.9349 21.0755 37.9349 25.3574C37.9349 29.6393 34.4668 33.1074 30.1849 33.1074ZM30.1849 30.5241C33.0395 30.5241 35.3516 28.212 35.3516 25.3574C35.3516 22.5028 33.0395 20.1908 30.1849 20.1908C27.3303 20.1908 25.0182 22.5028 25.0182 25.3574C25.0182 28.212 27.3303 30.5241 30.1849 30.5241ZM42.386 42.1904L44.3286 44.1331L42.5022 45.9595L40.5596 44.0168C39.4763 44.6556 38.1973 44.8773 36.9622 44.6404C35.7272 44.4036 34.6209 43.7244 33.8508 42.7302C33.0807 41.7361 32.6996 40.4951 32.779 39.2401C32.8584 37.9851 33.3928 36.8021 34.282 35.9128C35.1712 35.0236 36.3542 34.4892 37.6093 34.4099C38.8643 34.3305 40.1052 34.7116 41.0994 35.4817C42.0935 36.2518 42.7727 37.358 43.0096 38.5931C43.2464 39.8281 43.0247 41.1072 42.386 42.1904ZM37.9349 42.1491C38.62 42.1491 39.2771 41.8769 39.7616 41.3924C40.2461 40.908 40.5182 40.2509 40.5182 39.5658C40.5182 38.8806 40.2461 38.2235 39.7616 37.7391C39.2771 37.2546 38.62 36.9824 37.9349 36.9824C37.2498 36.9824 36.5927 37.2546 36.1082 37.7391C35.6237 38.2235 35.3516 38.8806 35.3516 39.5658C35.3516 40.2509 35.6237 40.908 36.1082 41.3924C36.5927 41.8769 37.2498 42.1491 37.9349 42.1491Z" fill="#31005C"/>
</svg>
