<svg width="62" height="62" viewBox="0 0 62 62" fill="none" xmlns="http://www.w3.org/2000/svg">
<circle cx="31" cy="31" r="31" fill="#F0E4FB"/>
<path d="M42.5113 18.1199C41.1989 16.7581 39.4419 16.0053 37.564 16C37.5575 16 37.5511 16 37.5446 16C35.5124 16 33.4104 16.887 31.9181 18.3752C31.5689 18.7233 31.2621 19.0953 30.9999 19.4854C30.7378 19.0953 30.4309 18.7233 30.0818 18.3752C28.5896 16.8869 26.4878 16 24.4555 16C24.4492 16 24.4425 16 24.4362 16C22.5582 16.0053 20.8011 16.7581 19.4888 18.1199C18.167 19.4915 17.4466 21.3727 17.5119 23.2813C17.6075 26.0704 20.4917 31.5729 21.621 33.6266C20.4975 34.8353 18.2356 37.6318 18.2356 40.5564V41.2552L26.169 44.9326C27.7041 45.6442 29.3521 46 31.0001 46C32.648 46 34.2961 45.6442 35.8312 44.9326L43.7645 41.2552V40.5564C43.7645 37.6318 41.5026 34.8353 40.3792 33.6266C41.5084 31.5728 44.3927 26.0704 44.4882 23.2813C44.5535 21.3727 43.833 19.4915 42.5113 18.1199ZM42.3013 23.2064C42.2219 25.5232 39.2223 31.2542 38.0733 33.267L37.6421 34.0222L38.2805 34.6127C39.1117 35.3816 41.1455 37.6904 41.5174 39.885L34.9109 42.9474C32.4255 44.0995 29.5746 44.0995 27.0893 42.9474L20.4827 39.8849C20.6502 38.8946 21.1722 37.7702 22.0172 36.5905C22.8549 35.4208 23.712 34.6197 23.7197 34.6127L24.3581 34.0221L23.9268 33.2669C22.7777 31.2549 19.7782 25.5255 19.6988 23.2064C19.6529 21.867 20.138 20.5998 21.0644 19.6384C21.9622 18.7068 23.1617 18.1918 24.4422 18.1882C24.4468 18.1882 24.4512 18.1882 24.4559 18.1882C25.9212 18.1882 27.4458 18.8368 28.5367 19.9247C29.1257 20.512 29.5369 21.1858 29.7463 21.8869C29.0472 21.485 28.3073 21.1666 27.7176 21.1666C26.1089 21.1666 24.8 22.4754 24.8 24.0842C24.8 25.693 26.1088 27.0019 27.7176 27.0019C28.6889 27.0019 30.067 26.1387 30.9999 25.4603C31.9329 26.1386 33.311 27.0019 34.2822 27.0019C35.891 27.0019 37.1999 25.693 37.1999 24.0842C37.1999 22.4754 35.8911 21.1666 34.2822 21.1666C33.6925 21.1666 32.9526 21.4849 32.2536 21.8869C32.4628 21.1858 32.8741 20.512 33.4631 19.9247C34.5541 18.8367 36.0787 18.1882 37.544 18.1882C37.5486 18.1882 37.5532 18.1882 37.5578 18.1882C38.8383 18.1918 40.0378 18.7068 40.9356 19.6384C41.8621 20.5998 42.3472 21.8669 42.3013 23.2064ZM29.1324 24.0841C28.505 24.4925 27.944 24.7882 27.7093 24.8135C27.311 24.809 26.9883 24.4835 26.9883 24.0841C26.9883 23.6847 27.311 23.3593 27.7093 23.3547C27.944 23.3801 28.505 23.6757 29.1324 24.0841ZM32.8677 24.0841C33.495 23.6757 34.056 23.3801 34.2907 23.3547C34.6891 23.3593 35.0117 23.6847 35.0117 24.0841C35.0117 24.4835 34.6891 24.809 34.2907 24.8135C34.056 24.7882 33.495 24.4926 32.8677 24.0841Z" fill="#31005C"/>
<path d="M31.0004 31.3777C31.6046 31.3777 32.0945 30.8878 32.0945 30.2836C32.0945 29.6793 31.6046 29.1895 31.0004 29.1895C30.3961 29.1895 29.9062 29.6793 29.9062 30.2836C29.9062 30.8878 30.3961 31.3777 31.0004 31.3777Z" fill="#31005C"/>
<path d="M31.0004 35.7547C31.6046 35.7547 32.0945 35.2648 32.0945 34.6605C32.0945 34.0563 31.6046 33.5664 31.0004 33.5664C30.3961 33.5664 29.9062 34.0563 29.9062 34.6605C29.9062 35.2648 30.3961 35.7547 31.0004 35.7547Z" fill="#31005C"/>
<path d="M31.0004 40.1306C31.6046 40.1306 32.0945 39.6408 32.0945 39.0365C32.0945 38.4322 31.6046 37.9424 31.0004 37.9424C30.3961 37.9424 29.9062 38.4322 29.9062 39.0365C29.9062 39.6408 30.3961 40.1306 31.0004 40.1306Z" fill="#31005C"/>
</svg>
