<svg width="16" height="23" viewBox="0 0 16 23" fill="none" xmlns="http://www.w3.org/2000/svg">
<path d="M8.24882 14.0054C9.71234 14.0054 11.1159 13.424 12.1508 12.3892C13.1856 11.3543 13.767 9.95074 13.767 8.48722C13.767 7.0237 13.1856 5.62012 12.1508 4.58526C11.1159 3.55039 9.71234 2.96901 8.24882 2.96901C6.7853 2.96901 5.38172 3.55039 4.34686 4.58526C3.312 5.62012 2.73061 7.0237 2.73061 8.48722C2.73061 9.95074 3.312 11.3543 4.34686 12.3892C5.38172 13.424 6.7853 14.0054 8.24882 14.0054ZM9.35246 18.42H10.4561C10.7488 18.42 11.0295 18.5363 11.2365 18.7432C11.4435 18.9502 11.5597 19.2309 11.5597 19.5236C11.5597 19.8163 11.4435 20.0971 11.2365 20.304C11.0295 20.511 10.7488 20.6273 10.4561 20.6273H9.35246V21.7309C9.35246 22.0236 9.23619 22.3043 9.02921 22.5113C8.82224 22.7183 8.54153 22.8346 8.24882 22.8346C7.95612 22.8346 7.6754 22.7183 7.46843 22.5113C7.26146 22.3043 7.14518 22.0236 7.14518 21.7309V20.6273H6.04154C5.74884 20.6273 5.46812 20.511 5.26115 20.304C5.05417 20.0971 4.9379 19.8163 4.9379 19.5236C4.9379 19.2309 5.05417 18.9502 5.26115 18.7432C5.46812 18.5363 5.74884 18.42 6.04154 18.42H7.14518V16.2127C7.14518 16.1862 7.14518 16.1608 7.14739 16.1355C5.21735 15.8526 3.46566 14.8504 2.24382 13.3298C1.02199 11.8092 0.420413 9.88284 0.559808 7.93717C0.699203 5.99151 1.56926 4.17054 2.99538 2.83967C4.4215 1.5088 6.29818 0.766505 8.24882 0.761728C10.2042 0.758771 12.088 1.49741 13.5202 2.82867C14.9524 4.15993 15.8265 5.98476 15.9662 7.93514C16.106 9.88552 15.5009 11.8163 14.2731 13.3382C13.0453 14.86 11.2861 15.8596 9.35026 16.1355L9.35246 16.2127V18.42Z" fill="#31005C"/>
</svg>
