<svg width="20" height="20" viewBox="0 0 20 20" fill="none" xmlns="http://www.w3.org/2000/svg">
<path d="M4.23445 15.4659C4.74605 15.982 5.35454 16.392 6.025 16.6723C6.69547 16.9526 7.41469 17.0977 8.14138 17.0993C8.86808 17.1009 9.58793 16.9589 10.2596 16.6816C10.9313 16.4042 11.5416 15.9969 12.0554 15.4831C12.5693 14.9692 12.9766 14.3589 13.2539 13.6872C13.5313 13.0156 13.6733 12.2957 13.6717 11.569C13.6701 10.8423 13.525 10.1231 13.2447 9.45264C12.9644 8.78218 12.5544 8.17368 12.0383 7.66209C11.0019 6.63471 9.60071 6.05971 8.14138 6.06291C6.68205 6.0661 5.28341 6.64723 4.2515 7.67914C3.2196 8.71104 2.63847 10.1097 2.63527 11.569C2.63208 13.0283 3.20708 14.4295 4.23445 15.4659ZM12.7634 5.37645L15.581 2.55885H13.9068C13.6141 2.55885 13.3333 2.44257 13.1264 2.2356C12.9194 2.02863 12.8031 1.74791 12.8031 1.45521C12.8031 1.1625 12.9194 0.88179 13.1264 0.674817C13.3333 0.467844 13.6141 0.351567 13.9068 0.351567H18.3213C18.4664 0.35113 18.6101 0.379379 18.7442 0.434687C18.8783 0.489995 19.0001 0.571272 19.1027 0.673842C19.2053 0.776412 19.2865 0.89825 19.3419 1.03235C19.3972 1.16644 19.4254 1.31015 19.425 1.45521V5.86977C19.425 6.16248 19.3087 6.44319 19.1017 6.65017C18.8948 6.85714 18.614 6.97342 18.3213 6.97342C18.0286 6.97342 17.7479 6.85714 17.5409 6.65017C17.334 6.44319 17.2177 6.16248 17.2177 5.86977V4.04325L14.3239 6.937C15.4856 8.50199 16.013 10.4481 15.8005 12.3855C15.588 14.3229 14.6512 16.1085 13.1779 17.3844C11.7046 18.6604 9.80358 19.3325 7.85569 19.2661C5.9078 19.1997 4.05693 18.3998 2.6739 17.0265C1.29196 15.6455 0.484531 13.7923 0.414193 11.8399C0.343854 9.88752 1.01583 7.98098 2.29482 6.50417C3.57381 5.02736 5.36482 4.08996 7.30724 3.88071C9.24966 3.67147 11.1992 4.20591 12.7634 5.37645Z" fill="#31005C"/>
</svg>
