<svg width="25" height="27" viewBox="0 0 25 27" fill="none" xmlns="http://www.w3.org/2000/svg">
<path d="M24.0305 14.4627C23.5109 14.4627 23.0819 14.4648 23.0799 14.469C23.0779 14.4711 23.0698 15.1041 23.0638 15.877L23.0537 17.2808L21.223 15.3694L19.3922 13.4579L19.4385 13.3932C19.5795 13.1968 19.8413 12.7728 19.9763 12.5242C20.4717 11.6134 20.7879 10.6169 20.943 9.47006C20.9712 9.26325 20.9772 9.06271 20.9772 8.50913C20.9772 7.72575 20.9531 7.45836 20.8181 6.8066C20.5684 5.60543 20.0427 4.43977 19.3157 3.46839C18.5947 2.50955 17.638 1.71364 16.5545 1.17886C15.7509 0.779862 14.9936 0.554251 14.0208 0.420555C13.7187 0.378776 12.605 0.385042 12.2888 0.431C11.2374 0.583497 10.4056 0.859243 9.53962 1.33971C8.47823 1.92881 7.55581 2.76649 6.8791 3.75667C6.78444 3.89246 6.77034 3.90499 6.65755 3.9405C6.59311 3.96139 6.42191 4.01571 6.2769 4.06167C4.27094 4.70507 2.60534 6.18617 1.64868 8.17489C1.26602 8.9687 1.04649 9.69149 0.921622 10.5668C0.837033 11.158 0.818907 11.9664 0.879328 12.5409C1.05052 14.2121 1.62854 15.643 2.64965 16.9278C2.83293 17.1575 3.38678 17.732 3.6184 17.9326C4.55089 18.7389 5.60221 19.3029 6.71999 19.5975C7.35843 19.7667 7.82166 19.8294 8.53261 19.8461C9.49732 19.867 10.2868 19.7416 11.2254 19.422C11.4127 19.3573 11.5698 19.3092 11.5738 19.3134C11.5778 19.3155 12.1337 20.3453 12.8124 21.5966C13.4891 22.85 14.0611 23.9029 14.0812 23.9384L14.1175 24.0032L14.0369 23.9844C13.9926 23.976 13.4146 23.8068 12.752 23.6125C12.0874 23.4162 11.5335 23.2574 11.5174 23.2574C11.4811 23.2574 10.9676 25.1375 10.9978 25.1563C11.0099 25.1646 11.2173 25.2294 11.457 25.3004C15.1809 26.393 16.6572 26.8254 16.7015 26.8358L16.7518 26.8484L17.5655 23.8737C18.0126 22.2359 18.3751 20.8927 18.3691 20.8885C18.3651 20.8843 17.9542 20.7611 17.4567 20.6148C16.8304 20.431 16.5484 20.3558 16.5383 20.3725C16.5323 20.3871 16.3631 20.9888 16.1657 21.7115C15.8818 22.7456 15.7992 23.0234 15.7811 23.0025C15.7629 22.9817 14.5646 20.7799 13.4025 18.624L13.2515 18.3441L13.2978 18.3107C13.5153 18.154 13.906 17.801 14.1839 17.5148C14.5183 17.168 14.7237 16.9257 14.9674 16.5873C15.0399 16.4891 15.1205 16.3972 15.1487 16.3867C15.1769 16.3763 15.3078 16.3324 15.4407 16.2906C16.3208 16.0107 17.1486 15.5783 17.8938 15.0038L18.0489 14.8847L19.8574 16.7648C20.8504 17.7989 21.6721 18.6574 21.6801 18.6742C21.6942 18.6992 21.5089 18.7034 20.3549 18.7034L19.0156 18.7034L19.0156 19.6957L19.0156 20.6879L21.9963 20.6879L24.9771 20.6879L24.9771 17.5753L24.9771 14.4627L24.0305 14.4627ZM19.0458 9.14C18.9672 9.90457 18.7618 10.6232 18.4214 11.3188C18.0086 12.1669 17.4567 12.8542 16.7498 13.4057C16.5162 13.5896 16.2987 13.74 16.2866 13.7274C16.2826 13.7232 16.3047 13.5875 16.3369 13.4224C16.6773 11.6719 16.4497 9.82519 15.6965 8.22711C15.342 7.47716 14.907 6.83793 14.3108 6.19035C13.9302 5.77673 13.7469 5.60752 13.3622 5.3067C12.3008 4.47737 11.0058 3.92379 9.71282 3.74414L9.52149 3.71907L9.59198 3.6564C9.74102 3.52479 10.2526 3.19056 10.5225 3.04642C11.1508 2.71636 11.7893 2.51163 12.5103 2.40719C12.7641 2.36958 13.6261 2.36958 13.8798 2.40719C15.2433 2.60355 16.4074 3.19265 17.3359 4.15149C18.1052 4.9474 18.647 5.95638 18.9169 7.09697C18.9693 7.32258 19.0438 7.78634 19.0619 8.01821C19.082 8.248 19.072 8.88515 19.0458 9.14ZM14.5626 12.1962C14.5102 13.0151 14.331 13.7191 14.0007 14.4251L13.9161 14.6069L13.7811 14.6236C13.7086 14.632 13.4307 14.6403 13.1649 14.6382C12.605 14.6361 12.3029 14.5985 11.7973 14.4648C11.3764 14.352 11.03 14.2183 10.6272 14.0136C10.0169 13.7044 9.56781 13.3744 9.09452 12.8856C8.77026 12.5534 8.57692 12.3111 8.3453 11.956C7.7995 11.1099 7.45511 10.1093 7.35239 9.05435C7.32218 8.74309 7.34031 7.92421 7.38462 7.63175C7.47927 7.00714 7.73908 6.1423 7.9425 5.7809C7.98681 5.70361 8.015 5.69734 8.44399 5.67645C9.14286 5.64303 9.94645 5.77255 10.6473 6.03367C11.2294 6.24884 11.9867 6.70215 12.47 7.12204C13.7107 8.20204 14.4538 9.73119 14.5626 11.417C14.5868 11.7659 14.5868 11.8515 14.5626 12.1962ZM12.0108 16.817C11.1528 17.4228 10.1861 17.7675 9.11667 17.849C7.55581 17.9681 6.03724 17.4521 4.83688 16.3951C4.61534 16.1987 4.19843 15.7537 4.02523 15.5281C3.34046 14.6382 2.92557 13.5833 2.79466 12.4155C2.75438 12.0541 2.75237 11.4024 2.79265 11.0472C2.91953 9.90666 3.34248 8.85799 4.04335 7.9451C4.21857 7.7174 4.73819 7.17844 4.95772 6.9967C5.20947 6.78989 5.61026 6.51623 5.61832 6.54547C5.62235 6.55801 5.60825 6.65619 5.58408 6.76064C5.45116 7.36854 5.41088 7.78633 5.41289 8.51957C5.41289 9.31965 5.46123 9.73119 5.64249 10.4895C6.0614 12.2463 7.07647 13.8549 8.46212 14.9578C9.47316 15.7621 10.738 16.3303 11.9564 16.5308C12.3029 16.5873 12.2988 16.5852 12.2706 16.6228C12.2585 16.6374 12.1417 16.7251 12.0108 16.817Z" fill="#31005C"/>
</svg>
