<svg width="26" height="27" viewBox="0 0 26 27" fill="none" xmlns="http://www.w3.org/2000/svg">
<path d="M17.4354 19.3018C16.9776 19.1901 16.5168 19.4732 16.4068 19.931C16.1323 21.0701 15.5461 22.1129 14.7127 22.9467C13.505 24.1544 11.8991 24.8198 10.191 24.8198C8.48322 24.8198 6.87736 24.1544 5.66923 22.9467C3.17624 20.4537 3.17624 16.397 5.66923 13.9036C6.87736 12.6959 8.48322 12.0305 10.191 12.0305C11.8992 12.0305 13.505 12.6959 14.7127 13.9036C15.1309 14.3218 15.4885 14.7933 15.7746 15.3053C16.0052 15.7158 16.524 15.8625 16.9354 15.6327C17.3463 15.4025 17.4925 14.8828 17.2628 14.4719C16.8996 13.8235 16.4472 13.2267 15.9182 12.6981C14.3886 11.1681 12.3548 10.3253 10.1909 10.3253C8.30708 10.3253 6.52219 10.9656 5.08175 12.1409L3.86977 10.9285L4.75904 10.0393C5.09196 9.70634 5.09196 9.16665 4.75904 8.83368C4.42611 8.50075 3.88597 8.50075 3.55345 8.83368L2.66418 9.72295L2.20123 9.26C1.86831 8.92708 1.32816 8.92708 0.995647 9.26C0.662266 9.59293 0.662266 10.1326 0.995647 10.4656L1.45819 10.9285L0.569372 11.8178C0.235991 12.1507 0.235991 12.6904 0.569372 13.0234C0.735605 13.1901 0.953898 13.2732 1.17214 13.2732C1.38998 13.2732 1.60867 13.1901 1.77491 13.0234L2.66418 12.1341L3.88038 13.3508C1.32131 16.528 1.51441 21.2036 4.46354 24.1523C5.99352 25.6823 8.02738 26.5251 10.1909 26.5251C12.3547 26.5251 14.3886 25.6823 15.9182 24.1523C16.9741 23.0968 17.7163 21.7753 18.0646 20.3306C18.1747 19.8726 17.8933 19.4122 17.4354 19.3018Z" fill="#31005C"/>
<path d="M24.9014 4.14398L23.9968 3.23937L24.7224 2.51425C25.0553 2.18132 25.0553 1.64164 24.7224 1.30866C24.3895 0.975738 23.8493 0.975738 23.5164 1.30866L22.7913 2.03378L21.9174 1.15985C21.5848 0.826925 21.0443 0.826925 20.7118 1.15985C20.3789 1.49277 20.3789 2.03246 20.7118 2.36544L21.5857 3.23937L20.6312 4.19426C19.1971 3.03641 17.4259 2.40465 15.557 2.40465C13.3935 2.40465 11.3593 3.24699 9.8297 4.77697C8.64544 5.96081 7.86745 7.4558 7.57927 9.0996C7.49826 9.5634 7.80818 10.0055 8.27199 10.0865C8.73366 10.1658 9.17787 9.85798 9.25928 9.39377C9.48606 8.09696 10.1004 6.91738 11.0352 5.98255C12.243 4.77483 13.8488 4.10985 15.557 4.10985C17.2647 4.10985 18.871 4.77488 20.0787 5.98255C21.2864 7.19022 21.9514 8.79653 21.9514 10.5043C21.9514 12.2125 21.2864 13.8183 20.0787 15.026C18.871 16.2337 17.2647 16.8987 15.557 16.8987C13.8488 16.8987 12.2429 16.2337 11.0352 15.026C10.5914 14.5818 10.2168 14.0792 9.92259 13.5322C9.69922 13.1174 9.18214 12.9627 8.76774 13.1852C8.35295 13.4086 8.19779 13.9257 8.42075 14.3401C8.79421 15.0337 9.26822 15.6702 9.82965 16.2316C11.3592 17.7616 13.3935 18.6039 15.557 18.6039C17.7204 18.6039 19.7543 17.7616 21.2843 16.2316C22.8143 14.702 23.6566 12.6677 23.6566 10.5043C23.6566 8.62045 23.0167 6.83515 21.8415 5.39512L22.7913 4.44531L23.6959 5.34946C23.8621 5.51615 24.0804 5.5993 24.2987 5.5993C24.5169 5.5993 24.7352 5.51615 24.9014 5.34946C25.2344 5.01659 25.2344 4.4769 24.9014 4.14398Z" fill="#31005C"/>
</svg>
