<svg width="18" height="22" viewBox="0 0 18 22" fill="none" xmlns="http://www.w3.org/2000/svg">
<path d="M7.46346 14.7408C8.81977 14.7408 10.1205 14.2009 11.0796 13.2398C12.0387 12.2787 12.5775 10.9752 12.5775 9.61606C12.5775 8.25689 12.0387 6.95338 11.0796 5.9923C10.1205 5.03121 8.81977 4.49128 7.46346 4.49128C6.10714 4.49128 4.80637 5.03121 3.84731 5.9923C2.88825 6.95338 2.34945 8.25689 2.34945 9.61606C2.34945 10.9752 2.88825 12.2787 3.84731 13.2398C4.80637 14.2009 6.10714 14.7408 7.46346 14.7408ZM13.6136 5.94057C14.2172 6.9552 14.5616 8.10346 14.6162 9.28346C14.6707 10.4635 14.4338 11.6387 13.9264 12.7049C13.419 13.7712 12.6568 14.6954 11.7074 15.3956C10.7581 16.0959 9.65093 16.5504 8.48421 16.719L8.48626 16.7908V17.8157H9.50906C9.78032 17.8157 10.0405 17.9237 10.2323 18.1159C10.4241 18.3081 10.5319 18.5688 10.5319 18.8407C10.5319 19.1125 10.4241 19.3732 10.2323 19.5654C10.0405 19.7576 9.78032 19.8656 9.50906 19.8656H8.48626V20.8906C8.48626 21.1624 8.3785 21.4231 8.18668 21.6153C7.99487 21.8076 7.73472 21.9155 7.46346 21.9155C7.19219 21.9155 6.93204 21.8076 6.74023 21.6153C6.54841 21.4231 6.44066 21.1624 6.44066 20.8906V19.8656H5.41785C5.14659 19.8656 4.88644 19.7576 4.69463 19.5654C4.50281 19.3732 4.39505 19.1125 4.39505 18.8407C4.39505 18.5688 4.50281 18.3081 4.69463 18.1159C4.88644 17.9237 5.14659 17.8157 5.41785 17.8157H6.44066V16.7908C6.44066 16.7662 6.44066 16.7426 6.4427 16.719C4.65403 16.4564 3.03066 15.5256 1.89832 14.1134C0.765984 12.7012 0.208473 10.9122 0.337657 9.10524C0.466842 7.29829 1.27316 5.60715 2.59482 4.37117C3.91649 3.13518 5.65569 2.44581 7.46346 2.44137C9.26218 2.43917 10.9954 3.11746 12.3166 4.34061L14.2088 2.44444H12.5877C12.3164 2.44444 12.0563 2.33646 11.8645 2.14424C11.6726 1.95202 11.5649 1.69132 11.5649 1.41949C11.5649 1.14765 11.6726 0.886951 11.8645 0.694734C12.0563 0.502517 12.3164 0.394531 12.5877 0.394531H16.6789C16.9502 0.394531 17.2103 0.502517 17.4021 0.694734C17.5939 0.886951 17.7017 1.14765 17.7017 1.41949V5.51931C17.7017 5.79115 17.5939 6.05185 17.4021 6.24407C17.2103 6.43628 16.9502 6.54427 16.6789 6.54427C16.4076 6.54427 16.1475 6.43628 15.9557 6.24407C15.7638 6.05185 15.6561 5.79115 15.6561 5.51931V3.89373L13.6146 5.94057H13.6136Z" fill="#31005C"/>
</svg>
