<svg width="27" height="28" viewBox="0 0 27 28" fill="none" xmlns="http://www.w3.org/2000/svg">
<path d="M19.1002 0.910156V2.80211H23.4384L17.3826 8.8577C16.2423 7.99738 14.8528 7.53199 13.4244 7.53199C11.9959 7.53199 10.6064 7.99738 9.4661 8.8577L8.14041 7.532L10.5864 5.0858L9.24853 3.74809L6.80251 6.1943L3.41033 2.80211H7.74849V0.910156H0.180664V8.47798H2.07262V4.13982L5.4648 7.532L3.0186 9.97774L4.3565 11.3159L6.80251 8.86971L8.12821 10.1953C7.43811 11.1127 6.99918 12.1942 6.85474 13.3331C6.71031 14.472 6.86536 15.6288 7.30459 16.6895C7.74382 17.7501 8.45204 18.6779 9.35936 19.3812C10.2667 20.0845 11.3417 20.5391 12.4784 20.7V22.6677H8.69447V24.5596H12.4784V27.3976H14.3703V24.5596H18.1543V22.6677H14.3703V20.7C15.507 20.5391 16.582 20.0845 17.4892 19.3812C18.3965 18.6778 19.1047 17.7501 19.5439 16.6894C19.9831 15.6288 20.1382 14.472 19.9937 13.3331C19.8493 12.1943 19.4104 11.1128 18.7203 10.1954L24.7761 4.13982V8.47798H26.6681V0.910156H19.1002ZM13.4244 18.8837C12.4889 18.8837 11.5744 18.6063 10.7966 18.0866C10.0187 17.5669 9.4125 16.8282 9.05451 15.9639C8.69652 15.0996 8.60285 14.1486 8.78535 13.2311C8.96786 12.3136 9.41833 11.4708 10.0798 10.8093C10.7413 10.1478 11.5841 9.69735 12.5016 9.51484C13.4191 9.33234 14.3701 9.42601 15.2344 9.784C16.0987 10.142 16.8374 10.7482 17.3571 11.5261C17.8769 12.3039 18.1543 13.2184 18.1543 14.1539C18.1528 15.4078 17.654 16.6101 16.7673 17.4968C15.8806 18.3835 14.6784 18.8823 13.4244 18.8837Z" fill="#31005C"/>
</svg>
