<svg width="38" height="34" viewBox="0 0 38 34" fill="none" xmlns="http://www.w3.org/2000/svg">
<path d="M32.3346 0.333984H15.668C14.3419 0.333984 13.0701 0.860769 12.1324 1.79845C11.1948 2.73613 10.668 4.0079 10.668 5.33398V17.0007C10.668 18.3267 11.1948 19.5985 12.1324 20.5362C13.0701 21.4739 14.3419 22.0007 15.668 22.0007H32.3346C33.6607 22.0007 34.9325 21.4739 35.8702 20.5362C36.8078 19.5985 37.3346 18.3267 37.3346 17.0007V5.33398C37.3346 4.0079 36.8078 2.73613 35.8702 1.79845C34.9325 0.860769 33.6607 0.333984 32.3346 0.333984ZM34.0013 17.0007C34.0013 17.4427 33.8257 17.8666 33.5131 18.1792C33.2006 18.4917 32.7767 18.6673 32.3346 18.6673H15.668C15.2259 18.6673 14.802 18.4917 14.4895 18.1792C14.1769 17.8666 14.0013 17.4427 14.0013 17.0007V5.33398C14.0013 4.89196 14.1769 4.46803 14.4895 4.15547C14.802 3.84291 15.2259 3.66732 15.668 3.66732H32.3346C32.7767 3.66732 33.2006 3.84291 33.5131 4.15547C33.8257 4.46803 34.0013 4.89196 34.0013 5.33398V17.0007ZM28.168 10.334C27.551 10.3361 26.9568 10.5678 26.5013 10.984C26.1429 10.6582 25.6976 10.4436 25.2195 10.3662C24.7415 10.2887 24.2512 10.3518 23.8083 10.5477C23.3654 10.7437 22.989 11.0641 22.7247 11.4699C22.4605 11.8758 22.3198 12.3497 22.3198 12.834C22.3198 13.3183 22.4605 13.7922 22.7247 14.198C22.989 14.6039 23.3654 14.9243 23.8083 15.1202C24.2512 15.3162 24.7415 15.3793 25.2195 15.3018C25.6976 15.2244 26.1429 15.0097 26.5013 14.684C26.8023 14.9575 27.1654 15.1535 27.5593 15.255C27.9532 15.3564 28.3658 15.3602 28.7615 15.266C29.1571 15.1719 29.5239 14.9826 29.8298 14.7147C30.1358 14.4467 30.3718 14.1082 30.5173 13.7284C30.6628 13.3486 30.7135 12.939 30.6649 12.5353C30.6163 12.1315 30.4699 11.7456 30.2384 11.4112C30.007 11.0768 29.6974 10.8039 29.3366 10.6161C28.9758 10.4284 28.5747 10.3316 28.168 10.334ZM25.668 25.334C25.2259 25.334 24.802 25.5096 24.4895 25.8221C24.1769 26.1347 24.0013 26.5586 24.0013 27.0007V28.6673C24.0013 29.1093 23.8257 29.5333 23.5131 29.8458C23.2006 30.1584 22.7767 30.334 22.3346 30.334H5.66797C5.22594 30.334 4.80202 30.1584 4.48946 29.8458C4.1769 29.5333 4.0013 29.1093 4.0013 28.6673V22.0007H5.66797C6.11 22.0007 6.53392 21.8251 6.84648 21.5125C7.15904 21.1999 7.33463 20.776 7.33463 20.334C7.33463 19.892 7.15904 19.468 6.84648 19.1555C6.53392 18.8429 6.11 18.6673 5.66797 18.6673H4.0013V17.0007C4.0013 16.5586 4.1769 16.1347 4.48946 15.8221C4.80202 15.5096 5.22594 15.334 5.66797 15.334C6.11 15.334 6.53392 15.1584 6.84648 14.8458C7.15904 14.5333 7.33463 14.1093 7.33463 13.6673C7.33463 13.2253 7.15904 12.8014 6.84648 12.4888C6.53392 12.1762 6.11 12.0007 5.66797 12.0007C4.34189 12.0007 3.07012 12.5274 2.13243 13.4651C1.19475 14.4028 0.667969 15.6746 0.667969 17.0007V28.6673C0.667969 29.9934 1.19475 31.2652 2.13243 32.2029C3.07012 33.1405 4.34189 33.6673 5.66797 33.6673H22.3346C23.6607 33.6673 24.9325 33.1405 25.8702 32.2029C26.8078 31.2652 27.3346 29.9934 27.3346 28.6673V27.0007C27.3346 26.5586 27.159 26.1347 26.8465 25.8221C26.5339 25.5096 26.11 25.334 25.668 25.334ZM9.0013 27.0007H10.668C11.11 27.0007 11.5339 26.8251 11.8465 26.5125C12.159 26.1999 12.3346 25.776 12.3346 25.334C12.3346 24.892 12.159 24.468 11.8465 24.1555C11.5339 23.8429 11.11 23.6673 10.668 23.6673H9.0013C8.55927 23.6673 8.13535 23.8429 7.82279 24.1555C7.51023 24.468 7.33463 24.892 7.33463 25.334C7.33463 25.776 7.51023 26.1999 7.82279 26.5125C8.13535 26.8251 8.55927 27.0007 9.0013 27.0007Z" fill="#710FC7"/>
</svg>
