<svg width="42" height="39" viewBox="0 0 42 39" fill="none" xmlns="http://www.w3.org/2000/svg">
<path d="M32.007 6.54215L31.0294 3.12364C30.4902 1.23833 28.5185 0.143606 26.6332 0.682775L4.41292 7.03744C1.58581 7.84595 -0.0568912 10.8046 0.751618 13.6317L6.61747 34.1427C7.69336 37.9048 11.1503 38.3935 13.2117 37.804L38.8505 30.4717C40.7358 29.9325 41.8305 27.9609 41.2914 26.0756L36.4032 8.98302C35.864 7.09771 33.8923 6.00298 32.007 6.54215ZM5.39056 10.456L27.6109 4.10128L28.5885 7.51979L6.3682 13.8745C5.42469 14.1443 4.43947 13.5958 4.17013 12.654C3.90079 11.7122 4.44705 10.7258 5.39056 10.456ZM37.8729 27.0532L12.2546 34.3796C11.459 34.585 10.4295 34.541 10.036 33.1651L5.54616 17.4656C6.1381 17.5052 6.74248 17.4655 7.34584 17.293L32.9847 9.96066L37.8729 27.0532Z" fill="#710FC7"/>
</svg>
