<svg width="24" height="14" viewBox="0 0 24 14" fill="none" xmlns="http://www.w3.org/2000/svg">
<path d="M23.9739 1.72667C23.9739 0.77 23.114 0 22.0456 0H1.92834C0.859935 0 0 0.77 0 1.72667V12.2967C0 13.23 0.859935 14 1.92834 14H22.0717C23.1401 14 24 13.23 24 12.2733V1.72667H23.9739ZM21.8893 1.86667V3.5H2.08469V1.86667H21.8893ZM2.08469 12.1333V6.3H21.8893V12.1333H2.08469ZM19.9349 9.1C19.9349 9.61333 19.4658 10.0333 18.8925 10.0333H13.9414C13.3681 10.0333 12.899 9.61333 12.899 9.1C12.899 8.58667 13.3681 8.16667 13.9414 8.16667H18.8925C19.4658 8.16667 19.9349 8.58667 19.9349 9.1Z" fill="#31005C"/>
</svg>
