<svg width="38" height="38" viewBox="0 0 38 38" fill="none" xmlns="http://www.w3.org/2000/svg">
<circle cx="19" cy="19" r="19" fill="#EAD1FF" fill-opacity="0.5"/>
<path d="M29.9761 13.7267C29.9761 12.77 29.1878 12 28.2085 12H9.76764C8.78827 12 8 12.77 8 13.7267V24.2967C8 25.23 8.78827 26 9.76764 26H28.2324C29.2117 26 30 25.23 30 24.2733V13.7267H29.9761ZM28.0651 13.8667V15.5H9.91097V13.8667H28.0651ZM9.91097 24.1333V18.3H28.0651V24.1333H9.91097ZM26.2736 21.1C26.2736 21.6133 25.8436 22.0333 25.3181 22.0333H20.7796C20.2541 22.0333 19.8241 21.6133 19.8241 21.1C19.8241 20.5867 20.2541 20.1667 20.7796 20.1667H25.3181C25.8436 20.1667 26.2736 20.5867 26.2736 21.1Z" fill="#31005C"/>
</svg>
