<svg width="38" height="38" viewBox="0 0 38 38" fill="none" xmlns="http://www.w3.org/2000/svg">
<circle cx="19" cy="19" r="19" fill="#EAD1FF" fill-opacity="0.5"/>
<path d="M23 19H25V23H23V19Z" fill="#31005C"/>
<path d="M27 14V12C27 10.897 26.103 10 25 10H12C10.346 10 9 11.346 9 13V25C9 27.201 10.794 28 12 28H27C28.103 28 29 27.103 29 26V16C29 14.897 28.103 14 27 14ZM12 12H25V14H12C11.448 14 11 13.551 11 13C11 12.449 11.448 12 12 12ZM27 26H12.012C11.55 25.988 11 25.805 11 25V15.815C11.314 15.928 11.647 16 12 16H27V26Z" fill="#31005C"/>
</svg>
