<svg width="38" height="45" viewBox="0 0 38 45" fill="none" xmlns="http://www.w3.org/2000/svg">
<path opacity="0.5" d="M31.6667 15H35.8889C36.4488 15 36.9858 15.2258 37.3817 15.6276C37.7776 16.0295 38 16.5745 38 17.1429V42.8571C38 43.4255 37.7776 43.9705 37.3817 44.3724C36.9858 44.7742 36.4488 45 35.8889 45H2.11111C1.55121 45 1.01424 44.7742 0.61833 44.3724C0.22242 43.9705 0 43.4255 0 42.8571V17.1429C0 16.5745 0.22242 16.0295 0.61833 15.6276C1.01424 15.2258 1.55121 15 2.11111 15H6.33333V12.8571C6.33333 9.44722 7.66785 6.17695 10.0433 3.76577C12.4188 1.35459 15.6406 0 19 0C22.3594 0 25.5812 1.35459 27.9567 3.76577C30.3321 6.17695 31.6667 9.44722 31.6667 12.8571V15ZM16.8889 31.5686V36.4286H21.1111V31.5686C21.916 31.0969 22.5451 30.3687 22.9008 29.4971C23.2565 28.6255 23.3189 27.6591 23.0784 26.7478C22.8378 25.8365 22.3077 25.0313 21.5703 24.4569C20.8329 23.8826 19.9295 23.5713 19 23.5713C18.0705 23.5713 17.1671 23.8826 16.4297 24.4569C15.6923 25.0313 15.1622 25.8365 14.9216 26.7478C14.6811 27.6591 14.7435 28.6255 15.0992 29.4971C15.4549 30.3687 16.084 31.0969 16.8889 31.5686ZM27.4444 15V12.8571C27.4444 10.5839 26.5548 8.40368 24.9711 6.79623C23.3875 5.18877 21.2396 4.28571 19 4.28571C16.7604 4.28571 14.6125 5.18877 13.0289 6.79623C11.4452 8.40368 10.5556 10.5839 10.5556 12.8571V15H27.4444Z" fill="white"/>
</svg>
