<svg xmlns="http://www.w3.org/2000/svg" xmlns:xlink="http://www.w3.org/1999/xlink" viewBox="0 0 2845.09 2811.97"><defs><style>.cls-1{fill:url(#linear-gradient);}.cls-2{fill:#bdd0fb;}.cls-10,.cls-3,.cls-41,.cls-7{fill:#fff;}.cls-3{opacity:0.51;}.cls-4{fill:url(#linear-gradient-2);}.cls-5{fill:url(#linear-gradient-3);}.cls-6{fill:#91b3fa;}.cls-7{opacity:0.65;}.cls-8{fill:#7d97f4;}.cls-9{fill:url(#linear-gradient-4);}.cls-11{fill:url(#linear-gradient-5);}.cls-12{fill:url(#linear-gradient-6);}.cls-13{fill:url(#linear-gradient-7);}.cls-14{fill:url(#linear-gradient-8);}.cls-15{fill:url(#linear-gradient-9);}.cls-16{fill:url(#linear-gradient-10);}.cls-17{fill:url(#linear-gradient-11);}.cls-18{fill:url(#linear-gradient-12);}.cls-19{fill:url(#linear-gradient-13);}.cls-20{fill:url(#linear-gradient-14);}.cls-21{fill:url(#linear-gradient-15);}.cls-22{fill:url(#linear-gradient-16);}.cls-23{fill:url(#linear-gradient-17);}.cls-24{fill:url(#linear-gradient-18);}.cls-25{fill:url(#linear-gradient-19);}.cls-26{fill:url(#linear-gradient-20);}.cls-27{fill:url(#linear-gradient-21);}.cls-28{fill:url(#linear-gradient-22);}.cls-29{fill:url(#linear-gradient-23);}.cls-30{fill:url(#linear-gradient-24);}.cls-31{fill:url(#linear-gradient-25);}.cls-32{fill:url(#linear-gradient-26);}.cls-33{fill:url(#linear-gradient-27);}.cls-34{fill:url(#linear-gradient-28);}.cls-35{fill:url(#linear-gradient-29);}.cls-36{fill:url(#linear-gradient-30);}.cls-37{fill:url(#linear-gradient-31);}.cls-38{fill:url(#linear-gradient-32);}.cls-39{fill:url(#linear-gradient-33);}.cls-40{fill:url(#linear-gradient-34);}.cls-41{opacity:0.7;}.cls-42{fill:url(#linear-gradient-35);}.cls-43{fill:url(#linear-gradient-36);}.cls-44{fill:url(#linear-gradient-37);}.cls-45{fill:url(#linear-gradient-38);}.cls-46{fill:url(#linear-gradient-39);}.cls-47{fill:url(#linear-gradient-40);}.cls-48{fill:url(#linear-gradient-41);}.cls-49{fill:url(#linear-gradient-42);}.cls-50{fill:url(#linear-gradient-43);}.cls-51{fill:url(#linear-gradient-44);}.cls-52{fill:url(#linear-gradient-45);}.cls-53{fill:url(#linear-gradient-46);}.cls-54{fill:url(#linear-gradient-47);}.cls-55{fill:url(#linear-gradient-48);}.cls-56{fill:url(#linear-gradient-49);}.cls-57{fill:url(#linear-gradient-50);}.cls-58{fill:url(#linear-gradient-51);}.cls-59{fill:url(#linear-gradient-52);}.cls-60{fill:url(#linear-gradient-53);}.cls-61{fill:url(#linear-gradient-54);}.cls-62{fill:url(#linear-gradient-55);}.cls-63{fill:url(#linear-gradient-56);}.cls-64{fill:url(#linear-gradient-57);}.cls-65{fill:url(#linear-gradient-58);}.cls-66{fill:url(#linear-gradient-59);}.cls-67{fill:url(#linear-gradient-60);}.cls-68{fill:url(#linear-gradient-61);}.cls-69{fill:url(#linear-gradient-62);}.cls-70{fill:url(#linear-gradient-63);}.cls-71{fill:url(#linear-gradient-64);}</style><linearGradient id="linear-gradient" x1="3178.8" y1="3641.89" x2="672.35" y2="529.03" gradientUnits="userSpaceOnUse"><stop offset="0" stop-color="#dae3fe"/><stop offset="1" stop-color="#e9effd"/></linearGradient><linearGradient id="linear-gradient-2" x1="1633.09" y1="1983.79" x2="2123.19" y2="935.52" gradientUnits="userSpaceOnUse"><stop offset="0" stop-color="#09005d"/><stop offset="1" stop-color="#1a0f91"/></linearGradient><linearGradient id="linear-gradient-3" x1="1420.56" y1="91.09" x2="1420.56" y2="1200.62" xlink:href="#linear-gradient-2"/><linearGradient id="linear-gradient-4" x1="1729.64" y1="3803.69" x2="1559.47" y2="2973.25" xlink:href="#linear-gradient-2"/><linearGradient id="linear-gradient-5" x1="456.62" y1="-483.74" x2="-259.13" y2="1299.95" gradientTransform="translate(2009.87 305.4) rotate(-16.79)" gradientUnits="userSpaceOnUse"><stop offset="0" stop-color="#4042e2"/><stop offset="1" stop-color="#4f52ff"/></linearGradient><linearGradient id="linear-gradient-6" x1="51.84" y1="-646.16" x2="-663.89" y2="1137.48" xlink:href="#linear-gradient-5"/><linearGradient id="linear-gradient-7" x1="-62.38" y1="-692.01" x2="-778.12" y2="1091.65" xlink:href="#linear-gradient-5"/><linearGradient id="linear-gradient-8" x1="-10.04" y1="-670.99" x2="-725.77" y2="1112.65" xlink:href="#linear-gradient-5"/><linearGradient id="linear-gradient-9" x1="341.5" y1="-529.92" x2="-374.22" y2="1253.7" xlink:href="#linear-gradient-5"/><linearGradient id="linear-gradient-10" x1="-48.73" y1="-686.53" x2="-764.47" y2="1097.13" xlink:href="#linear-gradient-5"/><linearGradient id="linear-gradient-11" x1="-49.57" y1="-686.87" x2="-765.31" y2="1096.79" xlink:href="#linear-gradient-5"/><linearGradient id="linear-gradient-12" x1="133.86" y1="-613.25" x2="-581.87" y2="1170.39" xlink:href="#linear-gradient-5"/><linearGradient id="linear-gradient-13" x1="232.08" y1="-573.83" x2="-483.64" y2="1209.8" xlink:href="#linear-gradient-5"/><linearGradient id="linear-gradient-14" x1="-11.86" y1="-671.74" x2="-727.6" y2="1111.93" xlink:href="#linear-gradient-5"/><linearGradient id="linear-gradient-15" x1="560.91" y1="-441.88" x2="-154.84" y2="1341.8" xlink:href="#linear-gradient-5"/><linearGradient id="linear-gradient-16" x1="429.09" y1="-494.82" x2="-286.67" y2="1288.88" xlink:href="#linear-gradient-5"/><linearGradient id="linear-gradient-17" x1="933.83" y1="-269.94" x2="218.09" y2="1513.72" xlink:href="#linear-gradient-5"/><linearGradient id="linear-gradient-18" x1="1007.87" y1="-240.23" x2="292.13" y2="1543.43" xlink:href="#linear-gradient-5"/><linearGradient id="linear-gradient-19" x1="1011.55" y1="-238.74" x2="295.82" y2="1544.91" xlink:href="#linear-gradient-5"/><linearGradient id="linear-gradient-20" x1="944.71" y1="-265.56" x2="228.98" y2="1518.08" xlink:href="#linear-gradient-5"/><linearGradient id="linear-gradient-21" x1="792.14" y1="-326.77" x2="76.41" y2="1456.86" xlink:href="#linear-gradient-5"/><linearGradient id="linear-gradient-22" x1="877.68" y1="-292.46" x2="161.95" y2="1491.18" xlink:href="#linear-gradient-5"/><linearGradient id="linear-gradient-23" x1="990.09" y1="-247.35" x2="274.36" y2="1536.3" xlink:href="#linear-gradient-5"/><linearGradient id="linear-gradient-24" x1="582.55" y1="-410.86" x2="-133.17" y2="1372.75" xlink:href="#linear-gradient-5"/><linearGradient id="linear-gradient-25" x1="692.1" y1="-366.91" x2="-23.62" y2="1416.71" xlink:href="#linear-gradient-5"/><linearGradient id="linear-gradient-26" x1="979.34" y1="-251.68" x2="263.6" y2="1531.99" xlink:href="#linear-gradient-5"/><linearGradient id="linear-gradient-27" x1="326.94" y1="-535.79" x2="-388.8" y2="1247.89" xlink:href="#linear-gradient-5"/><linearGradient id="linear-gradient-28" x1="1241.01" y1="3262.88" x2="1353.33" y2="2306.46" gradientTransform="translate(851 264.7) rotate(11.18)" xlink:href="#linear-gradient-2"/><linearGradient id="linear-gradient-29" x1="2204.72" y1="717.58" x2="2383.05" y2="717.58" gradientTransform="matrix(1, 0, 0, 1, 0, 0)" xlink:href="#linear-gradient-5"/><linearGradient id="linear-gradient-30" x1="2276.61" y1="680.88" x2="2529.23" y2="680.88" gradientTransform="matrix(1, 0, 0, 1, 0, 0)" xlink:href="#linear-gradient-5"/><linearGradient id="linear-gradient-31" x1="898.28" y1="3222.64" x2="1010.6" y2="2266.21" gradientTransform="translate(851 264.7) rotate(11.18)" xlink:href="#linear-gradient-2"/><linearGradient id="linear-gradient-32" x1="2105.38" y1="582.56" x2="2302.01" y2="582.56" gradientTransform="matrix(1, 0, 0, 1, 0, 0)" xlink:href="#linear-gradient-5"/><linearGradient id="linear-gradient-33" x1="1962.91" y1="563.38" x2="2345.48" y2="563.38" gradientTransform="matrix(1, 0, 0, 1, 0, 0)" xlink:href="#linear-gradient-5"/><linearGradient id="linear-gradient-34" x1="621.62" y1="-288.75" x2="365.92" y2="706.11" gradientTransform="translate(410.97 -198.8) rotate(45)" gradientUnits="userSpaceOnUse"><stop offset="0" stop-color="#fe7062"/><stop offset="1" stop-color="#ff928e"/></linearGradient><linearGradient id="linear-gradient-35" x1="1349.12" y1="-762.58" x2="950.19" y2="-280.28" gradientUnits="userSpaceOnUse"><stop offset="0" stop-color="#e1473d"/><stop offset="1" stop-color="#e9605a"/></linearGradient><linearGradient id="linear-gradient-36" x1="1439.61" y1="-687.72" x2="1040.68" y2="-205.43" xlink:href="#linear-gradient-35"/><linearGradient id="linear-gradient-37" x1="1289.49" y1="291.63" x2="1536.93" y2="1691.86" xlink:href="#linear-gradient-2"/><linearGradient id="linear-gradient-38" x1="1941.55" y1="476.1" x2="661.13" y2="3441.62" gradientTransform="matrix(1, 0, 0, 1, 0, 0)" xlink:href="#linear-gradient-34"/><linearGradient id="linear-gradient-39" x1="1145.47" y1="1373.81" x2="1799.37" y2="-216.2" xlink:href="#linear-gradient-2"/><linearGradient id="linear-gradient-40" x1="1314.01" y1="1443.12" x2="1967.92" y2="-146.89" xlink:href="#linear-gradient-2"/><linearGradient id="linear-gradient-41" x1="1520.16" y1="1527.9" x2="2174.06" y2="-62.11" xlink:href="#linear-gradient-2"/><linearGradient id="linear-gradient-42" x1="1175.11" y1="1386" x2="1829.01" y2="-204.01" xlink:href="#linear-gradient-2"/><linearGradient id="linear-gradient-43" x1="1291.54" y1="1433.88" x2="1945.44" y2="-156.13" xlink:href="#linear-gradient-2"/><linearGradient id="linear-gradient-44" x1="1409.58" y1="1482.42" x2="2063.48" y2="-107.59" xlink:href="#linear-gradient-2"/><linearGradient id="linear-gradient-45" x1="1529.28" y1="1531.65" x2="2183.17" y2="-58.33" xlink:href="#linear-gradient-2"/><linearGradient id="linear-gradient-46" x1="1661.79" y1="1586.15" x2="2315.69" y2="-3.87" xlink:href="#linear-gradient-2"/><linearGradient id="linear-gradient-47" x1="3234.52" y1="2633.85" x2="2534.94" y2="3394.8" gradientTransform="translate(-2400.04)" xlink:href="#linear-gradient-2"/><linearGradient id="linear-gradient-48" x1="3007.45" y1="2690.37" x2="3069.59" y2="2690.37" gradientTransform="translate(-2400.04)" gradientUnits="userSpaceOnUse"><stop offset="0" stop-color="#febbba"/><stop offset="1" stop-color="#ff928e"/></linearGradient><linearGradient id="linear-gradient-49" x1="-672.42" y1="6475.8" x2="-2.59" y2="5690.73" gradientTransform="translate(-2400.04)" gradientUnits="userSpaceOnUse"><stop offset="0" stop-color="#020039"/><stop offset="1" stop-color="#090056"/></linearGradient><linearGradient id="linear-gradient-50" x1="3077.58" y1="2489.57" x2="2378" y2="3250.52" gradientTransform="translate(-2400.04)" xlink:href="#linear-gradient-2"/><linearGradient id="linear-gradient-51" x1="2783.5" y1="2687.18" x2="2837.15" y2="2687.18" xlink:href="#linear-gradient-48"/><linearGradient id="linear-gradient-52" x1="-766.33" y1="6395.67" x2="-96.5" y2="5610.61" xlink:href="#linear-gradient-49"/><linearGradient id="linear-gradient-53" x1="830.09" y1="1037.31" x2="588.44" y2="1718" gradientUnits="userSpaceOnUse"><stop offset="0" stop-color="#4f52ff"/><stop offset="1" stop-color="#4042e2"/></linearGradient><linearGradient id="linear-gradient-54" x1="-9975.3" y1="2676.03" x2="-10672.21" y2="3567.67" gradientTransform="translate(1189.61 -9480.51) rotate(-71.74)" xlink:href="#linear-gradient-48"/><linearGradient id="linear-gradient-55" x1="-9880.43" y1="2750.18" x2="-10577.34" y2="3641.82" gradientTransform="translate(1189.61 -9480.51) rotate(-71.74)" xlink:href="#linear-gradient-48"/><linearGradient id="linear-gradient-56" x1="623.32" y1="963.9" x2="381.68" y2="1644.6" xlink:href="#linear-gradient-53"/><linearGradient id="linear-gradient-57" x1="341.6" y1="863.89" x2="99.95" y2="1544.59" xlink:href="#linear-gradient-53"/><linearGradient id="linear-gradient-58" x1="-5641.8" y1="1767.81" x2="-5761.66" y2="2285.8" gradientTransform="translate(6484.36 714.83) rotate(15.02)" xlink:href="#linear-gradient-48"/><linearGradient id="linear-gradient-59" x1="-1721.15" y1="1514.41" x2="-2159.15" y2="1727.27" gradientTransform="matrix(-0.95, 0.33, 0.33, 0.95, -1883.91, 25.5)" xlink:href="#linear-gradient-48"/><linearGradient id="linear-gradient-60" x1="-5664.51" y1="-4616.17" x2="-5423.15" y2="-4616.17" gradientTransform="translate(7729.96 1949.63) rotate(-31.72)" xlink:href="#linear-gradient-2"/><linearGradient id="linear-gradient-61" x1="-1697.51" y1="1563.05" x2="-2135.51" y2="1775.91" gradientTransform="matrix(-0.95, 0.33, 0.33, 0.95, -1883.91, 25.5)" xlink:href="#linear-gradient-48"/><linearGradient id="linear-gradient-62" x1="-1948.06" y1="1861.76" x2="-1560.71" y2="2130.34" gradientTransform="matrix(-1, -0.01, -0.01, 1, -1412.85, -1039.81)" xlink:href="#linear-gradient-48"/><linearGradient id="linear-gradient-63" x1="-1940.17" y1="1853.98" x2="-1537.23" y2="2133.38" gradientTransform="matrix(-1, -0.01, -0.01, 1, -1412.85, -1039.81)" xlink:href="#linear-gradient-48"/><linearGradient id="linear-gradient-64" x1="246.72" y1="830.21" x2="5.07" y2="1510.9" xlink:href="#linear-gradient-53"/></defs><g id="Layer_2" data-name="Layer 2"><g id="Illustration"><path class="cls-1" d="M2497,2408.92c-58,60.31-112.87,99.21-156.23,129.94-509.64,361.25-1112.69,255.95-1240.85,230.23-189.26-38-555.09-111.37-819.58-418.64C-119.81,1885.58-57.5,1153.19,252.88,669.73c56.78-88.43,356.67-579.26,966.21-658C1588-35.87,2018,60.2,2329.38,317.93,2983,858.93,2936.49,1951.83,2497,2408.92Z"/><path class="cls-2" d="M1164.35,2582.54c-17.83-321.26-137-614.32-559.94-822.81C604.41,1759.73,538.76,2547.8,1164.35,2582.54Z"/><path class="cls-3" d="M1048.2,2443.07a3.43,3.43,0,0,1-2.38-1c-239.24-233.5-388.71-576.06-390.2-579.49a3.4,3.4,0,0,1,6.25-2.7c1.48,3.42,150.45,344.78,388.71,577.31a3.4,3.4,0,0,1-2.38,5.84Z"/><path class="cls-2" d="M1901.74,2562.48c288.88,26.66,566-40.77,808-390.4C2709.76,2172.08,2015.59,2009.13,1901.74,2562.48Z"/><path class="cls-3" d="M2065.65,2468.1a3.35,3.35,0,0,1-2.2-.8,3.4,3.4,0,0,1-.4-4.8c86.36-101.8,227.76-166.48,331.17-202.82,111.9-39.31,204.69-54.85,205.61-55a3.41,3.41,0,0,1,1.11,6.72c-3.67.6-369.2,62.78-532.7,255.5A3.36,3.36,0,0,1,2065.65,2468.1Z"/><polygon class="cls-4" points="1197.85 1953.65 1137.11 2498.41 1841.81 2498.41 1750.03 1953.65 1197.85 1953.65"/><path class="cls-5" d="M14.07,611.49V1859.12a189.25,189.25,0,0,0,184.38,189.21c455.7,11.75,2049.51,40.25,2483.3,33.85a139.25,139.25,0,0,0,137.1-135.3c8.37-289.84,22-986.81-28.32-1310.39a143.31,143.31,0,0,0-137-121.3c-381.81-12.22-2071.35-51-2504.94-41.26A137.57,137.57,0,0,0,14.07,611.49Z"/><path class="cls-6" d="M92.35,605.42V1790.75a109.66,109.66,0,0,0,108,109.65l2419,29.88A106.72,106.72,0,0,0,2727.66,1824l4-1174.75a78,78,0,0,0-76.15-78.31L179,520.87A84.57,84.57,0,0,0,92.35,605.42Z"/><path class="cls-7" d="M2745.87,1978.91h-.06L92.3,1933.7a3.41,3.41,0,0,1-3.35-3.46,3.52,3.52,0,0,1,3.46-3.35l2653.51,45.22a3.4,3.4,0,0,1-.05,6.8Z"/><path class="cls-7" d="M1445.29,2034.13a31,31,0,1,1,31-31A31.05,31.05,0,0,1,1445.29,2034.13Zm0-55.22a24.21,24.21,0,1,0,24.2,24.21A24.24,24.24,0,0,0,1445.29,1978.91Z"/><path class="cls-8" d="M1859.24,2577.6c309.87-153.83,548.93-395.81,575.59-902.15C2434.83,1675.45,1628.31,1944.72,1859.24,2577.6Z"/><path class="cls-3" d="M1909.36,2463.3a3.4,3.4,0,0,1-3.22-4.53c74-210.87,183.9-373.45,263.1-472.71,85.83-107.58,155.15-166.11,155.84-166.69a3.4,3.4,0,1,1,4.37,5.22c-2.74,2.3-276,234.72-416.88,636.44A3.42,3.42,0,0,1,1909.36,2463.3Z"/><path class="cls-9" d="M1993.61,2609.86H962.22c-28,0-49.06-19.94-43.64-41.37l13.23-52.34c4-15.74,21.3-27.3,41.87-27.94l994.29-31c21.49-.67,40.51,10.73,45.19,27.09l23.86,83.37C2043.22,2589.3,2022.08,2609.86,1993.61,2609.86Z"/><path class="cls-10" d="M1517.44,2502.43a3.4,3.4,0,0,1,0-6.8l42.6-.63h0a3.41,3.41,0,0,1,0,6.81l-42.6.62Z"/><path class="cls-10" d="M956.76,2581.05a3.44,3.44,0,0,1-3.36-3.94l6.08-38.07a42.5,42.5,0,0,1,41.42-35.86l451.91-6.61h0a3.41,3.41,0,0,1,.05,6.81L1001,2510a35.72,35.72,0,0,0-34.8,30.13l-6.08,38.07A3.41,3.41,0,0,1,956.76,2581.05Z"/><path class="cls-11" d="M2249.34,100.27c15.42.73,31,2.14,46.25,4.19A14.34,14.34,0,0,0,2299.41,76c-16.08-2.16-32.47-3.64-48.71-4.41a14.34,14.34,0,1,0-1.36,28.64Z"/><path class="cls-12" d="M1847.68,230.32a14.35,14.35,0,0,0-20.28-.43c-11.72,11.24-23.09,23.11-33.81,35.3a14.34,14.34,0,0,0,21.53,18.94c10.18-11.58,21-22.86,32.13-33.54A14.35,14.35,0,0,0,1847.68,230.32Z"/><path class="cls-13" d="M1671.86,554.33a14.36,14.36,0,0,0-16.14,12.28c-2.19,16.09-3.7,32.47-4.5,48.68a14.35,14.35,0,0,0,13.62,15,14.12,14.12,0,0,0,4.84-.6,14.32,14.32,0,0,0,10.18-13c.76-15.4,2.2-31,4.28-46.23A14.35,14.35,0,0,0,1671.86,554.33Z"/><path class="cls-14" d="M1765.26,324.2a14.32,14.32,0,0,0-19.86,4.08c-9,13.57-17.42,27.67-25.17,41.89a14.34,14.34,0,1,0,25.18,13.71c7.37-13.52,15.41-26.92,23.92-39.82A14.33,14.33,0,0,0,1765.26,324.2Z"/><path class="cls-15" d="M2127.9,108.21c15.2-2.72,30.69-4.82,46-6.24a14,14,0,0,0,2.83-.56,14.34,14.34,0,0,0-5.48-28c-16.15,1.5-32.45,3.71-48.44,6.57a14.34,14.34,0,1,0,5.05,28.23Z"/><path class="cls-16" d="M1705.65,434a14.35,14.35,0,0,0-18.48,8.36c-5.72,15.19-10.86,30.82-15.27,46.45a14.35,14.35,0,0,0,9.91,17.69,14.36,14.36,0,0,0,17.7-9.9c4.18-14.86,9.06-29.7,14.5-44.13A14.34,14.34,0,0,0,1705.65,434Z"/><path class="cls-17" d="M1665.85,679.11a14.34,14.34,0,0,0-13,15.57c1.46,16.12,3.64,32.42,6.47,48.43A14.34,14.34,0,0,0,1676,754.73a15.4,15.4,0,0,0,1.66-.39,14.34,14.34,0,0,0,10-16.22c-2.7-15.22-4.77-30.7-6.15-46A14.34,14.34,0,0,0,1665.85,679.11Z"/><path class="cls-18" d="M1900.9,204.46a14.65,14.65,0,0,0,4.25-2.1c12.49-9,25.54-17.61,38.76-25.52a14.33,14.33,0,1,0-14.72-24.6c-13.92,8.33-27.66,17.37-40.82,26.86a14.34,14.34,0,0,0,12.53,25.36Z"/><path class="cls-19" d="M2009.72,143.28a13.23,13.23,0,0,0,1.45-.52c14.2-6,28.83-11.44,43.51-16.21a14.33,14.33,0,0,0-8.56-27.36l-.29.09c-15.46,5-30.87,10.76-45.8,17.06a14.34,14.34,0,0,0,9.69,26.94Z"/><path class="cls-20" d="M1705.7,811.15a14.51,14.51,0,0,0-17.84-9.51l-.26.08C1680,804,1676,812.42,1678.41,820c5,15.49,10.84,31.35,17.11,46.28a14.24,14.24,0,0,0,17.31,8.07c.47-.15.88-.55,1.35-.75a14.28,14.28,0,0,0,7.68-18.72C1715.91,840.65,1710.45,825.87,1705.7,811.15Z"/><path class="cls-21" d="M2409.3,117.07A14.34,14.34,0,0,0,2400.1,99c-7.39-2.41-15-4.7-22.49-6.82a14.34,14.34,0,1,0-7.76,27.6c7.16,2,14.35,4.2,21.38,6.49a14.36,14.36,0,0,0,18.07-9.2Z"/><path class="cls-22" d="M2170.11,1185.26c-15.1-1.48-30.33-3.62-45.24-6.37a14.33,14.33,0,1,0-5.2,28.19c15.71,2.9,31.74,5.16,47.64,6.72a14.34,14.34,0,0,0,2.8-28.54Z"/><path class="cls-23" d="M2761.65,430.89a14.34,14.34,0,0,0,17,7.47,14.77,14.77,0,0,0,2.14-.83,14.35,14.35,0,0,0,6.64-19.16c-3.4-7-7-14.05-10.71-20.95A14.34,14.34,0,0,0,2751.48,411C2755,417.54,2758.42,424.24,2761.65,430.89Z"/><path class="cls-24" d="M2826.8,601.32A14.34,14.34,0,0,0,2813.92,617c1.47,15.12,2.31,30.46,2.5,45.61a14.34,14.34,0,0,0,14.52,14.15,14,14,0,0,0,4-.6,14.35,14.35,0,0,0,10.19-13.91c-.2-16-1.08-32.11-2.63-48A14.34,14.34,0,0,0,2826.8,601.32Z"/><path class="cls-25" d="M2828.26,724.28a14.33,14.33,0,0,0-16,12.44c-1.89,15-4.46,30.2-7.62,45.06a14.34,14.34,0,0,0,28,6c3.33-15.64,6-31.6,8-47.45A14.34,14.34,0,0,0,2828.26,724.28Z"/><path class="cls-26" d="M2731.47,960.67c-8.14,12.79-16.92,25.42-26.1,37.51a14.33,14.33,0,1,0,22.83,17.34c9.67-12.72,18.91-26,27.47-39.47a14.34,14.34,0,0,0-24.2-15.38Z"/><path class="cls-27" d="M2563.14,1128.8c-12.84,8.12-26.17,15.77-39.61,22.75a14.33,14.33,0,0,0,10.73,26.45,14.14,14.14,0,0,0,2.48-1c14.16-7.36,28.2-15.41,41.72-24a14.34,14.34,0,0,0-15.32-24.24Z"/><path class="cls-28" d="M2656.57,1054.07c-10.75,10.75-22.06,21.14-33.63,30.9a14.34,14.34,0,1,0,18.49,21.92c12.18-10.28,24.1-21.23,35.41-32.54a14.34,14.34,0,1,0-20.27-20.28Z"/><path class="cls-29" d="M2802.6,844.54a14.33,14.33,0,0,0-18.35,8.61c-5.15,14.26-11,28.49-17.31,42.31A14.33,14.33,0,1,0,2793,907.41c6.67-14.53,12.8-29.51,18.22-44.51A14.34,14.34,0,0,0,2802.6,844.54Z"/><path class="cls-30" d="M2338.93,1208.81c-15.09,1.87-30.41,3.13-45.56,3.74a14.33,14.33,0,1,0,1.14,28.64c15.94-.63,32.08-2,47.95-3.92a15.11,15.11,0,0,0,2.39-.51,14.34,14.34,0,0,0-5.92-28Z"/><path class="cls-31" d="M2455.49,1181.16c-14.2,5.06-28.84,9.58-43.67,13.52a14.34,14.34,0,0,0,7.35,27.72q9.64-2.57,19.12-5.42c9-2.71,18-5.68,26.82-8.8a14.34,14.34,0,0,0-9.62-27Z"/><path class="cls-32" d="M2816.67,490.85a14.18,14.18,0,0,0-18.07-9.19,14.33,14.33,0,0,0-9.19,18.07q1.86,5.73,3.62,11.53c3.22,10.68,6.15,21.61,8.72,32.49A14.34,14.34,0,0,0,2819,554.4c.29-.07.58-.14.86-.23a14.34,14.34,0,0,0,9.8-17c-2.71-11.44-5.79-22.93-9.18-34.17Q2818.64,496.88,2816.67,490.85Z"/><path class="cls-33" d="M2052.63,1160.34c-7-2.32-14.08-4.83-21.05-7.46a14.34,14.34,0,1,0-10.12,26.83c7.33,2.77,14.79,5.41,22.16,7.85a14.34,14.34,0,0,0,9-27.22Z"/><path class="cls-34" d="M2693,524.73l-80.7-11.37a355.11,355.11,0,0,0-60.63-92.67l-104.17,20L2367.9,527l70.28,152.17-177.87-5.94-104,77.41,14.11,136.61-109.33-21.2L2023.9,903l-21,78.54a6.69,6.69,0,0,0,2.72,7.28l81.1,54.71a6.72,6.72,0,0,0,7.78-.21l65.16-49a355.31,355.31,0,0,0,112.78,23l40.78,70.56a6.71,6.71,0,0,0,7.08,3.23l96-18.67a6.7,6.7,0,0,0,5.36-5.64L2433.07,986a355.23,355.23,0,0,0,96-63.56l78.79,21.07a6.69,6.69,0,0,0,7.28-2.73l54.7-81.1a6.7,6.7,0,0,0-.2-7.78l-49-65.15a355.09,355.09,0,0,0,23-112.79l70.57-40.78a6.68,6.68,0,0,0,3.22-7.08l-18.66-96A6.7,6.7,0,0,0,2693,524.73Z"/><path class="cls-35" d="M2318.42,728.3a75.44,75.44,0,0,1-95.3-27.31l-18.4,13.73a98.21,98.21,0,0,0,178.33-37.11l-23.28-.83A75.19,75.19,0,0,1,2318.42,728.3Z"/><path class="cls-36" d="M2518.75,588a239.73,239.73,0,0,0-90.62-126.24l-7.84,8.5a228.39,228.39,0,0,1,87.48,121.07,234.92,234.92,0,0,1,5.69,23,229,229,0,0,1-11.74,128.06c-27.92,70.82-90.28,126.42-170.4,142a231.64,231.64,0,0,1-48.86,4.23,5.74,5.74,0,0,0-5.85,5.61,5.8,5.8,0,0,0,.24,1.78,5.73,5.73,0,0,0,5.38,4.07c1,0,1.94-.5,2.91-.49.49,0,1-.53,1.49-.53h.53c12.87,0,25.81-.51,38.59-2.57,2.6-.42,5.19-.61,7.76-1.11,8.19-1.6,16.24-3.46,24.12-5.83a241.69,241.69,0,0,0,167.09-277.42A247.62,247.62,0,0,0,2518.75,588Z"/><path class="cls-37" d="M2087.13,825.19,2073.68,695l104-77.41,173.3,5.79a2.82,2.82,0,0,0,2.65-4l-68.36-148,79.62-86.32,104.17-20c-1-1.09-1.94-2.22-2.94-3.3L2487.17,283a6.71,6.71,0,0,0-2.73-7.28L2403.34,221a6.7,6.7,0,0,0-7.78.21l-65.16,49.05a355.31,355.31,0,0,0-112.78-23l-40.79-70.56a6.7,6.7,0,0,0-7.08-3.23l-96,18.67a6.7,6.7,0,0,0-5.36,5.64L2057,278.48A355.23,355.23,0,0,0,1961,342L1882.24,321a6.69,6.69,0,0,0-7.28,2.73l-54.71,81.1a6.7,6.7,0,0,0,.21,7.77l49,65.16a355.08,355.08,0,0,0-23,112.78L1776,631.3a6.7,6.7,0,0,0-3.23,7.08l18.67,96a6.72,6.72,0,0,0,5.65,5.36l80.7,11.37a355.46,355.46,0,0,0,63.56,96l-.06.25,37.22-36.91,103,20A4.81,4.81,0,0,0,2087.13,825.19Z"/><path class="cls-38" d="M2140.47,645.35a74.14,74.14,0,0,1-5-8.86,75.39,75.39,0,1,1,141.65-15.34l23.27.82a98.48,98.48,0,1,0-178.33,37.11Z"/><path class="cls-39" d="M2339.92,402.17a240.19,240.19,0,0,0-181.34-36.9c-130.83,25.44-216.65,152.61-191.21,283.49q2.37,12.09,5.91,23.84a240.89,240.89,0,0,0,51.43,91.49,5.73,5.73,0,0,0,9.75-5.48,5.63,5.63,0,0,0-1.22-2.18,230.37,230.37,0,0,1-54.6-109.87c-24.24-124.65,57.42-245.77,182.13-270a228.77,228.77,0,0,1,172.74,35.15c1.4.94,2.75,1.94,4.13,2.91l7.84-8.5C2343.64,404.77,2341.81,403.44,2339.92,402.17Z"/><circle class="cls-10" cx="445.45" cy="396.68" r="282.01" transform="translate(-150.03 431.17) rotate(-45)"/><circle class="cls-40" cx="445.45" cy="396.68" r="272.63" transform="translate(-150.03 431.17) rotate(-45)"/><path class="cls-41" d="M670.26,286.31a2.88,2.88,0,0,0,2.57-4.18c-43.59-86.35-130.71-140-227.38-140a256.3,256.3,0,0,0-45.92,4.14,2.88,2.88,0,1,0,1,5.66,251.05,251.05,0,0,1,44.88-4A247.75,247.75,0,0,1,667.69,284.72,2.88,2.88,0,0,0,670.26,286.31Z"/><circle class="cls-10" cx="439.51" cy="402.62" r="230.75" transform="translate(-155.97 428.71) rotate(-45)"/><path class="cls-42" d="M453.8,447.49l-26.12-.62c-7.28-.18-13.3-6.4-13.68-13.73l-9.56-184a11.94,11.94,0,0,1,3.77-9.49c2.6-2.56,6.2-3.39,10-3.12l45,3.13a13.79,13.79,0,0,1,9.74,4.36,14,14,0,0,1,3.65,10l-9.3,180.63A13.3,13.3,0,0,1,453.8,447.49Z"/><path class="cls-43" d="M413.5,492.43q9.78-9.35,27.49-9.05,18.24.28,27.69,9.6t9.43,27.14q0,17.22-9.64,26.67T441,556.27q-17.49,0-27.39-9.81t-9.92-26.93Q403.68,501.8,413.5,492.43Z"/><path class="cls-44" d="M1474.9,273.83,746.91,1497c-16,26.86,4.91,59.72,38.14,60l1443.08,11.87c33.36.28,54.87-32.45,39.17-59.57L1552.2,274.24C1535.76,245.85,1491.69,245.62,1474.9,273.83Z"/><path class="cls-45" d="M1478.58,346.91,817.42,1457.8c-14.51,24.38,4.46,54.22,34.64,54.47l1310.6,10.79c30.29.25,49.83-29.47,35.57-54.11L1548.78,347.28C1533.85,321.49,1493.83,321.28,1478.58,346.91Z"/><path class="cls-46" d="M1364.93,1108.12l-32.3.42v57.68l-55.74.93v-57.89l-116.43,1.52V1069.4L1280,887.86l52.59.06v174.94l32.3-.33Zm-88-44.7V1016q0-11.85.93-34.39t1.48-26.18h-1.48a218.36,218.36,0,0,1-16.5,30.65l-49.9,77.95Z"/><path class="cls-47" d="M1578,1025.15q0,71.77-22.4,106.58t-69.38,35.7q-45.71.77-69.1-34.81t-23.41-106q0-73.38,22.77-108.19t69.74-34.65q45.52.06,68.67,36.12T1578,1025.15Zm-128.47,1q0,50.82,8.42,72.73t28.27,21.6q19.46-.27,28.08-22.59t8.62-72.32q0-50.58-8.71-72.65t-28-22.06q-19.68,0-28.18,22.24T1449.49,1026.16Z"/><path class="cls-48" d="M1799.47,1102.47l-30.52.4v56.07l-52.68.88v-56.27l-110,1.43v-40.21l113-176.44,49.7.06v170.07l30.52-.31Zm-83.2-43.48v-46.06q0-11.5.88-33.43t1.4-25.44h-1.4a212.85,212.85,0,0,1-15.59,29.79l-47.14,75.76Z"/><path class="cls-49" d="M1239.17,1410.2l-86,2.76V1259.34l86-1.92V1284l-54.22,1.31v33.66l50.46-1.32v26.55l-50.46,1.4v39.54l54.22-1.65Z"/><path class="cls-50" d="M1306.55,1349.67V1408l-31.29,1V1256.61l43-1q29.92-.68,44.22,10.26t14.28,33.81a42.11,42.11,0,0,1-7.09,24q-7.1,10.6-20.1,16.88,33,50.18,42.94,64.73l-34.33,1.1-35-57.19Zm0-26.22,10.06-.27q14.78-.39,21.79-5.67t7-16.17q0-10.8-7.17-15.19t-22.24-4l-9.46.23Z"/><path class="cls-51" d="M1446.59,1345.7v57.85l-30.72,1V1253.47l42.19-1q29.39-.66,43.43,10.18t14,33.51a42,42,0,0,1-7,23.75q-7,10.51-19.75,16.73,32.42,49.72,42.18,64.16l-33.72,1.08-34.38-56.69Zm0-26,9.88-.26q14.52-.39,21.41-5.62t6.9-16q0-10.69-7-15t-21.85-4l-9.29.22Z"/><path class="cls-52" d="M1682.35,1321.55q0,36.87-17.29,57.21t-49.77,21.43q-32.57,1.05-50.11-18.35T1547.63,1325q0-37.4,17.6-57.54t50.25-20.81q32.57-.73,49.73,18.62T1682.35,1321.55Zm-103,2.8q0,25.05,9,37.46t27,11.85q35.84-1.08,35.82-51.26T1615.48,1273q-17.93.43-27,13.37T1579.3,1324.35Z"/><path class="cls-53" d="M1745.81,1337.22V1394l-29.55,1V1246.75l40.58-.91q28.28-.63,41.78,10t13.5,32.87a41.73,41.73,0,0,1-6.7,23.29,46.75,46.75,0,0,1-19,16.4q31.2,48.81,40.59,63l-32.45,1-33.07-55.63Zm0-25.49,9.51-.25q14-.37,20.59-5.5t6.63-15.71q0-10.5-6.77-14.77t-21-3.94l-8.94.22Z"/><path class="cls-54" d="M613.34,2690.54s-7.24,41-10.79,81.61a28,28,0,0,0,26.76,30.31c54.07,2.25,169.72,6.63,211.22,4.78a9.1,9.1,0,0,0,8-12.47h0a20.43,20.43,0,0,0-10.42-11l-191-87.8Z"/><path class="cls-55" d="M607.41,2666.44l5.82,49.06s33.47,15.58,56.32-2l-13.86-54.67Z"/><path class="cls-56" d="M611.78,1744.1c-2.51,12.81-13.49,639.33,53.48,920.1a9.53,9.53,0,0,1-5.59,11.08c-10.27,4.2-30.41,10.27-54.54,11.09a16.42,16.42,0,0,1-16.29-11.78C569.7,2609.44,478,2283.06,466,1971.28c-13.37-348.38,0-11.86,0-11.86l7.84-215.35Z"/><path class="cls-57" d="M393.59,2711.93s-11.54,20.71-22.7,75.73a17.06,17.06,0,0,0,15,20.44c17.86,1.76,45.34,4,67.36,3.86a17,17,0,0,0,16.85-19c-2.44-20.08-10-53-33.51-78.72Z"/><path class="cls-58" d="M383.46,2648.83l13.6,74.19s13.45,10,40.05,2.76L430.62,2646Z"/><path class="cls-59" d="M346.71,1763.32c-54.77,330.56,11.88,817,34.36,912.21a14.86,14.86,0,0,0,12,11.28c10,1.66,26.56,3,42.84-1.71a13.62,13.62,0,0,0,9.79-12.53c3-77-2.42-549.52,48.62-736.27a42.46,42.46,0,0,1,16.36-23.4l99.06-70.42,7.59-113.83Z"/><path class="cls-60" d="M834.36,1292.12c-8.32,59.22-17.11,72.83-23.94,73.18-21.74,1.12-17.36-132.39-96.86-199.92-50.21-42.66-118.8-46.17-172.62-41.2l75.33,270.15c11,26.91,58.77,135.72,166.93,168.75,22,6.72,54.8,16.73,85.28,3.63,60.17-25.86,88.39-131.84,61.48-264.55C917.32,1297.46,899.81,1292.46,834.36,1292.12Z"/><path class="cls-61" d="M815.2,1061.2l9.95,56.28c16,68.83,17.51,126.2,9.21,174.64,13.74.57,28.17,1.54,43.19,3,18.54,1.83,36,4.24,52.41,7-8.64-70-55.23-186.25-55.23-186.25C846.64,1075.36,843.29,1101.75,815.2,1061.2Z"/><path class="cls-62" d="M929,942.61a37.17,37.17,0,0,0-29.35,13.17l-71,84.13s-12.92-2.64-14.13-27.38S787,984.8,787,984.8s3.79,34.51,11,85.59c4.12,29.21,21.39,50.54,35.42,63.45l41.08-14.14c37.68-53.86,61.07-113.22,74.07-176.57Z"/><path class="cls-63" d="M259.81,1171.5c4.74-1.24,37.08-34.65,41.94-35.58,79.7-15.19,278.65-68.77,411.81,29.46.34,2.84.55,5.1.68,7a74.18,74.18,0,0,1,5.49,9.4,448.34,448.34,0,0,0,44.94,70.18,45.78,45.78,0,0,0-9.26,13.13c-32,68.54-153.29,342.26-132,509.65a15.81,15.81,0,0,1-13.42,17.8c-47.08,6.51-187.3,22.39-259.74-7.52a11.1,11.1,0,0,1-6.85-10.44c.48-33.58-.94-179.34-54.38-355a197.38,197.38,0,0,1-4.91-19.91c-.66,1.35-1.28,2.69-1.92,4Z"/><path class="cls-64" d="M381.45,1120.73C232.81,1131.6,201.75,1216.54,99,1164.6l18.19,159.07c38.09,42.07,95.61,70.72,168.08,81.46Z"/><path class="cls-65" d="M483,976.86c-25.47,50.78-36.1,102.49-39.29,150.63,5.48,2,78.58,52.75,127.51,3.67-10.46-33.69-8.73-84.41-6.07-136.43Z"/><path class="cls-66" d="M615.64,843.39c1.4,2.26,37.93,174.55,37.93,174.55l-98.82,18.77L495.87,878.56S592.19,805.45,615.64,843.39Z"/><path class="cls-67" d="M533.59,892.62a14.5,14.5,0,0,0-2.24,12.54l24.13,84.44a13.76,13.76,0,0,0,1.59,3.62c3.9,6.23,17.9,25.06,36.77,9.6,16.09-13.18,31.06-25.07,44.47-28A14.43,14.43,0,0,1,655.47,986c3.37,16.17,9.51,49,10.87,78.84a14.39,14.39,0,0,1-12.66,14.87c-19.64,2.43-58.13,6-90.35,2a14.45,14.45,0,0,1-11.69-9.15c-8.45-21.9-32.4-83.18-41.83-99.44-8.75-15.1-32-16.53-42.7-16.34a14.49,14.49,0,0,1-10.76-4.45c-8.45-8.77-22-28.61,1-49.89a14.45,14.45,0,0,0,.77-20.13c-9.27-10.43-17.75-27.6-.08-47,17.89-19.62,39.47-16,53.32-10.43,6.13,2.47,13.46.88,17.48-4.37a9.54,9.54,0,0,1,8.72-3.75c7.91.49,14.68-5,15.23-13,.93-13.57,7.32-29.81,30.94-35.6,43.32-10.63,67.31,32,68.06,62.86s-46.87,39.65-74.32,35.9C557.28,864.23,540.88,882.65,533.59,892.62Z"/><path class="cls-68" d="M524.62,1005.17s-9.19-54.54-31.16-58.5-44.63,12.9-24.45,44.11C494.1,1029.59,524.62,1005.17,524.62,1005.17Z"/><path class="cls-69" d="M488.39,808.94A50.91,50.91,0,0,1,501,810.12c10.45,2.21,24.36,7.58,20.74,17.63-5.44,15.09-33.68,1-48.71,25.31-13.25,21.44-2.41,44.72-6.46,67.81-2,11.24-9.2,27.93-19.24,34.49-4.48,2.93-39.94,8.55-41.88,2.26l-9.85-32c-8.86-28.77,25.19-76.7,42.76-96.08C451.89,814.59,470.28,809.68,488.39,808.94Z"/><path class="cls-70" d="M454.78,924.38l-33.91,28.23c-65,27.66-112.27,60.25-146.51,95.51a193.22,193.22,0,0,0-64.46-71.31c65.55-32.29,114.34-45.7,114.34-45.7C456.53,877.91,454.78,924.38,454.78,924.38Z"/><path class="cls-71" d="M274.36,1048.12c-106.91,110.1-75.67,54.15-76.52,148-.32,35-30.68,168.58-30.68,168.58-326.95-141.24-54.1-334,42.74-387.88A193.22,193.22,0,0,1,274.36,1048.12Z"/></g></g></svg>