<svg width="24" height="24" viewBox="0 0 24 24" fill="none" xmlns="http://www.w3.org/2000/svg">
<circle cx="12" cy="12" r="12" fill="#F3E5FF"/>
<g clip-path="url(#clip0_2004_14950)">
<path d="M15.0404 8.96366C14.8521 8.77539 14.548 8.77539 14.3597 8.96366L11.999 11.3195L9.6383 8.95883C9.45003 8.77056 9.14589 8.77056 8.95761 8.95883C8.76934 9.14711 8.76934 9.45125 8.95761 9.63952L11.3183 12.0002L8.95761 14.3609C8.76934 14.5492 8.76934 14.8533 8.95761 15.0416C9.14589 15.2299 9.45003 15.2299 9.6383 15.0416L11.999 12.6809L14.3597 15.0416C14.548 15.2299 14.8521 15.2299 15.0404 15.0416C15.2286 14.8533 15.2286 14.5492 15.0404 14.3609L12.6797 12.0002L15.0404 9.63952C15.2238 9.45608 15.2238 9.14711 15.0404 8.96366Z" fill="#31005C"/>
</g>
<defs>
<clipPath id="clip0_2004_14950">
<rect width="11.5862" height="11.5862" fill="white" transform="translate(6.20703 6.20703)"/>
</clipPath>
</defs>
</svg>
