<svg width="26" height="27" viewBox="0 0 26 27" fill="none" xmlns="http://www.w3.org/2000/svg">
<path d="M24.0702 0H9.65943C8.63237 0 7.79688 0.835555 7.79688 1.86256V6.23411H9.49712V1.86256C9.49712 1.77307 9.56994 1.70024 9.65943 1.70024H24.0702C24.1597 1.70024 24.2325 1.77307 24.2325 1.86256V16.2733C24.2325 16.3629 24.1597 16.4357 24.0702 16.4357H19.835V18.136H24.0702C25.0972 18.136 25.9328 17.3004 25.9328 16.2733V1.86256C25.9327 0.835555 25.0972 0 24.0702 0Z" fill="#31005C"/>
<path d="M16.2733 7.93457H1.86261C0.835555 7.93457 0 8.77013 0 9.79719V24.208C5.66747e-05 25.235 0.835555 26.0706 1.86261 26.0706H16.2734C17.3005 26.0706 18.136 25.235 18.136 24.208V9.79719C18.1361 8.77013 17.3004 7.93457 16.2733 7.93457ZM16.2735 24.3704H1.86261C1.77307 24.3704 1.70024 24.2975 1.70024 24.208V9.79719C1.70024 9.70764 1.77307 9.63481 1.86261 9.63481H16.2734C16.363 9.63481 16.4358 9.70764 16.4358 9.79719V24.208H16.4358C16.4358 24.2975 16.363 24.3704 16.2735 24.3704Z" fill="#31005C"/>
</svg>
