<svg width="43" height="44" viewBox="0 0 43 44" fill="none" xmlns="http://www.w3.org/2000/svg">
<path d="M21.5 43.9999C33.3741 43.9999 42.9999 34.1502 42.9999 22C42.9999 9.84972 33.3741 0 21.5 0C9.62586 0 0 9.84972 0 22C0 34.1502 9.62586 43.9999 21.5 43.9999Z" fill="#FDDF6D"/>
<path d="M26.1071 40.752C14.2331 40.752 4.60727 30.9023 4.60727 18.7521C4.60727 12.2607 7.35539 6.42682 11.7255 2.3999C4.76508 6.04157 0 13.4512 0 21.9998C0 34.15 9.62581 43.9997 21.4999 43.9997C27.0301 43.9997 32.072 41.8624 35.8815 38.3521C32.949 39.8863 29.627 40.752 26.1071 40.752Z" fill="#FCC56B"/>
<path d="M32.11 15.1899C32.11 16.8405 33.4176 18.1785 35.0306 18.1785C36.6437 18.1785 37.9512 16.8404 37.9512 15.1899H28.0664" fill="white"/>
<path d="M17.1725 15.1899C17.1725 16.8405 18.4801 18.1785 20.0931 18.1785C21.7061 18.1785 23.0137 16.8404 23.0137 15.1899H13.1289" fill="white"/>
<path d="M12.2583 20.6382C10.6617 20.6382 9.36719 21.9626 9.36719 23.5966H15.1493C15.1493 21.9626 13.8549 20.6382 12.2583 20.6382Z" fill="#F9A880"/>
<path d="M37.4771 20.2417C35.8805 20.2417 34.5859 21.5662 34.5859 23.2001H40.3681C40.3682 21.5662 39.0739 20.2417 37.4771 20.2417Z" fill="#F9A880"/>
<path d="M19.4802 33.9935C19.2461 33.9935 19.0124 33.8978 18.8401 33.7086C18.5109 33.3468 18.5305 32.7806 18.8839 32.4437C20.3532 31.043 22.9124 30.1729 25.563 30.1729C28.3344 30.1729 30.8247 31.0303 32.2245 32.4665C32.5656 32.8165 32.5648 33.3831 32.2229 33.7321C31.8808 34.0812 31.327 34.0803 30.9859 33.7305C29.9232 32.6401 27.8452 31.9628 25.563 31.9628C23.3373 31.9628 21.2348 32.649 20.0764 33.7534C19.9077 33.914 19.6937 33.9935 19.4802 33.9935Z" fill="#7F184C"/>
<path d="M37.9508 14.2949H28.066C27.5829 14.2949 27.1914 14.6956 27.1914 15.1899C27.1914 15.6841 27.583 16.0848 28.066 16.0848H31.3366C31.7327 17.7962 33.2384 19.0734 35.0302 19.0734C37.1229 19.0734 38.8254 17.3312 38.8254 15.1899C38.8255 14.6955 38.4339 14.2949 37.9508 14.2949ZM35.0302 17.2835C34.2148 17.2835 33.5093 16.7928 33.1807 16.0849H36.8796C36.5512 16.7928 35.8456 17.2835 35.0302 17.2835Z" fill="#7F184C"/>
<path d="M23.8879 15.1908C23.8879 14.6965 23.4963 14.2959 23.0133 14.2959H13.1285C12.6454 14.2959 12.2539 14.6966 12.2539 15.1908C12.2539 15.6851 12.6455 16.0858 13.1285 16.0858H16.3991C16.7952 17.7971 18.3009 19.0743 20.0927 19.0743C22.1854 19.0744 23.8879 17.3321 23.8879 15.1908ZM18.2432 16.0859H21.9421C21.6136 16.7939 20.908 17.2844 20.0926 17.2844C19.2773 17.2844 18.5718 16.7937 18.2432 16.0859Z" fill="#7F184C"/>
<path d="M29.858 7.99777C30.2351 6.63441 28.6066 4.96909 26.2207 4.27818C23.8348 3.58728 21.5949 4.13241 21.2179 5.49577C20.8408 6.85913 22.4693 8.52445 24.8552 9.21535C27.2411 9.90626 29.4809 9.36113 29.858 7.99777Z" fill="#FCEB88"/>
</svg>
