<svg width="24" height="24" viewBox="0 0 24 24" fill="none" xmlns="http://www.w3.org/2000/svg">
<circle cx="12" cy="12" r="12" fill="#F3E6FF"/>
<path d="M9.99201 12.4015V8.62265C9.99201 8.47086 9.87035 8.34343 9.71497 8.34343C9.55958 8.34343 9.43792 8.47086 9.43792 8.62265V12.4015H9.40409V7.40844H9.43792V7.84685C9.43792 7.99864 9.55958 8.12607 9.71497 8.12607C9.87035 8.12607 9.99201 7.99864 9.99201 7.84685V7.66703H17.3579L15.9072 9.88031L15.9072 9.88034L16.0326 9.96257C16.0042 10.006 16.0042 10.0625 16.0326 10.1059L9.99201 12.4015ZM9.99201 12.4015H17.3579M17.3579 12.4015L15.9072 10.1882L17.3579 12.4015ZM18.1177 7.25701L18.1177 7.25698C18.0701 7.16659 17.9765 7.10859 17.873 7.10859H9.99126C9.98084 6.96606 9.86326 6.85 9.71497 6.85H9.12705C8.97166 6.85 8.85 6.97743 8.85 7.12922V18.8708C8.85 19.0226 8.97166 19.15 9.12705 19.15H9.71497C9.87035 19.15 9.99201 19.0226 9.99201 18.8708V12.9599H17.873C17.9765 12.9599 18.0701 12.902 18.1177 12.8115C18.1651 12.7214 18.1601 12.6122 18.1041 12.5268C18.1041 12.5268 18.1041 12.5268 18.1041 12.5268L16.4704 10.0343L18.1041 7.54175C18.1041 7.54174 18.1041 7.54174 18.1041 7.54173C18.1601 7.45637 18.1651 7.34716 18.1177 7.25701Z" fill="#31005C" stroke="#31005C" stroke-width="0.3"/>
</svg>
