<svg width="48" height="48" viewBox="0 0 48 48" fill="none" xmlns="http://www.w3.org/2000/svg">
<circle cx="24" cy="24" r="24" fill="#31005C"/>
<g clip-path="url(#clip0_1996_14445)">
<path d="M16.4405 19.9652L33.2929 19.6153C33.3645 19.6139 33.4352 19.6317 33.4975 19.6668C33.5599 19.702 33.6117 19.7533 33.6475 19.8153C33.6833 19.8773 33.7018 19.9477 33.701 20.0193C33.7003 20.0909 33.6804 20.161 33.6433 20.2223L24.9141 34.6419C24.8781 34.7014 24.8272 34.7505 24.7665 34.7843C24.7058 34.8181 24.6373 34.8355 24.5678 34.8348C24.4983 34.8341 24.4302 34.8153 24.3701 34.7802C24.3101 34.7452 24.2603 34.6951 24.2255 34.6349L16.1023 20.5651C16.0676 20.5049 16.0491 20.4367 16.0488 20.3672C16.0484 20.2977 16.0662 20.2293 16.1003 20.1687C16.1344 20.1082 16.1838 20.0576 16.2434 20.0219C16.3031 19.9862 16.371 19.9667 16.4405 19.9652ZM21.9495 27.4928L24.5963 32.0772L31.1451 21.26L18.5028 21.5228L21.1495 26.1072L24.6137 24.1072L25.4137 25.4928L21.9495 27.4928Z" fill="white"/>
</g>
<defs>
<clipPath id="clip0_1996_14445">
<rect width="19.2" height="19.2" fill="white" transform="translate(13.2852 20.4861) rotate(-30)"/>
</clipPath>
</defs>
</svg>
