<svg width="102" height="102" viewBox="0 0 102 102" fill="none" xmlns="http://www.w3.org/2000/svg">
<circle cx="50.9117" cy="50.9116" r="35.5" transform="rotate(-45 50.9117 50.9116)" fill="#FAF4FF" stroke="#31005C"/>
<g clip-path="url(#clip0_1996_14455)">
<path d="M31.327 46.7755L63.909 36.93C64.0474 36.8883 64.1935 36.8842 64.3321 36.9181C64.4707 36.952 64.5966 37.0228 64.6968 37.123C64.797 37.2232 64.8678 37.3491 64.9017 37.4877C64.9357 37.6263 64.9315 37.7724 64.8898 37.9108L55.0443 70.4928C55.0037 70.6271 54.9291 70.7495 54.8278 70.8478C54.7264 70.9462 54.6019 71.017 54.4665 71.0535C54.331 71.0899 54.1893 71.0907 54.0554 71.0557C53.9214 71.0207 53.7998 70.9511 53.7025 70.8539L30.9659 48.1173C30.8687 48.02 30.7991 47.8984 30.7641 47.7644C30.7291 47.6305 30.7299 47.4888 30.7663 47.3533C30.8028 47.2179 30.8736 47.0934 30.972 46.992C31.0703 46.8907 31.1927 46.8161 31.327 46.7755ZM45.7519 58.3071L53.1602 65.7154L60.5466 41.2732L36.1044 48.6596L43.5127 56.0679L49.258 50.3227L51.4971 52.5618L45.7519 58.3071Z" fill="#31005C"/>
</g>
<defs>
<clipPath id="clip0_1996_14455">
<rect width="39" height="38" fill="white" transform="translate(25.4531 49.4976) rotate(-45)"/>
</clipPath>
</defs>
</svg>
