<svg width="20" height="22" viewBox="0 0 20 22" fill="none" xmlns="http://www.w3.org/2000/svg">
<path d="M19.9974 4.53457C19.9908 4.02988 19.6024 3.61296 19.0999 3.56686C14.9242 3.17627 11.5164 0.944653 10.3929 0.128367C10.1581 -0.0427891 9.83994 -0.0427891 9.60514 0.128367C8.48385 0.944653 5.07608 3.17627 0.900295 3.56686C0.397797 3.61296 0.0115978 4.02988 0.00282056 4.53457C-0.0476487 7.82824 0.481182 19.0104 9.74777 21.4988C9.91235 21.5427 10.0857 21.5427 10.2503 21.4988C19.5169 19.0127 20.0457 7.82822 19.9974 4.53457Z" fill="#7917CE"/>
<path d="M14.2852 8.09549C14.2823 7.87919 14.1159 7.70051 13.9005 7.68075C12.1109 7.51336 10.6504 6.55695 10.1689 6.20711C10.0683 6.13376 9.93196 6.13376 9.83133 6.20711C9.35078 6.55695 7.89031 7.51336 6.10068 7.68075C5.88533 7.70051 5.71981 7.87919 5.71605 8.09549C5.69442 9.50706 5.92106 14.2994 9.89246 15.3659C9.96299 15.3847 10.0373 15.3847 10.1078 15.3659C14.0792 14.3004 14.3058 9.50705 14.2852 8.09549Z" fill="white"/>
</svg>
