<svg width="90" height="90" viewBox="0 0 90 90" fill="none" xmlns="http://www.w3.org/2000/svg">
<circle r="45" transform="matrix(-1 0 0 1 45 45)" fill="#F6F7F7"/>
<path d="M47.0306 66.7744H49.0629V60.6776L55.1597 46.4518V30.1938C55.1597 29.1158 54.7314 28.082 53.9692 27.3197C53.2069 26.5575 52.1731 26.1293 51.0951 26.1293H34.8371C32.6016 26.1293 30.1426 27.8363 29.35 29.9499L24.6758 42.3873V46.4518C24.6758 47.5298 25.104 48.5636 25.8663 49.3259C26.6285 50.0881 27.6623 50.5163 28.7403 50.5163H42.9661V62.7099C42.9661 63.7879 43.3943 64.8217 44.1566 65.5839C44.9188 66.3462 45.9526 66.7744 47.0306 66.7744ZM59.2242 46.4518H65.3209V26.1293H59.2242V46.4518Z" fill="#C4C4C4"/>
</svg>
