<svg width="90" height="90" viewBox="0 0 90 90" fill="none" xmlns="http://www.w3.org/2000/svg">
<circle cx="45" cy="45" r="45" fill="#F6F7F7"/>
<path d="M42.9694 23.2256H40.9371V29.3224L34.8403 43.5482V59.8062C34.8403 60.8842 35.2686 61.918 36.0308 62.6803C36.7931 63.4425 37.8269 63.8707 38.9049 63.8707H55.1629C57.3984 63.8707 59.8574 62.1636 60.65 60.0501L65.3242 47.6127V43.5482C65.3242 42.4702 64.896 41.4364 64.1337 40.6741C63.3715 39.9119 62.3377 39.4836 61.2597 39.4836H47.0339V27.2901C47.0339 26.2121 46.6057 25.1783 45.8434 24.4161C45.0812 23.6538 44.0474 23.2256 42.9694 23.2256ZM30.7758 43.5482H24.6791V63.8707H30.7758V43.5482Z" fill="#C4C4C4"/>
</svg>
