<svg width="24" height="24" viewBox="0 0 24 24" fill="none" xmlns="http://www.w3.org/2000/svg">
<circle cx="12" cy="12" r="12" fill="#F3E5FF"/>
<path fill-rule="evenodd" clip-rule="evenodd" d="M8.81802 8.81802L11.6445 11.6445L12.7107 10.5786C12.9069 10.3824 13.2251 10.3824 13.4214 10.5786C13.6176 10.7749 13.6176 11.0931 13.4214 11.2893L12.355 12.355L15.182 15.182C15.3772 15.3772 15.3772 15.6938 15.182 15.8891C14.9867 16.0843 14.6701 16.0843 14.4749 15.8891L13.0695 14.484L11.2893 16.2641C10.3081 17.2453 8.71717 17.2453 7.73593 16.2641C6.78051 15.3086 6.75537 13.7752 7.6605 12.7894L7.73593 12.7107L9.516 10.9305L8.11091 9.52513C7.91565 9.32986 7.91565 9.01328 8.11091 8.81802C8.30617 8.62276 8.62276 8.62276 8.81802 8.81802ZM10.2265 11.641L8.44661 13.4214C7.85786 14.0101 7.85786 14.9646 8.44661 15.5534C9.01433 16.1211 9.92218 16.1414 10.5142 15.6142L10.5786 15.5534L12.3585 13.773L11.648 13.0625L11.2893 13.4214C11.0931 13.6176 10.7749 13.6176 10.5786 13.4214C10.3824 13.2251 10.3824 12.9069 10.5786 12.7107L10.9375 12.352L10.2265 11.641ZM16.2641 7.73593C17.2453 8.71717 17.2453 10.3081 16.2641 11.2893L14.8427 12.7107C14.6465 12.9069 14.3283 12.9069 14.132 12.7107C13.9358 12.5144 13.9358 12.1962 14.132 12L15.5534 10.5786C16.1421 9.9899 16.1421 9.03535 15.5534 8.44661C14.9646 7.85786 14.0101 7.85786 13.4214 8.44661L12 9.86797C11.8038 10.0642 11.4856 10.0642 11.2893 9.86797C11.0931 9.67172 11.0931 9.35354 11.2893 9.15729L12.7107 7.73593C13.6919 6.75469 15.2828 6.75469 16.2641 7.73593ZM12.3536 10.9393L11.6464 11.6464L12.3536 12.3536L13.0607 11.6464L12.3536 10.9393Z" fill="#31005C"/>
</svg>
