<svg width="21" height="20" viewBox="0 0 21 20" fill="none" xmlns="http://www.w3.org/2000/svg">
<path d="M13.3281 8.61426L14.9359 8.15447L15.8555 11.37L14.2477 11.8298L13.3281 8.61426Z" fill="#B561FF"/>
<path d="M15.3893 3.67552L14.9295 2.06777C14.6759 1.1811 13.7487 0.666238 12.862 0.919813L2.41162 3.90846C1.08201 4.2887 0.30944 5.68016 0.689687 7.00977L3.44844 16.6563C3.95444 18.4256 5.58027 18.6554 6.54975 18.3782L18.6079 14.9298C19.4945 14.6762 20.0094 13.7489 19.7558 12.8622L17.4569 4.82347C17.2033 3.9368 16.276 3.42194 15.3893 3.67552ZM2.87141 5.51621L13.3218 2.52756L13.7816 4.13531L3.3312 7.12395C2.88747 7.25086 2.42411 6.99291 2.29744 6.54997C2.17076 6.10704 2.42767 5.64311 2.87141 5.51621ZM18.1481 13.322L6.0996 16.7677C5.72545 16.8642 5.24125 16.8436 5.05618 16.1965L2.94459 8.81288C3.22299 8.83153 3.50723 8.81285 3.791 8.7317L15.8491 5.28326L18.1481 13.322Z" fill="#B561FF"/>
</svg>
