<svg width="120" height="113" viewBox="0 0 120 113" fill="none" xmlns="http://www.w3.org/2000/svg">
<path d="M84.7157 42.1882L84.1464 42.4017C83.9784 42.4386 83.8289 42.5599 83.661 42.5967C82.9422 42.9316 82.4655 43.5674 82.1938 44.3354C81.8753 45.2908 82.0977 46.3046 82.703 47.0573C82.9637 47.4428 83.0749 47.9497 82.9156 48.4274C82.8218 48.8022 82.5414 49.1294 82.224 49.2876C82.1401 49.306 82.0561 49.3244 81.9906 49.4273C81.8226 49.4642 81.6732 49.5855 81.5052 49.6224C80.7864 49.9572 80.3098 50.5931 80.0381 51.3611C79.7196 52.3164 79.942 53.3302 80.5473 54.0829C80.8079 54.4685 80.9192 54.9754 80.7599 55.4531C80.666 55.8278 80.3857 56.155 80.0683 56.3132C79.9843 56.3316 79.9003 56.35 79.8349 56.4529C79.6669 56.4898 79.5175 56.6111 79.3495 56.648C78.6307 56.9828 78.154 57.6187 77.8824 58.3867C77.5638 59.3421 77.7863 60.3558 78.3915 61.1085C78.6522 61.4941 78.7634 62.001 78.6041 62.4787C78.5103 62.8535 78.23 63.1806 77.9126 63.3388C77.8286 63.3572 77.7446 63.3757 77.6791 63.4786C77.5952 63.497 77.5952 63.497 77.5112 63.5154C77.1938 63.6736 77.016 64.0668 77.1741 64.3863C77.2668 64.8087 77.7608 65.0545 78.1622 64.8779C78.3302 64.8411 78.4796 64.7197 78.6476 64.6829C79.3664 64.3481 79.8431 63.7122 80.1147 62.9442C80.4333 61.9888 80.2109 60.975 79.6056 60.2223C79.3449 59.8368 79.2337 59.3299 79.393 58.8522C79.4868 58.4774 79.7671 58.1502 80.0845 57.9921C80.1685 57.9736 80.2525 57.9552 80.318 57.8523C80.4859 57.8154 80.6354 57.6941 80.8033 57.6572C81.5222 57.3224 81.9988 56.6865 82.2705 55.9186C82.589 54.9632 82.3666 53.9494 81.7613 53.1967C81.5007 52.8111 81.3894 52.3042 81.5487 51.8266C81.6425 51.4518 81.9229 51.1246 82.2403 50.9664C82.3243 50.948 82.4083 50.9296 82.4737 50.8267C82.6417 50.7898 82.7911 50.6685 82.9591 50.6316C83.6779 50.2968 84.1546 49.6609 84.4262 48.8929C84.7448 47.9375 84.5223 46.9238 83.917 46.1711C83.6564 45.7855 83.5452 45.2786 83.7044 44.8009C83.7983 44.4261 84.0786 44.099 84.396 43.9408C84.48 43.9224 84.564 43.9039 84.6294 43.801L85.1988 43.5876C85.2828 43.5691 85.2828 43.5691 85.3668 43.5507C85.6842 43.3925 85.862 42.9993 85.7039 42.6798C85.5457 42.3603 85.1357 42.0961 84.7157 42.1882Z" fill="#7917CE"/>
<path d="M38.5127 55.448C38.9359 55.2352 39.0417 54.703 38.7243 54.2773C38.6185 54.0644 38.3011 53.8516 37.9837 53.8516C37.7721 53.8516 37.6663 53.8516 37.5605 53.958C36.5025 54.703 36.1851 56.0866 36.7141 57.1509C36.8199 57.3638 36.8199 57.6831 36.7141 57.8959C36.6083 58.1088 36.3967 58.3217 36.0793 58.3217C35.2328 58.4281 34.598 58.9603 34.1748 59.5988C33.7516 60.2374 33.7516 61.1953 34.1748 61.9403C34.2806 62.1532 34.2806 62.4725 34.1748 62.6854C34.069 62.8982 34.069 63.1111 34.069 63.3239C34.069 63.5368 34.2806 63.7497 34.4922 63.8561C34.598 63.9625 34.7038 63.9625 34.9154 63.9625C35.2328 63.9625 35.5502 63.7497 35.656 63.5368C35.9735 62.7918 35.9735 61.9403 35.656 61.3017C35.5502 61.0889 35.5502 60.7696 35.656 60.5567C35.7618 60.3439 35.9734 60.131 36.2909 60.131C37.1373 60.0246 37.7721 59.4924 38.1953 58.8538C38.6185 58.1088 38.6185 57.2574 38.1953 56.5123C38.0895 56.0866 38.3011 55.6609 38.5127 55.448Z" fill="#7917CE"/>
<path d="M52.2664 39.5906C52.0548 39.2714 51.6316 39.1649 51.3141 39.2714C51.2083 39.2714 51.1025 39.3778 51.1025 39.3778C50.2561 39.9099 49.7271 40.8678 49.6213 41.8256C49.5155 42.7834 49.8329 43.8477 50.4677 44.5927C50.8909 45.0184 50.9967 45.5505 50.8909 46.0826C50.7851 46.6148 50.3619 47.0405 49.8329 47.2533C48.7749 47.679 48.0343 48.5305 47.7169 49.7012C47.5053 50.7654 47.7169 51.9361 48.4575 52.7875C48.8807 53.2132 48.9865 53.7454 48.8807 54.2775C48.7749 54.8096 48.3517 55.2353 47.8227 55.4482C46.7647 55.8739 46.0241 56.7253 45.7067 57.896C45.4951 58.9603 45.7067 60.1309 46.4473 60.9824C46.6589 61.1952 46.9763 61.3016 47.2937 61.1952C47.3995 61.1952 47.5053 61.0888 47.6111 60.9824C47.9285 60.6631 48.0343 60.1309 47.7169 59.7052C47.2937 59.2795 47.1879 58.7474 47.2937 58.2153C47.3995 57.6831 47.8227 57.2574 48.3517 57.0446C49.4097 56.6189 50.1503 55.7675 50.4677 54.5968C50.6793 53.5325 50.4677 52.3618 49.7271 51.5104C49.3039 51.0847 49.1981 50.5526 49.3039 50.0204C49.4097 49.4883 49.8329 49.0626 50.3619 48.8497C51.4199 48.424 52.1606 47.5726 52.478 46.4019C52.6896 45.3377 52.478 44.167 51.7374 43.3156C51.42 42.9963 51.2083 42.4642 51.3141 41.932C51.42 41.3999 51.6316 40.9742 52.0548 40.7613C52.2664 40.6549 52.3722 40.442 52.478 40.2292C52.3722 40.0163 52.3722 39.8035 52.2664 39.5906Z" fill="url(#paint0_linear_1719_14493)"/>
<path d="M74.3306 45.0247C74.1189 44.7054 73.6957 44.4925 73.2725 44.599C73.1667 44.599 73.0609 44.7054 73.0609 44.7054C71.3681 45.7697 70.8391 47.7919 71.6855 49.6012C72.0029 50.1334 71.8971 50.772 71.5797 51.3041C71.3681 51.7299 70.9449 52.0492 70.5217 52.1556C70.4159 52.1556 70.3101 52.1556 70.2043 52.262C69.9927 52.262 69.7811 52.3685 69.5695 52.3685C68.6173 52.6877 67.7709 53.2199 67.3477 54.1778C66.7128 55.2421 66.7128 56.6257 67.2419 57.69C67.4535 58.2222 67.4535 58.8607 67.1361 59.3929C67.0303 59.6058 67.0303 59.9251 67.0303 60.1379C67.1361 60.3508 67.2419 60.5636 67.4535 60.6701C67.6651 60.7765 67.9825 60.7765 68.1941 60.7765C68.4057 60.6701 68.6173 60.5636 68.8289 60.3508C69.4637 59.2865 69.4637 58.0093 68.9347 56.8386C68.6173 56.3064 68.7231 55.6678 69.0405 55.1357C69.2521 54.7099 69.6753 54.3906 70.0985 54.2842C70.2043 54.2842 70.3101 54.2842 70.4159 54.1778C70.6275 54.1778 70.8391 54.0713 71.0507 54.0713C72.0029 53.7521 72.8493 53.2199 73.3783 52.262C74.0131 51.1977 74.0131 49.8141 73.4841 48.7498C73.0609 47.8983 73.3783 46.834 74.2247 46.4083C74.5421 46.089 74.648 45.4504 74.3306 45.0247Z" fill="url(#paint1_linear_1719_14493)"/>
<path d="M60.6681 47.7762C60.9855 47.4569 60.9855 46.8183 60.5623 46.499C60.3507 46.2861 60.0332 46.2861 59.7158 46.2861C59.5042 46.2861 59.3984 46.3926 59.2926 46.6054C58.4462 47.5633 58.4462 49.1598 59.3984 50.1177C59.61 50.3305 59.61 50.5434 59.61 50.8627C59.5042 51.182 59.3984 51.3948 59.081 51.5013C58.3404 51.8206 57.7056 52.5656 57.494 53.3106C57.2824 54.162 57.5998 55.0135 58.1288 55.6521C58.3404 55.8649 58.3404 56.0778 58.3404 56.3971C58.3404 56.61 58.3404 56.8228 58.4462 57.0357C58.552 57.2485 58.7636 57.355 58.9752 57.4614C59.081 57.4614 59.2926 57.4614 59.3984 57.4614C59.7158 57.355 59.9274 57.1421 60.0332 56.8228C60.2449 55.9714 59.9274 55.1199 59.3984 54.4813C59.1868 54.2685 59.1868 54.0556 59.1868 53.7363C59.2926 53.417 59.3984 53.2042 59.7158 53.0977C60.4565 52.7784 61.0913 52.0334 61.3029 51.2884C61.5145 50.4369 61.1971 49.5855 60.6681 48.9469C60.3507 48.5212 60.4565 48.0955 60.6681 47.7762Z" fill="#7917CE"/>
<path d="M70.2525 62.6855V111.216H27.1913C25.0753 111.216 23.4883 109.513 23.4883 107.491V62.6855H70.2525Z" fill="#E9EDF5"/>
<path d="M90.5661 62.6855V107.491C90.5661 109.62 88.8733 111.216 86.8631 111.216H70.1465V62.6855H90.5661Z" fill="#DAE1ED"/>
<path opacity="0.2" d="M90.5661 62.6855V107.491C90.5661 109.62 88.8733 111.216 86.8631 111.216H70.1465V62.6855H90.5661Z" fill="url(#paint2_linear_1719_14493)"/>
<path d="M40.6282 76.3076C38.1947 75.7755 34.5975 79.607 33.0105 81.097C31.8466 82.1613 30.577 83.3321 29.4132 84.5028C28.3552 85.5671 27.403 86.9507 25.9218 87.5893C24.1231 88.3343 22.2187 87.6957 20.4201 87.0572C19.9969 86.9507 19.6795 86.7379 19.3621 86.6314C17.8809 86.0993 16.5054 85.4607 15.13 84.6092C13.7546 83.7578 11.427 82.1613 11.5328 80.2456C11.6386 78.3298 14.8126 76.6269 14.8126 76.6269L22.4303 79.3941C22.2187 79.3941 21.5839 79.8198 21.3723 79.8198C20.9491 80.0327 20.5259 80.2456 20.2085 80.6713C19.9969 81.097 19.8911 81.6292 19.9969 82.0549C20.1027 82.2678 20.2085 82.4806 20.3143 82.587C20.4201 82.587 20.5259 82.587 20.6317 82.587C21.4781 82.4806 22.9593 80.9906 23.3825 80.5649C25.287 78.9684 27.932 76.7333 30.6828 75.3497C35.2323 73.1147 36.6077 74.924 40.6282 76.3076Z" fill="url(#paint3_linear_1719_14493)"/>
<path opacity="0.5" d="M44.0144 100.361L43.168 75.031L51.5263 73.6475L52.0553 100.999L51.1031 100.573L50.4683 95.3585" fill="url(#paint4_linear_1719_14493)"/>
<path d="M51.9493 111.215H43.591C43.591 105.468 43.591 99.615 43.591 93.868C43.591 93.3358 43.591 92.9101 43.591 92.378C43.591 90.2495 43.4852 88.0145 43.062 85.886C42.533 82.7996 42.2156 78.8618 40.7344 76.2012C41.0518 76.3076 41.2634 76.414 41.5808 76.5205C44.649 77.3719 48.7753 78.8618 50.3623 81.8418C51.1029 83.2253 51.2087 85.0346 51.3145 86.631C51.4203 87.9081 51.5261 89.0788 51.6319 90.3559C51.6319 90.4623 51.6319 90.6752 51.6319 90.7816C51.8435 93.9744 51.9493 97.2736 52.0551 100.466C52.0551 101.424 52.0551 111.215 51.9493 111.215Z" fill="url(#paint5_linear_1719_14493)"/>
<path opacity="0.4" d="M76.5996 92.0588V77.0527L83.4767 76.627L82.8419 98.5508L80.4085 90.9945L76.5996 92.0588Z" fill="url(#paint6_linear_1719_14493)"/>
<path opacity="0.2" d="M83.4767 98.5508L83.0535 111.216H76.5996V98.9765L83.4767 98.5508Z" fill="url(#paint7_linear_1719_14493)"/>
<path d="M119.661 81.7358C119.661 81.7358 121.777 87.0571 115.429 88.6535C112.149 89.5049 106.648 91.9527 103.368 90.8885C99.3475 89.6113 97.4431 85.6736 95.2213 81.8422C93.9517 79.7137 92.5762 77.6916 90.2486 77.2659C89.508 77.1594 88.8732 77.2659 88.3442 77.4787C86.4398 78.3301 85.2759 80.7779 84.5353 82.6936C83.5831 84.9286 83.0541 87.3764 83.0541 89.8242C83.1599 93.762 84.0063 97.5933 84.1121 101.531C84.1121 103.66 84.1121 105.788 83.9005 107.81C83.7947 108.875 83.7947 110.365 83.1599 111.322C83.1599 111.322 83.1599 111.322 83.0541 111.429H76.4944C77.4466 108.236 78.8221 103.447 77.0234 95.4648C75.8596 90.2499 76.0712 82.6936 79.8801 78.4366C81.8903 76.0952 85.2759 74.9245 88.3442 74.6052C89.4022 74.4988 90.4602 74.4988 91.3066 74.6052C96.5967 75.1373 99.6649 78.3301 101.781 81.8422C103.897 85.2479 106.859 91.7399 109.399 90.6756C111.938 89.6113 112.996 82.9065 112.996 82.9065L119.661 81.7358Z" fill="url(#paint8_linear_1719_14493)"/>
<path d="M20.3143 80.6713C20.1027 81.0971 19.9969 81.6292 20.1027 82.0549C20.2085 82.2678 20.3143 82.4807 20.4201 82.5871C20.5259 82.5871 20.6317 82.5871 20.7375 82.5871L20.4201 87.0572C19.9969 86.9508 19.6795 86.7379 19.3621 86.6315C17.8809 86.0993 16.5054 85.4607 15.13 84.6093C13.7546 83.7578 11.427 82.1614 11.5328 80.2456C11.6386 78.3299 14.8126 76.627 14.8126 76.627L22.4303 79.3942C22.2187 79.3942 21.5839 79.8199 21.3723 79.8199C20.9491 79.9263 20.5259 80.1392 20.3143 80.6713Z" fill="url(#paint9_linear_1719_14493)"/>
<path d="M51.6303 90.463L43.4836 92.4852C43.4836 90.3565 43.3778 88.1215 42.9546 85.9929C42.4256 82.9064 42.1082 78.9684 40.627 76.3076C40.9444 76.414 41.156 76.5205 41.4734 76.6269C44.5416 77.4784 48.6679 78.9684 50.2549 81.9485C50.9955 83.3321 51.1013 85.1414 51.2071 86.7379C51.4187 88.015 51.5245 89.1858 51.6303 90.463Z" fill="url(#paint10_linear_1719_14493)"/>
<path d="M42.2143 44.1667C42.7986 44.1667 43.2723 43.6902 43.2723 43.1024C43.2723 42.5146 42.7986 42.0381 42.2143 42.0381C41.6299 42.0381 41.1562 42.5146 41.1562 43.1024C41.1562 43.6902 41.6299 44.1667 42.2143 44.1667Z" fill="url(#paint11_linear_1719_14493)"/>
<path d="M44.225 43.422L10.3685 73.0086L0 65.9844L18.9384 41.7192L28.1432 24.2652L42.8496 0L52.0543 5.74703L44.225 43.422Z" fill="#CED7E8"/>
<path d="M42.8496 0L33.9622 36.93L0 65.9844L16.3992 28.5223L42.8496 0Z" fill="#E9EDF5"/>
<path d="M44.2256 43.422L33.9629 36.93L37.5601 21.8174L39.4646 13.8354L42.8502 0L52.0549 5.74703L48.9867 20.1146L47.5055 27.6709L44.2256 43.422Z" fill="#DAE1ED"/>
<path d="M47.5037 27.672L37.8758 21.6054L37.5584 21.8182L24.968 29.3749L21.4766 27.2462L39.2512 13.623L39.4628 13.8359L48.9849 20.1153L47.5037 27.672Z" fill="url(#paint12_linear_1719_14493)"/>
<path d="M23.2756 20.9659L25.8149 15.6446L28.7773 9.89757C29.0947 9.25901 29.9411 8.93973 30.5759 9.15258L35.4428 10.8554C36.2892 11.1747 36.7124 12.0261 36.2892 12.8775L35.4428 15.006C35.337 15.2189 35.1254 15.5382 34.9138 15.6446L25.0742 22.6687C24.8626 22.7752 24.651 22.988 24.5452 23.3073L21.1596 31.1829C21.0538 31.2893 21.0538 31.3957 20.948 31.5021C20.3132 32.2471 17.2449 35.9721 15.6579 39.4841C13.7535 43.6348 11.6375 46.934 10.4737 47.7854C10.262 47.9983 10.0504 48.1047 9.83884 48.2111C9.30984 48.5304 8.56923 48.5304 8.14602 48.1047L3.80816 44.4862C3.27916 44.0605 3.06755 43.2091 3.49076 42.5705C4.01977 41.7191 4.76038 40.5484 5.92419 39.2713C8.14602 36.8235 12.1665 33.6307 12.1665 33.6307L20.1016 27.0322C20.2074 26.9258 20.419 26.713 20.5248 26.5001L23.2756 20.9659Z" fill="url(#paint13_linear_1719_14493)"/>
<path d="M22.8529 24.0535C25.0747 22.457 28.2488 17.6676 30.9996 15.8583C33.7504 14.0489 39.7811 11.9203 42.3203 12.346C44.9654 12.6653 48.5626 12.9846 52.1599 15.8583C48.0336 16.4968 48.0336 16.4968 48.0336 16.4968L51.6309 20.4348C51.6309 20.4348 46.235 16.9226 41.0507 18.519C35.8665 20.1155 31.9518 22.5634 28.9894 24.3727C26.0269 26.1821 24.7573 27.0335 24.7573 27.0335L22.4297 26.0756L22.8529 24.0535Z" fill="url(#paint14_linear_1719_14493)"/>
<path d="M19.2557 27.2453C19.1499 27.4581 18.8325 27.5645 18.6209 27.5645C13.8598 27.8838 12.2728 27.5645 10.4742 27.0324C8.67554 26.5003 6.77112 26.0746 5.3957 26.8196C4.44349 27.2453 3.49127 27.8838 2.96227 28.2031C2.64486 28.416 2.53906 28.7352 2.53906 29.0545L2.85647 36.1851C2.85647 36.7172 3.27967 37.0365 3.80868 37.0365L7.93493 36.7172C8.04073 36.7172 8.25234 36.6108 8.35814 36.6108L17.1397 30.8638C17.2455 30.8638 17.2455 30.7573 17.3513 30.7573L21.2659 26.3939C21.3717 26.2874 21.3717 26.2874 21.3717 26.181L24.7574 19.2633C24.969 18.944 24.8632 18.5183 24.6516 18.3054C23.6993 17.2412 21.2659 14.7934 19.8905 13.0905C18.9383 11.9198 18.1977 11.2813 17.6687 10.962C17.2455 10.6427 16.7164 10.7492 16.5048 11.1749L11.2148 17.6669C11.0032 17.9862 11.0032 18.3054 11.109 18.6247C11.4264 19.2633 12.167 20.3275 13.6482 21.2854C15.4468 22.4561 18.3035 24.2653 19.7847 25.1167C20.2079 25.436 20.3137 25.9681 19.9963 26.3939L19.2557 27.2453Z" fill="url(#paint15_linear_1719_14493)"/>
<path d="M29.6247 56.1931L21.1606 47.8918L25.9217 27.1387L22.1128 27.8837L14.1777 53.8517L23.0651 61.8337" fill="url(#paint16_linear_1719_14493)"/>
<path d="M22.748 30.9706L19.0449 27.3519C19.0449 27.3519 20.6319 23.6268 21.69 22.7754C22.9596 23.8397 24.5466 26.7133 25.8162 27.0326C24.864 29.4806 23.7002 30.2256 23.7002 30.2256L22.748 30.9706Z" fill="url(#paint17_linear_1719_14493)"/>
<path d="M52.917 33.6181C53.0228 33.8309 53.2344 34.0438 53.446 33.9374C53.5518 33.9374 53.6576 33.8309 53.7634 33.7245L54.7157 31.9152C54.9273 31.4895 55.2447 31.2766 55.6679 31.1702L57.5723 30.7444C57.7839 30.638 57.9955 30.4251 57.8897 30.2123C57.8897 30.1059 57.7839 29.9994 57.6781 29.893L55.8795 28.9351C55.4563 28.7222 55.2447 28.403 55.1389 27.9772L54.7157 26.0615C54.6098 25.8486 54.3982 25.6357 54.1866 25.7422C54.0808 25.7422 53.975 25.8486 53.8692 25.955L52.917 27.7644C52.7054 28.1901 52.388 28.403 51.9648 28.5094L50.0604 28.9351C49.8488 29.0415 49.6372 29.2544 49.743 29.4673C49.743 29.5737 49.8488 29.6801 49.9546 29.7866L51.7532 30.7444C52.1764 30.9573 52.388 31.2766 52.4938 31.7023L52.917 33.6181Z" fill="url(#paint18_linear_1719_14493)"/>
<path d="M84.6299 31.0468C84.7357 31.2597 84.9473 31.4725 85.1589 31.3661C85.2647 31.3661 85.3705 31.2597 85.4763 31.1532L86.4285 29.3439C86.6401 28.9182 86.9575 28.7053 87.3808 28.5989L89.2852 28.1732C89.4968 28.0667 89.7084 27.8539 89.6026 27.641C89.6026 27.5346 89.4968 27.4281 89.391 27.3217L87.5924 26.3638C87.1692 26.151 86.9575 25.8317 86.8517 25.4059L86.4285 23.4902C86.3227 23.2773 86.1111 23.0645 85.8995 23.1709C85.7937 23.1709 85.6879 23.2773 85.5821 23.3838L84.6299 25.1931C84.4183 25.6188 84.1009 25.8317 83.6777 25.9381L81.7733 26.3638C81.5617 26.4703 81.3501 26.6831 81.4559 26.896C81.4559 27.0024 81.5617 27.1088 81.6675 27.2153L83.4661 28.1732C83.8893 28.386 84.1009 28.7053 84.2067 29.131L84.6299 31.0468Z" fill="url(#paint19_linear_1719_14493)"/>
<path d="M73.4255 36.0784C73.3197 36.2913 73.4255 36.5041 73.6371 36.6106C73.7429 36.6106 73.8487 36.6106 73.9545 36.6106L75.4357 35.6527C75.7531 35.4398 76.1763 35.4398 76.4937 35.5462L78.1866 36.0784C78.3982 36.1848 78.6098 36.0784 78.7156 35.8655C78.7156 35.7591 78.7156 35.6527 78.7156 35.5462L77.7633 34.0562C77.5517 33.7369 77.5517 33.3112 77.6575 32.9919L78.1866 31.289C78.2924 31.0761 78.1865 30.8633 77.9749 30.7568C77.8691 30.7568 77.7633 30.7568 77.6575 30.7568L76.1763 31.7147C75.8589 31.9276 75.4357 31.9276 75.1183 31.8211L73.4255 31.289C73.2139 31.1826 73.0023 31.3954 72.8965 31.5019C72.8965 31.6083 72.8965 31.7147 72.8965 31.8211L73.8487 33.3112C74.0603 33.6305 74.0603 34.0562 73.9545 34.3755L73.4255 36.0784Z" fill="#7917CE"/>
<path d="M59.6716 41.8597C59.5658 42.0725 59.6716 42.2854 59.8832 42.2854C59.989 42.2854 60.0948 42.2854 60.2006 42.2854L61.576 41.434C61.8934 41.2211 62.2108 41.2211 62.5282 41.3275L64.1152 41.7533C64.3268 41.8597 64.5384 41.7533 64.5384 41.5404C64.5384 41.434 64.5384 41.3275 64.5384 41.2211L63.692 39.8375C63.4804 39.5182 63.4804 39.1989 63.5862 38.8796L64.0094 37.2831C64.1152 37.0703 64.0094 36.8574 63.7978 36.8574C63.692 36.8574 63.5862 36.8574 63.4804 36.8574L62.105 37.7089C61.7876 37.9217 61.4702 37.9217 61.1528 37.8153L59.5658 37.3896C59.3542 37.2831 59.1426 37.3896 59.1426 37.6024C59.1426 37.7089 59.1426 37.8153 59.1426 37.9217L59.989 39.3053C60.2006 39.6246 60.2006 39.9439 60.0948 40.2632L59.6716 41.8597Z" fill="#7917CE"/>
<path d="M71.6716 23.0023C71.5658 23.2151 71.6716 23.428 71.8832 23.428C71.989 23.428 72.0948 23.428 72.2006 23.428L73.576 22.5765C73.8934 22.3637 74.2108 22.3637 74.5282 22.4701L76.1152 22.8958C76.3268 23.0023 76.5384 22.8958 76.5384 22.683C76.5384 22.5765 76.5384 22.4701 76.5384 22.3637L75.692 20.9801C75.4804 20.6608 75.4804 20.3415 75.5862 20.0222L76.0094 18.4257C76.1152 18.2129 76.0094 18 75.7978 18C75.692 18 75.5862 18 75.4804 18L74.105 18.8515C73.7876 19.0643 73.4702 19.0643 73.1528 18.9579L71.5658 18.5322C71.3542 18.4257 71.1426 18.5322 71.1426 18.745C71.1426 18.8515 71.1426 18.9579 71.1426 19.0643L71.989 20.4479C72.2006 20.7672 72.2006 21.0865 72.0948 21.4058L71.6716 23.0023Z" fill="#7917CE"/>
<path d="M85.598 40.3527C85.4922 40.5656 85.7038 40.7784 85.9154 40.8849C86.0212 40.8849 86.127 40.8849 86.2328 40.8849L87.9257 39.8206C88.2431 39.6077 88.6663 39.5013 89.0895 39.6077L90.9939 40.1398C91.2055 40.2463 91.4171 40.0334 91.5229 39.8206C91.5229 39.7141 91.5229 39.6077 91.5229 39.5013L90.4649 37.7984C90.1475 37.5855 90.1475 37.0533 90.2533 36.734L90.7823 34.8183C90.8881 34.6054 90.6765 34.3926 90.4649 34.2861C90.3591 34.2861 90.2533 34.2861 90.1475 34.2861L88.4547 35.3504C88.1373 35.5633 87.7141 35.6697 87.2909 35.5633L85.3864 35.0312C85.1748 34.9247 84.9632 35.1376 84.8574 35.3504C84.8574 35.4569 84.8574 35.5633 84.8574 35.6697L85.9154 37.3726C86.127 37.6919 86.2328 38.1177 86.127 38.5434L85.598 40.3527Z" fill="#7917CE"/>
<path d="M63.3129 31.7804C63.2071 31.9933 63.4187 32.2062 63.6303 32.3126C63.7361 32.3126 63.8419 32.3126 63.9477 32.3126L65.6405 31.2483C65.9579 31.0354 66.3811 30.929 66.8043 31.0354L68.7087 31.5676C68.9204 31.674 69.132 31.4612 69.2378 31.2483C69.2378 31.1419 69.2378 31.0354 69.2378 30.929L68.1797 29.2261C67.8623 29.0132 67.8623 28.4811 67.9681 28.1618L68.4971 26.246C68.6029 26.0332 68.3913 25.8203 68.1797 25.7139C68.0739 25.7139 67.9681 25.7139 67.8623 25.7139L66.1695 26.7782C65.8521 26.991 65.4289 27.0975 65.0057 26.991L63.1013 26.4589C62.8897 26.3525 62.6781 26.5653 62.5723 26.7782C62.5723 26.8846 62.5723 26.991 62.5723 27.0975L63.6303 28.8004C63.8419 29.1197 63.9477 29.5454 63.8419 29.9711L63.3129 31.7804Z" fill="url(#paint20_linear_1719_14493)"/>
<path d="M11.4258 111.216H106.647" stroke="#B1B9CC" stroke-width="2" stroke-miterlimit="10" stroke-linecap="round" stroke-linejoin="round"/>
<path d="M3.70312 111.216H7.72358" stroke="#B1B9CC" stroke-width="2" stroke-miterlimit="10" stroke-linecap="round" stroke-linejoin="round"/>
<defs>
<linearGradient id="paint0_linear_1719_14493" x1="43.6223" y1="51.784" x2="54.7783" y2="48.7461" gradientUnits="userSpaceOnUse">
<stop stop-color="#FFA34E"/>
<stop offset="1" stop-color="#FFA34E"/>
</linearGradient>
<linearGradient id="paint1_linear_1719_14493" x1="67.8536" y1="60.4421" x2="72.9343" y2="49.9568" gradientUnits="userSpaceOnUse">
<stop stop-color="#FFA34E"/>
<stop offset="1" stop-color="#FFA34E"/>
</linearGradient>
<linearGradient id="paint2_linear_1719_14493" x1="81.0638" y1="88.314" x2="92.5135" y2="110.554" gradientUnits="userSpaceOnUse">
<stop offset="0.00289017" stop-color="#606673" stop-opacity="0"/>
<stop offset="1" stop-color="#373C47"/>
</linearGradient>
<linearGradient id="paint3_linear_1719_14493" x1="11.5574" y1="81.1361" x2="40.6036" y2="81.1361" gradientUnits="userSpaceOnUse">
<stop stop-color="#FFA34E"/>
<stop offset="1" stop-color="#FBBD00"/>
</linearGradient>
<linearGradient id="paint4_linear_1719_14493" x1="47.2603" y1="74.103" x2="48.111" y2="95.7899" gradientUnits="userSpaceOnUse">
<stop offset="0.00289017" stop-color="#606673" stop-opacity="0"/>
<stop offset="1" stop-color="#373C47"/>
</linearGradient>
<linearGradient id="paint5_linear_1719_14493" x1="44.8498" y1="91.2256" x2="39.7147" y2="78.0257" gradientUnits="userSpaceOnUse">
<stop stop-color="#FFA34E"/>
<stop offset="1" stop-color="#FBBD00"/>
</linearGradient>
<linearGradient id="paint6_linear_1719_14493" x1="79.7504" y1="76.9831" x2="80.4314" y2="94.3435" gradientUnits="userSpaceOnUse">
<stop offset="0.00289017" stop-color="#606673" stop-opacity="0"/>
<stop offset="1" stop-color="#373C47"/>
</linearGradient>
<linearGradient id="paint7_linear_1719_14493" x1="79.7941" y1="98.8285" x2="80.1888" y2="108.893" gradientUnits="userSpaceOnUse">
<stop offset="0.00289017" stop-color="#606673" stop-opacity="0"/>
<stop offset="1" stop-color="#373C47"/>
</linearGradient>
<linearGradient id="paint8_linear_1719_14493" x1="76.4949" y1="92.8025" x2="120.001" y2="92.8025" gradientUnits="userSpaceOnUse">
<stop stop-color="#FFA34E"/>
<stop offset="1" stop-color="#FBBD00"/>
</linearGradient>
<linearGradient id="paint9_linear_1719_14493" x1="19.216" y1="77.9055" x2="15.3288" y2="84.4508" gradientUnits="userSpaceOnUse">
<stop stop-color="#FFA34E" stop-opacity="0.38"/>
<stop offset="0.4964" stop-color="#FBBD00"/>
<stop offset="1" stop-color="#FFA34E" stop-opacity="0.49"/>
</linearGradient>
<linearGradient id="paint10_linear_1719_14493" x1="47.9617" y1="90.015" x2="42.8262" y2="76.8146" gradientUnits="userSpaceOnUse">
<stop stop-color="#FFA34E"/>
<stop offset="1" stop-color="#FBBD00"/>
</linearGradient>
<linearGradient id="paint11_linear_1719_14493" x1="42.1273" y1="42.0115" x2="42.2455" y2="44.211" gradientUnits="userSpaceOnUse">
<stop stop-color="#83A6FF"/>
<stop offset="1" stop-color="#5A78FF"/>
</linearGradient>
<linearGradient id="paint12_linear_1719_14493" x1="40.5874" y1="14.5784" x2="33.6137" y2="29.1357" gradientUnits="userSpaceOnUse">
<stop stop-color="#FFA34E"/>
<stop offset="1" stop-color="#FBBD00"/>
</linearGradient>
<linearGradient id="paint13_linear_1719_14493" x1="6.79513" y1="47.0948" x2="33.2607" y2="9.36374" gradientUnits="userSpaceOnUse">
<stop stop-color="#FFA34E"/>
<stop offset="1" stop-color="#FBBD00"/>
</linearGradient>
<linearGradient id="paint14_linear_1719_14493" x1="30.7051" y1="31.6945" x2="45.2592" y2="10.9461" gradientUnits="userSpaceOnUse">
<stop stop-color="#FFA34E"/>
<stop offset="1" stop-color="#FBBD00"/>
</linearGradient>
<linearGradient id="paint15_linear_1719_14493" x1="-28.0221" y1="-30.7004" x2="-11.7859" y2="-8.48345" gradientUnits="userSpaceOnUse">
<stop offset="0.331861" stop-color="#FFA34E"/>
<stop offset="1" stop-color="#FBBD00"/>
</linearGradient>
<linearGradient id="paint16_linear_1719_14493" x1="16.1854" y1="61.1177" x2="27.4655" y2="39.2048" gradientUnits="userSpaceOnUse">
<stop stop-color="#FBBD00"/>
<stop offset="1" stop-color="#FFA34E"/>
</linearGradient>
<linearGradient id="paint17_linear_1719_14493" x1="20.7616" y1="29.6111" x2="24.2583" y2="24.6263" gradientUnits="userSpaceOnUse">
<stop stop-color="#FBBD00"/>
<stop offset="1" stop-color="#FFA34E"/>
</linearGradient>
<linearGradient id="paint18_linear_1719_14493" x1="51.4003" y1="31.7707" x2="56.1854" y2="28.0327" gradientUnits="userSpaceOnUse">
<stop stop-color="#FFA34E"/>
<stop offset="1" stop-color="#FFA34E"/>
</linearGradient>
<linearGradient id="paint19_linear_1719_14493" x1="83.0731" y1="29.1359" x2="87.8582" y2="25.3979" gradientUnits="userSpaceOnUse">
<stop stop-color="#FFA34E"/>
<stop offset="1" stop-color="#FFA34E"/>
</linearGradient>
<linearGradient id="paint20_linear_1719_14493" x1="63.9092" y1="30.5065" x2="67.7501" y2="27.4577" gradientUnits="userSpaceOnUse">
<stop stop-color="#FFA34E"/>
<stop offset="1" stop-color="#FFA34E"/>
</linearGradient>
</defs>
</svg>
