<svg width="110" height="35" viewBox="0 0 110 35" fill="none" xmlns="http://www.w3.org/2000/svg">
<rect x="0.0966797" width="109.516" height="35" rx="17.5" fill="black"/>
<rect x="4.61328" y="4.51611" width="27.0968" height="27.0968" rx="13.5484" fill="white"/>
<path d="M50.1064 17.51H47.4062L48.7588 14.2092L50.1064 17.51ZM50.4092 18.2131L51.21 20.1614H52.0059L49.1055 13.1594H48.4072L45.5068 20.1614H46.3076L47.1084 18.2131H50.4092ZM53.71 17.7639C53.71 17.2708 53.8809 16.8411 54.2324 16.47C54.584 16.0989 54.9746 15.9133 55.4092 15.9133C55.8193 15.9133 56.1904 16.094 56.5176 16.4553C56.8447 16.8167 57.0107 17.2512 57.0107 17.7639C57.0107 18.2766 56.8447 18.7112 56.5176 19.0725C56.1904 19.4338 55.8193 19.6096 55.4092 19.6096C54.9746 19.6096 54.584 19.429 54.2324 19.0579C53.8809 18.6868 53.71 18.2571 53.71 17.7639ZM53.71 19.4094L53.7783 19.5022C53.8271 19.5608 53.8955 19.634 53.9932 19.717C54.0908 19.8 54.2031 19.8831 54.335 19.9612C54.4619 20.0442 54.623 20.1125 54.8135 20.1711C55.0039 20.2297 55.2041 20.259 55.4092 20.259C56.0244 20.259 56.5615 20.0149 57.0205 19.5266C57.4795 19.0383 57.709 18.4475 57.709 17.7639C57.709 17.0803 57.4746 16.4895 57.0156 16.0012C56.5566 15.5081 56.0195 15.2639 55.4092 15.2639C55.2041 15.2639 55.0039 15.2932 54.8086 15.3518C54.6133 15.4104 54.457 15.4788 54.335 15.5569C54.208 15.635 54.0957 15.7229 53.9883 15.8206C53.8809 15.9182 53.8125 15.9866 53.7783 16.0256C53.7441 16.0647 53.7197 16.0989 53.71 16.1184V15.3665H53.0117V22.2659H53.71V19.4094ZM59.6572 17.7639C59.6572 17.2708 59.8281 16.8411 60.1797 16.47C60.5312 16.0989 60.9219 15.9133 61.3564 15.9133C61.7666 15.9133 62.1377 16.094 62.4648 16.4553C62.792 16.8167 62.958 17.2512 62.958 17.7639C62.958 18.2766 62.792 18.7112 62.4648 19.0725C62.1377 19.4338 61.7666 19.6096 61.3564 19.6096C60.9219 19.6096 60.5312 19.429 60.1797 19.0579C59.8281 18.6868 59.6572 18.2571 59.6572 17.7639ZM59.6572 19.4094L59.7256 19.5022C59.7744 19.5608 59.8428 19.634 59.9404 19.717C60.0381 19.8 60.1504 19.8831 60.2822 19.9612C60.4092 20.0442 60.5703 20.1125 60.7607 20.1711C60.9512 20.2297 61.1514 20.259 61.3564 20.259C61.9717 20.259 62.5088 20.0149 62.9678 19.5266C63.4268 19.0383 63.6562 18.4475 63.6562 17.7639C63.6562 17.0803 63.4219 16.4895 62.9629 16.0012C62.5039 15.5081 61.9668 15.2639 61.3564 15.2639C61.1514 15.2639 60.9512 15.2932 60.7559 15.3518C60.5605 15.4104 60.4043 15.4788 60.2822 15.5569C60.1553 15.635 60.043 15.7229 59.9355 15.8206C59.8281 15.9182 59.7598 15.9866 59.7256 16.0256C59.6914 16.0647 59.667 16.0989 59.6572 16.1184V15.3665H58.959V22.2659H59.6572V19.4094ZM65.6533 13.1594H64.9551V20.1614H65.6533V13.1594ZM71.5566 18.0227L71.6055 17.6614C71.6055 16.968 71.3857 16.3967 70.9463 15.9426C70.5068 15.4885 69.96 15.259 69.3057 15.259C68.6709 15.259 68.124 15.5032 67.6553 15.9915C67.1865 16.4797 66.957 17.0657 66.957 17.759C66.957 18.4524 67.1914 19.0432 67.665 19.5315C68.1338 20.0198 68.7002 20.259 69.3545 20.259C69.5938 20.259 69.8281 20.2249 70.0576 20.1516C70.2871 20.0784 70.4727 20.0002 70.6191 19.9124C70.7656 19.8245 70.8975 19.7268 71.0244 19.6145C71.1514 19.5022 71.2295 19.4241 71.2686 19.3752C71.3076 19.3264 71.3369 19.2922 71.3564 19.2629L70.9072 18.8137L70.7363 19.009C70.6289 19.1458 70.4434 19.2776 70.1895 19.4094C69.9307 19.5461 69.6523 19.6096 69.3545 19.6096C68.9053 19.6096 68.5195 19.4534 68.1875 19.136C67.8555 18.8235 67.6797 18.4475 67.6553 18.0129L71.5566 18.0227ZM69.3057 15.9133C69.7256 15.9133 70.082 16.0549 70.3799 16.3381C70.6777 16.6213 70.8535 16.9827 70.9072 17.4124H67.6553C67.709 17.0071 67.8945 16.6555 68.207 16.3577C68.5195 16.0647 68.8857 15.9133 69.3057 15.9133Z" fill="white"/>
<g clip-path="url(#clip0_1719_12701)">
<path d="M19.9244 11.2903C19.2623 11.3361 18.4884 11.7599 18.0375 12.3118C17.6261 12.8124 17.2876 13.556 17.4196 14.2787C18.143 14.3012 18.8905 13.8673 19.3236 13.3061C19.7288 12.7837 20.0354 12.0448 19.9244 11.2903Z" fill="black"/>
<path d="M22.5407 15.457C21.905 14.6599 21.0116 14.1973 20.1679 14.1973C19.054 14.1973 18.5828 14.7305 17.809 14.7305C17.011 14.7305 16.4048 14.1988 15.4415 14.1988C14.4953 14.1988 13.4878 14.7771 12.849 15.766C11.9509 17.1585 12.1046 19.7766 13.56 22.0067C14.0809 22.8046 14.7763 23.7019 15.686 23.7097C16.4956 23.7174 16.7238 23.1904 17.8206 23.1849C18.9174 23.1787 19.1254 23.7166 19.9334 23.7081C20.8439 23.7011 21.5774 22.7068 22.0983 21.9089C22.4716 21.3368 22.6106 21.0488 22.9001 20.403C20.7943 19.6012 20.4566 16.6066 22.5407 15.457Z" fill="black"/>
</g>
<defs>
<clipPath id="clip0_1719_12701">
<rect width="12.4194" height="12.4194" fill="white" transform="translate(11.3867 11.2903)"/>
</clipPath>
</defs>
</svg>
