<svg width="110" height="35" viewBox="0 0 110 35" fill="none" xmlns="http://www.w3.org/2000/svg">
<rect width="109.516" height="35" rx="17.5" fill="#3C79E6"/>
<rect x="4.5166" y="4.51611" width="27.0968" height="27.0968" rx="13.5484" fill="white"/>
<path d="M42.8242 13.1594V20.1614H43.5762V16.9631H46.7744V16.26H43.5762V13.8625H47.5752V13.1594H42.8242ZM49.2305 17.4124C48.7764 17.4905 48.4297 17.6516 48.1904 17.8958C47.9463 18.1399 47.8291 18.4622 47.8291 18.8625C47.8291 19.2288 47.9902 19.551 48.3174 19.8342C48.6445 20.1174 49.0498 20.259 49.5283 20.259C49.7188 20.259 49.9043 20.2346 50.085 20.1809C50.2656 20.1321 50.4121 20.0735 50.5244 20.0051C50.6318 19.9368 50.7344 19.8635 50.832 19.7756C50.9297 19.6877 50.9883 19.6292 51.0176 19.595C51.0469 19.5608 51.0664 19.5315 51.0811 19.512V20.1614H51.7793V17.1096C51.7793 16.5872 51.5986 16.1477 51.2373 15.7913C50.876 15.4397 50.4268 15.259 49.8799 15.259C49.665 15.259 49.4502 15.2932 49.2451 15.3567C49.04 15.4202 48.874 15.4934 48.7471 15.5715C48.6201 15.6545 48.498 15.7473 48.3809 15.8499C48.2637 15.9524 48.1904 16.0256 48.1562 16.0647C48.1221 16.1038 48.0977 16.1379 48.0781 16.1624L48.5273 16.6116L48.6787 16.4407C48.7764 16.3235 48.9375 16.2063 49.1621 16.0891C49.3867 15.9719 49.626 15.9133 49.8799 15.9133C50.2314 15.9133 50.5195 16.0256 50.7441 16.2454C50.9688 16.47 51.0811 16.7581 51.0811 17.1096L49.2305 17.4124ZM49.5283 19.6096C49.2158 19.6096 48.9668 19.5413 48.791 19.3997C48.6152 19.2581 48.5273 19.0774 48.5273 18.8625C48.5273 18.4133 48.8301 18.1301 49.4307 18.0129L51.0811 17.7102V18.0129C51.0811 18.4866 50.9346 18.8723 50.6416 19.1653C50.3486 19.4631 49.9775 19.6096 49.5283 19.6096ZM53.0244 17.759C53.0244 18.4524 53.2588 19.0432 53.7324 19.5315C54.2012 20.0198 54.7676 20.259 55.4219 20.259C55.6562 20.259 55.8857 20.2249 56.1104 20.1516C56.335 20.0784 56.5205 20.0002 56.6621 19.9124C56.8086 19.8245 56.9453 19.7268 57.0723 19.6145C57.2041 19.5022 57.292 19.4241 57.3311 19.3752C57.3701 19.3264 57.3994 19.2922 57.4189 19.2629L56.9209 18.8137L56.7598 19.009C56.6475 19.1458 56.4668 19.2776 56.2178 19.4094C55.9639 19.5461 55.7002 19.6096 55.4219 19.6096C54.9629 19.6096 54.5625 19.4338 54.2256 19.0774C53.8887 18.7209 53.7227 18.2815 53.7227 17.7639C53.7227 17.2463 53.8887 16.8069 54.2256 16.4504C54.5625 16.094 54.9629 15.9133 55.4219 15.9133C55.6025 15.9133 55.7783 15.9426 55.9443 15.9963C56.1104 16.0549 56.2422 16.1184 56.3496 16.1868C56.4521 16.2551 56.5498 16.3381 56.6377 16.4309C56.7256 16.5286 56.7842 16.592 56.8086 16.6262C56.8379 16.6653 56.8574 16.6897 56.8672 16.7092L57.3701 16.2112L57.1602 15.9817C57.0234 15.8254 56.7891 15.6643 56.4668 15.5032C56.1445 15.342 55.793 15.259 55.417 15.259C54.7676 15.259 54.2061 15.5032 53.7324 15.9915C53.2588 16.4797 53.0244 17.0657 53.0244 17.759ZM62.7705 18.0227L62.8193 17.6614C62.8193 16.968 62.5996 16.3967 62.1602 15.9426C61.7207 15.4885 61.1738 15.259 60.5195 15.259C59.8848 15.259 59.3379 15.5032 58.8691 15.9915C58.4004 16.4797 58.1709 17.0657 58.1709 17.759C58.1709 18.4524 58.4053 19.0432 58.8789 19.5315C59.3477 20.0198 59.9141 20.259 60.5684 20.259C60.8076 20.259 61.042 20.2249 61.2715 20.1516C61.501 20.0784 61.6865 20.0002 61.833 19.9124C61.9795 19.8245 62.1113 19.7268 62.2383 19.6145C62.3652 19.5022 62.4434 19.4241 62.4824 19.3752C62.5215 19.3264 62.5508 19.2922 62.5703 19.2629L62.1211 18.8137L61.9502 19.009C61.8428 19.1458 61.6572 19.2776 61.4033 19.4094C61.1445 19.5461 60.8662 19.6096 60.5684 19.6096C60.1191 19.6096 59.7334 19.4534 59.4014 19.136C59.0693 18.8235 58.8936 18.4475 58.8691 18.0129L62.7705 18.0227ZM60.5195 15.9133C60.9395 15.9133 61.2959 16.0549 61.5938 16.3381C61.8916 16.6213 62.0674 16.9827 62.1211 17.4124H58.8691C58.9229 17.0071 59.1084 16.6555 59.4209 16.3577C59.7334 16.0647 60.0996 15.9133 60.5195 15.9133ZM64.8164 17.7639C64.8164 17.2708 64.9873 16.8411 65.3389 16.47C65.6904 16.0989 66.0811 15.9133 66.5156 15.9133C66.9258 15.9133 67.2969 16.094 67.624 16.4553C67.9512 16.8167 68.1172 17.2512 68.1172 17.7639C68.1172 18.2766 67.9512 18.7112 67.624 19.0725C67.2969 19.4338 66.9258 19.6096 66.5156 19.6096C66.0811 19.6096 65.6904 19.429 65.3389 19.0579C64.9873 18.6868 64.8164 18.2571 64.8164 17.7639ZM64.8164 13.1594H64.1182V20.1614H64.8164V19.4094L64.8896 19.5022C64.9336 19.5608 65.002 19.634 65.0996 19.717C65.1973 19.8 65.3096 19.8831 65.4414 19.9612C65.5684 20.0442 65.7295 20.1125 65.9199 20.1711C66.1104 20.2297 66.3105 20.259 66.5156 20.259C67.1309 20.259 67.668 20.0149 68.127 19.5266C68.5859 19.0383 68.8154 18.4475 68.8154 17.7639C68.8154 17.0803 68.5811 16.4895 68.1221 16.0012C67.6631 15.5081 67.126 15.2639 66.5156 15.2639C66.3105 15.2639 66.1104 15.2932 65.915 15.3518C65.7197 15.4104 65.5635 15.4788 65.4414 15.5569C65.3145 15.635 65.2021 15.7229 65.0947 15.8206C64.9873 15.9182 64.9189 15.9866 64.8848 16.0256C64.8506 16.0647 64.8262 16.0989 64.8164 16.1184V13.1594ZM73.9131 17.7639C73.9131 18.2815 73.7373 18.7209 73.3955 19.0774C73.0537 19.4338 72.6387 19.6096 72.1602 19.6096C71.6816 19.6096 71.2666 19.4338 70.9248 19.0725C70.583 18.7112 70.4121 18.2766 70.4121 17.759C70.4121 17.2415 70.583 16.8069 70.9248 16.4504C71.2666 16.094 71.6816 15.9133 72.1602 15.9133C72.6387 15.9133 73.0537 16.094 73.3955 16.4504C73.7373 16.8069 73.9131 17.2463 73.9131 17.7639ZM69.7139 17.7639C69.7139 18.467 69.9482 19.0579 70.4268 19.5413C70.9053 20.0198 71.4814 20.2639 72.165 20.2639C72.8438 20.2639 73.4199 20.0198 73.8936 19.5413C74.3721 19.0579 74.6064 18.467 74.6064 17.7639C74.6064 17.0608 74.3721 16.47 73.8936 15.9866C73.4199 15.5032 72.8438 15.259 72.165 15.259C71.4814 15.259 70.9053 15.5032 70.4268 15.9866C69.9482 16.47 69.7139 17.0608 69.7139 17.7639ZM79.7139 17.7639C79.7139 18.2815 79.5381 18.7209 79.1963 19.0774C78.8545 19.4338 78.4395 19.6096 77.9609 19.6096C77.4824 19.6096 77.0674 19.4338 76.7256 19.0725C76.3838 18.7112 76.2129 18.2766 76.2129 17.759C76.2129 17.2415 76.3838 16.8069 76.7256 16.4504C77.0674 16.094 77.4824 15.9133 77.9609 15.9133C78.4395 15.9133 78.8545 16.094 79.1963 16.4504C79.5381 16.8069 79.7139 17.2463 79.7139 17.7639ZM75.5146 17.7639C75.5146 18.467 75.749 19.0579 76.2275 19.5413C76.7061 20.0198 77.2822 20.2639 77.9658 20.2639C78.6445 20.2639 79.2207 20.0198 79.6943 19.5413C80.1729 19.0579 80.4072 18.467 80.4072 17.7639C80.4072 17.0608 80.1729 16.47 79.6943 15.9866C79.2207 15.5032 78.6445 15.259 77.9658 15.259C77.2822 15.259 76.7061 15.5032 76.2275 15.9866C75.749 16.47 75.5146 17.0608 75.5146 17.7639ZM82.4141 18.8137L83.3662 17.8127L85.0654 20.1614H85.8662L83.8154 17.3098L85.666 15.3616H84.8164L82.4141 17.9104V13.1594H81.7158V20.1614H82.4141V18.8137Z" fill="white"/>
<path d="M18.0642 11.2903C14.3231 11.2903 11.29 14.3417 11.29 18.1054C11.29 21.5064 13.7669 24.3254 17.006 24.8387V20.0758H15.2852V18.1054H17.006V16.6039C17.006 14.8945 18.0175 13.9518 19.5642 13.9518C20.3054 13.9518 21.0818 14.0848 21.0818 14.0848V15.7607H20.2254C19.3853 15.7607 19.1225 16.2869 19.1225 16.826V18.104H20.9998L20.6997 20.0744H19.1225V24.8373C22.3615 24.3268 24.8384 21.5071 24.8384 18.1054C24.8384 14.3417 21.8053 11.2903 18.0642 11.2903Z" fill="#3C79E6"/>
</svg>
