<svg width="111" height="35" viewBox="0 0 111 35" fill="none" xmlns="http://www.w3.org/2000/svg">
<rect x="1.04883" y="0.5" width="108.516" height="34" rx="17" fill="#F5F5F5" stroke="#E0E0E0"/>
<rect x="5.06543" y="4.51611" width="27.0968" height="27.0968" rx="13.5484" fill="white"/>
<path d="M41.7949 17.7893C41.7949 18.7903 42.1416 19.6399 42.8447 20.3381C43.543 21.0413 44.3926 21.3879 45.3936 21.3879C45.7451 21.3879 46.0918 21.3391 46.4287 21.2366C46.7656 21.134 47.0391 21.0168 47.2539 20.885C47.4688 20.7581 47.6689 20.6067 47.8545 20.4407C48.04 20.2747 48.1572 20.1624 48.2158 20.0989C48.2744 20.0354 48.3135 19.9817 48.3428 19.9426V17.6917H45.9941V18.3899H47.5957V19.7424L47.5127 19.8401C47.459 19.9084 47.3711 19.9915 47.249 20.0793C47.1221 20.1672 46.9805 20.26 46.8193 20.3528C46.6533 20.4456 46.4482 20.5237 46.1943 20.592C45.9404 20.6604 45.6719 20.6897 45.3936 20.6897C44.5928 20.6897 43.9141 20.4114 43.3672 19.8547C42.8154 19.2981 42.542 18.6096 42.542 17.7893C42.542 16.969 42.8154 16.2805 43.3672 15.7239C43.9141 15.1672 44.5928 14.8889 45.3936 14.8889C45.6914 14.8889 45.9795 14.9329 46.2529 15.0208C46.5264 15.1086 46.7461 15.2063 46.9121 15.3137C47.0781 15.4211 47.2344 15.5383 47.3809 15.675C47.5225 15.8118 47.6152 15.9094 47.6543 15.9631C47.6934 16.0168 47.7227 16.0608 47.7422 16.0901L48.2451 15.6409L48.1328 15.4895C48.0596 15.3918 47.9424 15.2698 47.7812 15.1233C47.6201 14.9817 47.4346 14.8401 47.2197 14.6985C47.0049 14.5618 46.7363 14.4397 46.4092 14.342C46.0869 14.2444 45.7451 14.1907 45.3887 14.1907C44.3926 14.1907 43.543 14.5422 42.8398 15.2405C42.1416 15.9436 41.7949 16.7932 41.7949 17.7893ZM53.7432 18.8928C53.7432 19.4104 53.5674 19.8499 53.2256 20.2063C52.8838 20.5627 52.4688 20.7385 51.9902 20.7385C51.5117 20.7385 51.0967 20.5627 50.7549 20.2014C50.4131 19.8401 50.2422 19.4055 50.2422 18.8879C50.2422 18.3704 50.4131 17.9358 50.7549 17.5793C51.0967 17.2229 51.5117 17.0422 51.9902 17.0422C52.4688 17.0422 52.8838 17.2229 53.2256 17.5793C53.5674 17.9358 53.7432 18.3752 53.7432 18.8928ZM49.5439 18.8928C49.5439 19.5959 49.7783 20.1868 50.2568 20.6702C50.7354 21.1487 51.3115 21.3928 51.9951 21.3928C52.6738 21.3928 53.25 21.1487 53.7236 20.6702C54.2021 20.1868 54.4365 19.5959 54.4365 18.8928C54.4365 18.1897 54.2021 17.5989 53.7236 17.1155C53.25 16.6321 52.6738 16.3879 51.9951 16.3879C51.3115 16.3879 50.7354 16.6321 50.2568 17.1155C49.7783 17.5989 49.5439 18.1897 49.5439 18.8928ZM59.5439 18.8928C59.5439 19.4104 59.3682 19.8499 59.0264 20.2063C58.6846 20.5627 58.2695 20.7385 57.791 20.7385C57.3125 20.7385 56.8975 20.5627 56.5557 20.2014C56.2139 19.8401 56.043 19.4055 56.043 18.8879C56.043 18.3704 56.2139 17.9358 56.5557 17.5793C56.8975 17.2229 57.3125 17.0422 57.791 17.0422C58.2695 17.0422 58.6846 17.2229 59.0264 17.5793C59.3682 17.9358 59.5439 18.3752 59.5439 18.8928ZM55.3447 18.8928C55.3447 19.5959 55.5791 20.1868 56.0576 20.6702C56.5361 21.1487 57.1123 21.3928 57.7959 21.3928C58.4746 21.3928 59.0508 21.1487 59.5244 20.6702C60.0029 20.1868 60.2373 19.5959 60.2373 18.8928C60.2373 18.1897 60.0029 17.5989 59.5244 17.1155C59.0508 16.6321 58.4746 16.3879 57.7959 16.3879C57.1123 16.3879 56.5361 16.6321 56.0576 17.1155C55.5791 17.5989 55.3447 18.1897 55.3447 18.8928ZM64.9932 20.9924C64.9932 21.4905 64.8271 21.9055 64.5049 22.2375C64.1826 22.5745 63.792 22.7405 63.3428 22.7405C63.1572 22.7405 62.9766 22.7161 62.8008 22.6575C62.625 22.5989 62.4785 22.5354 62.3711 22.467C62.2588 22.3987 62.1514 22.3157 62.0537 22.2229C61.9561 22.1301 61.8877 22.0667 61.8584 22.0276C61.8291 21.9885 61.8047 21.9592 61.7949 21.9397L61.3457 22.3889L61.4238 22.4915C61.4727 22.5647 61.5508 22.6477 61.6631 22.7454C61.7754 22.843 61.9072 22.9407 62.0537 23.0383C62.2002 23.136 62.3857 23.219 62.6152 23.2874C62.8447 23.3557 63.0889 23.3899 63.3428 23.3899C63.9971 23.3899 64.5488 23.1604 65.0078 22.6965C65.4668 22.2375 65.6963 21.6663 65.6963 20.9924V16.4905H64.9932V17.1887L64.9346 17.1106C64.8955 17.0618 64.832 16.9934 64.7441 16.9104C64.6562 16.8323 64.5537 16.7493 64.4365 16.6711C64.3145 16.593 64.1631 16.5247 63.9775 16.4709C63.792 16.4172 63.5967 16.3879 63.3916 16.3879C62.7861 16.3879 62.2588 16.6223 61.8096 17.0911C61.3652 17.5598 61.1406 18.1262 61.1406 18.7903C61.1406 19.4592 61.3652 20.0256 61.8145 20.4944C62.2637 20.9631 62.7861 21.1975 63.3916 21.1975C63.5967 21.1975 63.7969 21.1682 63.9824 21.1096C64.168 21.051 64.3193 20.9875 64.4316 20.9192C64.5488 20.8508 64.6514 20.7678 64.749 20.675C64.8467 20.5774 64.9053 20.5139 64.9297 20.4797C64.959 20.4407 64.9785 20.4163 64.9883 20.3967L64.9932 20.9924ZM61.8389 18.7952C61.8389 18.3069 62 17.8918 62.3125 17.5549C62.625 17.2131 62.9863 17.0471 63.3916 17.0471C63.8262 17.0471 64.2021 17.2131 64.5146 17.55C64.832 17.8821 64.9883 18.2971 64.9883 18.7952C64.9883 19.2883 64.832 19.7034 64.5146 20.0403C64.2021 20.3723 63.8262 20.5432 63.3916 20.5432C62.9863 20.5432 62.625 20.3723 62.3125 20.0354C62 19.6936 61.8389 19.2834 61.8389 18.7952ZM68.0449 14.2883H67.3467V21.2903H68.0449V14.2883ZM73.9482 19.1516L73.9971 18.7903C73.9971 18.0969 73.7773 17.5256 73.3379 17.0715C72.8984 16.6174 72.3516 16.3879 71.6973 16.3879C71.0625 16.3879 70.5156 16.6321 70.0469 17.1204C69.5781 17.6086 69.3486 18.1946 69.3486 18.8879C69.3486 19.5813 69.583 20.1721 70.0566 20.6604C70.5254 21.1487 71.0918 21.3879 71.7461 21.3879C71.9854 21.3879 72.2197 21.3538 72.4492 21.2805C72.6787 21.2073 72.8643 21.1292 73.0107 21.0413C73.1572 20.9534 73.2891 20.8557 73.416 20.7434C73.543 20.6311 73.6211 20.553 73.6602 20.5042C73.6992 20.4553 73.7285 20.4211 73.748 20.3918L73.2988 19.9426L73.1279 20.1379C73.0205 20.2747 72.835 20.4065 72.5811 20.5383C72.3223 20.675 72.0439 20.7385 71.7461 20.7385C71.2969 20.7385 70.9111 20.5823 70.5791 20.2649C70.2471 19.9524 70.0713 19.5764 70.0469 19.1418L73.9482 19.1516ZM71.6973 17.0422C72.1172 17.0422 72.4736 17.1838 72.7715 17.467C73.0693 17.7502 73.2451 18.1116 73.2988 18.5413H70.0469C70.1006 18.136 70.2861 17.7844 70.5986 17.4866C70.9111 17.1936 71.2773 17.0422 71.6973 17.0422Z" fill="black"/>
<g clip-path="url(#clip0_1719_12702)">
<path d="M15.2789 18.6289C15.2789 17.9018 15.4792 17.2205 15.8273 16.6373V14.1631H13.3531C12.3712 15.4384 11.8389 16.9927 11.8389 18.6289C11.8389 20.2652 12.3712 21.8195 13.3531 23.0948H15.8273V20.6206C15.4792 20.0373 15.2789 19.3561 15.2789 18.6289Z" fill="#FBBD00"/>
<path d="M19.178 22.5277L17.458 24.2477L19.178 25.9677C20.8143 25.9677 22.3686 25.4355 23.6439 24.4535V21.9819H21.1723C20.584 22.3313 19.8999 22.5277 19.178 22.5277Z" fill="#0F9D58"/>
<path d="M15.8277 20.6206L13.3535 23.0948C13.5479 23.3473 13.7596 23.5891 13.9887 23.8182C15.3748 25.2043 17.2177 25.9676 19.178 25.9676V22.5276C17.7554 22.5276 16.5086 21.7616 15.8277 20.6206Z" fill="#31AA52"/>
<path d="M26.5164 18.6291C26.5164 18.1826 26.476 17.7353 26.3963 17.2996L26.3317 16.947H19.1777V20.387H22.6594C22.3213 21.0596 21.8014 21.6083 21.172 21.982L23.6436 24.4535C23.8961 24.2591 24.1379 24.0474 24.367 23.8183C25.7531 22.4322 26.5164 20.5893 26.5164 18.6291Z" fill="#3C79E6"/>
<path d="M21.9348 15.8722L22.2389 16.1762L24.6713 13.7438L24.3673 13.4398C22.9812 12.0537 21.1383 11.2903 19.178 11.2903L17.458 13.0103L19.178 14.7303C20.2194 14.7303 21.1984 15.1358 21.9348 15.8722Z" fill="#CF2D48"/>
<path d="M19.178 14.7303V11.2903C17.2177 11.2903 15.3748 12.0537 13.9887 13.4397C13.7596 13.6688 13.5479 13.9106 13.3535 14.1631L15.8277 16.6373C16.5086 15.4963 17.7554 14.7303 19.178 14.7303Z" fill="#EB4132"/>
</g>
<defs>
<clipPath id="clip0_1719_12702">
<rect width="14.6774" height="14.6774" fill="white" transform="translate(11.8389 11.2903)"/>
</clipPath>
</defs>
</svg>
