<svg width="45" height="41" viewBox="0 0 45 41" fill="none" xmlns="http://www.w3.org/2000/svg">
<path d="M44.1004 30.7878L28.335 3.48092C25.7599 -1.0301 19.2482 -1.0301 16.6823 3.48092L0.907693 30.7878C-1.66738 35.2988 1.53757 40.9029 6.73403 40.9029H38.2185C43.415 40.9029 46.6755 35.2433 44.1004 30.7878ZM22.4994 34.845C21.1285 34.845 19.9892 33.7056 19.9892 32.3347C19.9892 30.9638 21.1285 29.8245 22.4994 29.8245C23.8703 29.8245 25.0097 30.9638 24.9541 32.3996C25.0189 33.7056 23.8147 34.845 22.4994 34.845ZM24.7873 18.6164C24.6762 20.5616 24.5558 22.4976 24.4446 24.4428C24.389 25.0726 24.389 25.6469 24.389 26.2675C24.3335 27.2957 23.5276 28.0923 22.4994 28.0923C21.4712 28.0923 20.6746 27.3513 20.6098 26.3231C20.4431 23.2942 20.2671 20.3208 20.1003 17.2918C20.0448 16.4952 19.9892 15.6894 19.9243 14.8928C19.9243 13.5774 20.6654 12.4937 21.8695 12.151C23.0737 11.8638 24.2686 12.4381 24.7873 13.5774C24.9633 13.9757 25.0189 14.374 25.0189 14.8372C24.9633 16.1062 24.8429 17.3659 24.7873 18.6164Z" fill="#FF9E2C"/>
</svg>
