<svg width="45" height="45" viewBox="0 0 45 45" fill="none" xmlns="http://www.w3.org/2000/svg">
<circle cx="22.4444" cy="22.4444" r="20.9444" stroke="#FFA34E" stroke-width="3"/>
<path d="M16.4674 18.7719L18.4695 20.8058L17.3532 21.9398L13.4453 17.9699L17.3532 14L18.4695 15.134L16.4674 17.1679H22.1295C23.8046 17.1679 25.411 17.8439 26.5955 19.0471C27.7799 20.2504 28.4453 21.8823 28.4453 23.584C28.4453 25.2856 27.7799 26.9175 26.5955 28.1208C25.411 29.324 23.8046 30 22.1295 30H15.0243V28.396H22.1295C23.3858 28.396 24.5906 27.889 25.479 26.9866C26.3673 26.0841 26.8664 24.8602 26.8664 23.584C26.8664 22.3077 26.3673 21.0838 25.479 20.1813C24.5906 19.2789 23.3858 18.7719 22.1295 18.7719H16.4674Z" fill="#FFA34E"/>
</svg>
