<svg width="56" height="56" viewBox="0 0 56 56" fill="none" xmlns="http://www.w3.org/2000/svg">
<circle cx="27.8212" cy="27.6239" r="27.6239" fill="#FF4E53"/>
<path d="M27.8228 21.1754C29.8506 19.3548 32.9842 19.4152 34.9377 21.3722C36.8904 23.33 36.9577 26.4481 35.1414 28.4819L27.8211 35.8126L20.5025 28.4819C18.6862 26.4481 18.7544 23.3248 20.7062 21.3722C22.6614 19.4178 25.789 19.3522 27.8228 21.1754ZM33.7153 22.5919C32.4205 21.2953 30.3314 21.2427 28.9761 22.4599L27.8237 23.494L26.6704 22.4607C25.3107 21.2418 23.226 21.2953 21.9277 22.5937C20.6414 23.8799 20.5767 25.9388 21.7619 27.2992L27.8219 33.3687L33.8819 27.3001C35.068 25.9388 35.0033 23.8825 33.7153 22.5919Z" fill="white"/>
</svg>
