<svg width="377" height="178" viewBox="0 0 377 178" fill="none" xmlns="http://www.w3.org/2000/svg">
<mask id="mask0_1976_14628" style="mask-type:alpha" maskUnits="userSpaceOnUse" x="0" y="0" width="377" height="178">
<rect width="377" height="178" rx="10" fill="#31005C"/>
</mask>
<g mask="url(#mask0_1976_14628)">
<path d="M46.0504 82.0336C45.4098 83.073 44.7691 84.1124 44.2566 84.892C37.7219 94.1168 30.1622 102.432 21.4493 111.397C20.2961 112.566 19.1429 113.866 17.8616 115.035C10.6863 122.311 3.38284 129.847 -1.10174 138.812C-2.76744 142.32 -3.27997 144.918 -2.63931 146.607C-2.25492 147.387 -1.74239 147.907 -0.973608 148.036C-0.589216 148.166 -0.332955 148.166 0.0514376 148.166C1.58901 148.166 3.76723 147.387 6.07359 145.958C10.8144 143.099 15.299 139.461 19.6555 135.953C23.2431 133.095 26.9589 130.107 30.6747 127.638C46.0504 117.374 56.1728 110.488 60.9136 91.2584C61.9386 87.2306 62.4512 78.1358 59.376 74.238C58.351 72.9387 56.9415 72.2891 55.2758 72.2891C51.6882 72.6788 48.3568 78.1358 46.0504 82.0336ZM55.9165 72.8088C57.3259 72.8088 58.4791 73.4584 59.376 74.6277C62.323 78.5255 61.8105 87.3606 60.7855 91.2584C56.0446 110.358 46.0504 117.114 30.6747 127.378C26.8308 129.977 23.115 132.835 19.6555 135.693C15.299 139.201 10.8144 142.709 6.07359 145.698C3.25471 147.517 0.692091 148.166 -0.717348 147.777C-1.358 147.517 -1.87052 147.127 -2.12679 146.477C-2.76744 144.918 -2.25492 142.32 -0.589217 138.942C3.76723 130.107 11.1988 122.571 18.246 115.295C19.3992 113.996 20.6805 112.826 21.8337 111.657C30.4185 102.692 38.1063 94.3766 44.641 85.1518C45.1535 84.3723 45.7941 83.3328 46.4348 82.2934C48.7412 78.3956 51.9444 73.0686 55.6602 72.9387C55.6602 72.8088 55.7884 72.8088 55.9165 72.8088Z" fill="#B561FF" fill-opacity="0.5"/>
<path d="M53.7381 60.4655C48.1003 61.8947 43.2313 69.8202 39.2593 76.0567C37.8498 78.2655 36.5685 80.3443 35.4153 81.9034C29.0088 90.2187 21.8335 97.7545 14.9144 105.03C13.1206 106.979 10.8142 109.058 8.37973 111.267C1.2044 118.023 -7.63662 126.338 -10.3274 134.004C-12.6337 140.5 -11.2243 146.607 -9.94298 152.454C-8.91793 157.261 -7.76475 162.328 -8.66167 167.655C-9.17419 170.903 -11.0962 174.152 -13.1463 177.53C-15.5807 181.557 -18.1434 185.715 -18.2715 190.262C-18.2715 191.822 -18.1434 193.251 -17.6308 194.81C-15.9651 199.617 -14.1713 201.826 -12.1212 201.826C-10.0711 201.826 -7.76476 199.617 -4.43335 194.29C-1.23008 189.223 0.0512257 183.246 1.2044 177.53C2.48571 171.813 3.63889 165.836 6.97029 160.639C13.1206 150.765 24.0117 143.619 33.4934 137.122C34.2622 136.603 35.1591 136.083 35.9279 135.563C51.8161 124.909 64.3729 116.464 69.8825 93.7268C71.4201 87.7501 71.0357 72.4188 64.8854 64.6231C62.1947 60.7253 58.3508 59.2961 53.7381 60.4655ZM64.6292 64.883C70.0107 71.899 71.1638 86.7107 69.4982 93.4669C63.9885 115.944 51.5598 124.26 35.7997 134.914C35.0309 135.433 34.2622 135.953 33.3653 136.473C23.7554 142.839 12.8643 150.115 6.5859 160.119C3.2545 165.316 1.97319 171.423 0.820013 177.27C-0.333166 182.987 -1.61447 188.833 -4.81775 193.9C-6.99597 197.538 -9.68672 201.176 -11.9931 201.176C-13.7869 201.176 -15.3245 198.968 -16.9902 194.55C-17.5027 193.121 -17.759 191.822 -17.6308 190.262C-17.5027 185.975 -14.9401 181.817 -12.6337 177.789C-10.5836 174.411 -8.53354 171.163 -8.02102 167.785C-7.1241 162.458 -8.27728 157.391 -9.30232 152.454C-10.5836 146.347 -11.8649 140.63 -9.68672 134.264C-6.99597 126.728 1.84506 118.413 8.89226 111.787C11.3267 109.578 13.6331 107.369 15.4269 105.42C22.346 98.1443 29.5213 90.6085 35.9279 82.2932C37.081 80.7341 38.3624 78.6553 39.7718 76.4465C43.6157 70.21 48.4847 62.4144 53.8662 61.1151C54.8912 60.8553 55.7881 60.7253 56.6851 60.7253C59.7602 60.7253 62.451 62.1545 64.6292 64.883Z" fill="#B561FF" fill-opacity="0.5"/>
<path d="M59.632 32.2714C56.5568 27.8539 53.8661 27.2042 51.1753 26.6845C49.2534 26.2948 47.2033 25.775 44.8969 24.086L44.7688 23.8261C38.2341 16.4203 16.3237 -7.74609 8.89215 -7.74609C7.99524 -7.74609 7.35459 -7.48624 6.84206 -6.83661C5.81702 -5.53734 5.94514 -2.9388 6.97019 1.21886C7.61085 3.68748 13.8893 7.06557 20.4239 10.5736C25.9336 13.5619 31.5713 16.6802 33.4933 18.8889C35.159 20.9678 37.4653 23.8261 37.3372 24.8656C37.3372 25.1254 36.9528 25.2553 36.4403 25.5152C35.2871 26.0349 33.6214 26.9444 34.5183 31.1021C35.159 33.9604 36.8247 36.6889 38.6185 39.4174C40.1561 42.0159 41.6936 44.3546 42.2062 46.6933C43.8719 53.0597 33.4933 64.7531 26.7023 72.5487C24.396 75.1473 22.474 77.356 21.3209 79.0451C16.3237 85.8013 10.1735 91.9078 4.15131 97.8845C-7.50859 109.578 -19.5529 121.661 -23.7812 138.292C-30.0596 163.108 -31.3409 185.195 -27.497 203.645C-25.4469 213.519 -18.3997 227.162 -11.4806 227.162C-7.25233 227.162 -4.04906 221.965 -2.25523 211.7C4.66384 172.203 24.2679 159.08 43.1031 146.347C59.8882 135.044 75.7765 124.39 82.5674 96.8451C85.13 86.4509 81.1579 70.34 76.0327 61.5049C73.7264 57.6071 70.9075 55.2685 68.0886 53.1896C65.6541 51.2407 63.3478 49.5517 61.5539 46.6933C60.2726 44.6144 60.5289 42.2758 60.7851 39.8071C60.9133 37.2086 61.1695 34.4802 59.632 32.2714ZM60.7851 47.0831C62.7071 50.0714 65.0135 51.8904 67.5761 53.8393C70.2668 55.9181 73.0857 58.1269 75.2639 61.8947C80.261 70.5998 84.2331 86.321 81.6705 96.5852C74.8795 123.87 59.2476 134.394 42.5906 145.568C23.4991 158.43 3.76692 171.683 -3.4084 211.571C-5.20224 221.185 -8.02112 226.252 -11.7369 226.252C-17.5028 226.252 -24.6781 213.909 -26.8563 203.385C-30.7003 185.065 -29.419 163.238 -23.1406 138.552C-18.9122 122.181 -6.99607 110.228 4.53571 98.5341C10.5579 92.5575 16.8363 86.321 21.8334 79.5648C22.9866 77.8757 25.0366 75.667 27.2149 73.1984C34.6465 64.7531 44.6407 53.3195 42.975 46.4334C42.3343 43.9648 40.7967 41.4962 39.2592 38.8977C37.5935 36.2991 35.9278 33.4407 35.2871 30.8422C34.5183 27.4641 35.6715 26.8145 36.8247 26.2948C37.4653 26.0349 37.9779 25.6451 38.106 24.9955C38.3623 24.086 37.7216 22.5269 34.1339 18.2393C32.0838 15.7707 26.318 12.6524 20.8083 9.66411C15.0424 6.54587 8.37963 2.90791 7.86711 0.82908C6.5858 -3.84829 6.97019 -5.66726 7.61085 -6.44682C7.86711 -6.83661 8.37963 -6.96653 8.89215 -6.96653C14.5299 -6.96653 30.8025 9.1444 44.1281 24.3458C44.2563 24.4758 44.3844 24.6057 44.3844 24.6057C46.947 26.5546 49.1252 26.9444 51.0472 27.4641C53.738 28.1137 56.1724 28.6334 58.9913 32.7911C60.4008 34.74 60.1445 37.2086 59.8882 39.6772C59.632 42.1458 59.3757 44.7444 60.7851 47.0831Z" fill="#B561FF" fill-opacity="0.5"/>
<path d="M49.1228 94.2461C47.2008 94.2461 45.407 96.5848 43.9975 98.2738C43.7413 98.6636 43.485 98.9235 43.2287 99.1833C41.9474 100.613 40.7942 102.172 39.5129 103.731C38.7442 104.64 37.9754 105.68 37.2066 106.589L37.0785 106.719C34.5158 109.837 33.4908 111.786 33.8752 112.826C34.0033 113.085 34.2596 113.475 34.9002 113.605C35.0284 113.605 35.1565 113.605 35.1565 113.605C40.2817 113.475 44.3819 108.798 46.432 105.94C48.354 103.211 49.7634 100.353 50.1478 98.014C50.2759 97.4943 50.5322 95.5454 49.8915 94.6359C50.0197 94.506 49.6353 94.2461 49.1228 94.2461ZM49.8915 98.014C49.379 100.223 48.0977 103.081 46.1757 105.68C44.2538 108.408 40.2817 112.956 35.4128 113.085V113.475V113.215C35.2846 113.215 35.2846 113.215 35.1565 113.215C34.644 113.215 34.644 112.956 34.644 112.956C34.5158 112.566 34.5158 111.396 37.7191 107.499L37.8472 107.369C38.616 106.459 39.3848 105.42 40.1536 104.51C41.3068 103.081 42.5881 101.522 43.8694 99.9629C44.1256 99.703 44.3819 99.3133 44.6382 98.9235C45.7914 97.3643 47.5852 95.1556 49.2509 95.1556C49.5071 95.1556 49.7634 95.2855 49.8915 95.4154C50.1478 95.8052 50.1478 97.1045 49.8915 98.014Z" fill="#B561FF" fill-opacity="0.5"/>
<path d="M184.302 225.862C201.343 223.913 219.538 203.905 219.794 187.014C220.178 161.029 205.443 140.37 191.221 120.362C188.786 116.984 186.352 113.475 183.917 109.967L182.508 107.889C175.845 98.1441 168.285 86.9704 165.723 75.0171C163.673 64.8828 160.469 41.2361 163.929 33.0508C166.492 27.0741 173.667 23.696 180.714 20.3179C185.583 17.9792 190.196 15.9004 193.399 12.9121L193.527 12.7822C204.546 2.64787 204.546 2.64787 211.978 2.38802C214.284 2.25809 217.103 2.25809 221.075 1.8683C226.457 1.34859 229.532 0.569031 231.838 0.049324C233.248 -0.340454 234.401 -0.600311 235.298 -0.600311C237.604 -0.600311 239.526 1.08874 245.933 6.54567C264.896 22.7865 264.512 50.9807 264.127 78.2653C263.743 112.566 263.23 148.166 301.542 159.34C307.051 160.899 312.433 161.808 317.558 161.808C331.909 161.808 344.209 155.312 353.05 142.969C365.991 124.909 369.451 96.585 361.635 72.5485C343.568 17.1997 300.516 -14.3726 254.133 -44.5156C211.978 -71.9302 171.873 -79.4659 137.662 -84.4031C135.228 -84.7929 132.793 -84.9229 130.615 -84.9229C116.649 -84.9229 110.114 -77.7769 101.786 -68.682C98.5823 -65.174 95.2509 -61.6659 91.1507 -57.8981C86.4098 -53.7404 80.3877 -50.882 74.6218 -48.0236C65.1401 -43.4762 56.2991 -39.1886 52.5833 -29.7039C44.7673 -9.43534 63.9869 6.28581 81.0283 20.188C88.8443 26.5544 96.2759 32.661 100.632 38.7675C117.93 62.804 112.677 103.471 97.0447 126.208C92.1757 133.354 82.8222 142.189 72.9561 151.414C56.5553 166.875 37.9764 184.286 34.645 199.097C33.1074 205.983 33.4918 210.791 35.9263 213.909C37.8482 216.378 41.3078 217.677 46.1767 217.677C54.249 217.677 65.7808 214.299 77.9532 210.791C92.9445 206.373 109.858 201.436 124.208 201.436C131.127 201.436 136.765 202.475 141.634 204.814C147.144 207.413 151.885 211.051 156.497 214.689C164.057 220.665 171.104 226.252 181.099 226.252C182.124 226.122 183.277 225.992 184.302 225.862ZM141.89 204.035C137.022 201.826 131.127 200.656 124.208 200.656C109.73 200.656 92.6882 205.594 77.6969 210.011C65.5245 213.519 53.9927 216.897 46.0486 216.897C41.3078 216.897 38.2326 215.728 36.3107 213.389C34.0043 210.531 33.7481 205.853 35.1575 199.227C38.3608 184.675 56.9397 167.265 73.2123 151.934C83.0784 142.579 92.5601 133.744 97.4291 126.598C113.189 103.601 118.314 62.6741 101.017 38.3778C96.6603 32.2712 89.2287 26.1646 81.2846 19.6683C64.4995 5.89603 45.408 -9.6952 53.0958 -29.4441C56.6835 -38.6689 65.5245 -42.9565 74.8781 -47.374C80.7721 -50.2324 86.7942 -53.0908 91.5351 -57.3784C95.6353 -61.0163 98.9667 -64.6543 102.17 -68.1623C110.37 -77.1272 116.905 -84.1433 130.615 -84.1433C132.793 -84.1433 135.1 -84.0134 137.534 -83.6236C171.745 -78.6864 211.85 -71.1506 253.749 -43.866C300.004 -13.8529 342.928 17.7194 360.866 72.9383C368.554 96.7149 365.223 124.779 352.409 142.709C343.697 154.922 331.652 161.289 317.43 161.289C312.433 161.289 307.051 160.509 301.67 158.82C284.628 153.883 273.993 143.619 268.868 127.508C264.255 113.086 264.512 95.4156 264.768 78.2653C265.152 50.8507 265.409 22.3967 246.317 6.02596C237.22 -1.76965 236.964 -1.89958 231.71 -0.600311C229.404 -0.0806046 226.329 0.698959 220.947 1.21867C216.975 1.60845 214.156 1.73838 211.978 1.73838C204.29 1.99823 204.29 1.99823 193.015 12.2625L192.887 12.3924C189.683 15.2508 185.199 17.4595 180.458 19.6683C173.283 23.0464 165.979 26.5544 163.288 32.661C159.701 40.9763 162.904 64.7529 165.082 75.0171C167.517 87.1003 175.204 98.274 181.867 108.019L183.277 110.097C185.583 113.605 188.146 117.113 190.58 120.492C204.803 140.5 219.41 161.029 219.025 186.754C218.769 203.385 200.831 223.004 184.174 224.953C183.149 225.083 181.995 225.083 180.97 225.083C171.104 225.083 164.185 219.496 156.754 213.649C152.269 210.401 147.528 206.633 141.89 204.035Z" fill="#B561FF" fill-opacity="0.5"/>
<path d="M174.309 297.192C171.105 302.13 167.005 308.366 168.414 312.524C168.927 314.213 170.465 315.512 172.643 316.422C173.027 316.552 173.54 316.681 174.052 316.681C179.049 316.681 186.865 308.886 193.784 302.13C198.141 297.842 202.369 293.684 204.804 292.515C216.72 287.058 233.249 284.46 247.727 282.121C253.493 281.211 258.875 280.302 263.872 279.392C275.276 277.184 286.295 276.014 296.545 276.014C330.244 276.014 358.689 288.357 380.727 312.654C383.162 315.382 386.878 316.811 391.49 316.811C405.969 316.811 430.698 302.519 448.252 276.144C458.759 260.293 473.878 227.941 458.118 189.093C451.84 173.502 442.358 166.226 428.52 166.226C418.013 166.226 405.969 170.124 392.003 174.671C374.833 180.258 355.486 186.625 334.6 186.625C318.328 186.625 303.464 182.857 288.986 175.061C244.396 150.895 243.115 106.979 246.959 71.3795C248.496 57.4773 246.062 46.5634 239.912 39.6773C235.555 34.87 229.789 32.2715 222.998 32.2715C210.185 32.2715 194.041 42.4058 188.275 61.7649C182.765 79.9546 195.706 96.5853 210.698 115.685C227.611 137.122 246.831 161.549 243.115 194.29C241.321 210.531 235.427 226.122 227.483 235.867C221.461 243.273 216.079 244.052 210.57 244.702C206.213 245.222 201.857 245.741 196.603 249.119C192.631 251.718 191.35 256.006 190.069 260.683C189.172 263.801 188.275 267.179 186.353 269.908C185.328 271.337 183.534 271.727 181.484 271.987C178.921 272.376 176.102 272.896 174.565 276.274C173.54 278.613 174.949 281.341 176.23 283.94C177.384 286.149 178.537 288.487 178.152 290.306C177.768 291.995 176.23 294.334 174.309 297.192ZM176.743 283.68C175.462 281.081 174.18 278.613 175.077 276.664C176.487 273.676 179.049 273.286 181.484 272.766C183.534 272.376 185.584 272.117 186.737 270.298C188.787 267.439 189.684 264.191 190.581 260.943C191.862 256.525 193.016 252.238 196.86 249.769C201.985 246.521 206.341 246.001 210.57 245.481C216.335 244.702 221.845 244.052 227.995 236.387C236.068 226.382 241.962 210.791 243.755 194.42C247.471 161.419 228.252 136.733 211.338 115.035C196.475 96.0656 183.662 79.5649 189.044 61.7649C194.681 42.7956 210.441 32.7912 222.998 32.7912C229.533 32.7912 235.299 35.2598 239.399 39.9372C245.293 46.6934 247.727 57.4773 246.19 71.1196C242.346 106.979 243.627 151.285 288.601 175.581C303.208 183.506 318.199 187.274 334.6 187.274C355.614 187.274 375.09 180.908 392.259 175.321C406.097 170.774 418.142 166.876 428.52 166.876C442.23 166.876 451.071 173.762 457.35 189.223C472.982 227.682 457.99 259.773 447.612 275.495C430.955 300.83 405.969 315.902 391.49 315.902C387.006 315.902 383.674 314.603 381.24 312.004C358.945 287.578 330.5 275.105 296.417 275.105C286.039 275.105 275.019 276.274 263.488 278.483C258.49 279.522 253.109 280.302 247.343 281.211C232.736 283.55 216.207 286.149 204.163 291.735C201.6 292.905 197.5 296.933 192.887 301.48C186.097 308.236 178.409 315.902 173.668 315.902C173.283 315.902 172.899 315.902 172.515 315.772C170.465 314.992 169.183 313.953 168.671 312.394C167.389 308.496 171.362 302.519 174.437 297.712C176.359 294.854 177.896 292.385 178.281 290.696C179.177 288.357 177.896 286.019 176.743 283.68Z" fill="#B561FF" fill-opacity="0.5"/>
<path d="M192.502 283.55C193.271 283.81 194.809 283.94 196.602 283.94C200.446 283.94 214.925 283.29 237.476 275.754C256.311 269.388 278.35 266.01 299.62 266.01C334.471 266.01 357.663 271.337 387.517 300.311C389.696 302.389 392.515 303.429 395.974 303.429C408.915 303.429 428.519 289.137 440.692 270.817C450.173 256.525 463.883 227.422 449.661 192.471C443.511 177.53 435.951 175.451 428.519 175.451C419.422 175.451 408.018 179.219 394.821 183.506C377.011 189.353 356.894 195.849 334.599 195.849C316.789 195.849 300.517 191.692 284.628 183.117C234.657 156.092 234.017 105.68 237.861 70.21C239.014 59.1662 237.348 50.4611 233.12 45.6538C230.557 42.7955 227.098 41.2363 222.997 41.2363C213.516 41.2363 201.6 49.1619 196.987 64.1035C192.887 77.7458 204.418 92.4275 217.872 109.578C234.914 131.406 256.183 158.69 252.083 195.2C250.93 205.594 248.111 215.598 243.883 224.693C237.092 239.245 228.251 251.588 217.36 261.462C210.184 267.959 203.009 272.506 197.756 275.754C193.015 278.743 190.068 280.562 190.324 281.991C190.452 282.77 191.221 283.16 192.502 283.55ZM198.012 276.274C203.265 273.026 210.441 268.478 217.616 261.982C228.507 252.108 237.476 239.765 244.267 225.083C248.495 215.858 251.314 205.854 252.468 195.46C256.568 158.82 235.298 131.536 218.128 109.578C204.803 92.5575 193.399 77.8757 197.371 64.4933C201.856 49.6816 213.644 41.886 222.997 41.886C227.098 41.886 230.429 43.3152 232.864 46.1736C237.092 50.8509 238.629 59.4261 237.476 70.34C233.632 105.94 234.273 156.481 284.5 183.636C300.388 192.211 316.789 196.369 334.599 196.369C357.022 196.369 377.139 189.743 394.949 183.896C408.147 179.608 419.422 175.841 428.519 175.841C435.695 175.841 443.254 177.919 449.277 192.731C463.371 227.422 449.661 256.395 440.307 270.687C428.519 288.617 408.659 303.169 395.974 303.169C392.643 303.169 389.824 302.13 387.774 300.181C373.295 286.149 359.841 277.184 345.362 272.116C332.934 267.699 319.224 265.88 299.62 265.88C278.35 265.88 256.311 269.388 237.348 275.754C214.797 283.29 200.446 283.94 196.602 283.94C194.809 283.94 193.271 283.81 192.502 283.68C191.349 283.42 190.708 283.03 190.58 282.511C190.58 280.951 193.784 279.003 198.012 276.274Z" fill="#B561FF" fill-opacity="0.5"/>
<path d="M223.124 50.2012C216.205 50.2012 208.645 57.2172 206.21 63.5836C204.545 67.7413 205.826 74.8873 209.542 82.8128C213.001 90.2186 217.742 95.8055 221.202 96.8449C221.714 96.9748 222.227 97.1048 222.739 97.1048C223.38 97.1048 223.892 96.9748 224.405 96.8449C228.889 95.2858 228.761 92.5573 228.505 86.4508C228.377 82.6829 228.121 77.6157 228.889 70.5997C229.915 61.115 228.505 53.9691 226.455 51.7603C225.942 50.8508 225.174 50.2012 223.124 50.2012ZM228.377 70.4698C227.608 77.6157 227.736 82.6829 227.993 86.4508C228.249 92.5573 228.249 94.7661 224.277 96.1953C223.38 96.585 222.355 96.585 221.33 96.1953C217.998 95.1559 213.514 89.6989 210.054 82.423C206.338 74.7573 205.185 67.7413 206.723 63.7136C209.157 57.607 216.461 50.7209 222.995 50.7209C224.789 50.7209 225.558 51.2406 226.071 51.8902C227.993 54.2289 229.402 61.115 228.377 70.4698Z" fill="#B561FF" fill-opacity="0.5"/>
<path d="M151.502 134.004C150.605 133.225 149.836 132.835 149.196 132.835C147.402 132.835 146.121 135.174 144.199 138.682C142.277 142.32 139.586 147.257 134.845 152.324L133.436 153.753C128.054 159.47 125.62 162.068 126.26 163.498C126.517 164.147 127.414 164.407 128.951 164.407C130.232 164.407 132.283 164.147 135.614 163.758C137.023 163.628 138.305 163.498 139.714 163.498C150.862 163.498 160.087 169.864 166.878 174.412C170.85 177.14 173.925 179.219 176.231 179.219C177.128 179.219 177.897 178.829 178.538 178.049C185.585 168.825 160.728 142.579 151.502 134.004ZM177.897 177.66C177.385 178.309 176.872 178.569 176.103 178.569C174.053 178.569 170.978 176.49 167.134 173.892C160.343 169.214 150.99 162.848 139.586 162.848C138.177 162.848 136.767 162.978 135.358 163.108C132.154 163.628 130.104 163.758 128.823 163.758C127.542 163.758 126.901 163.628 126.773 163.238C126.389 162.198 129.336 159.08 133.82 154.143L135.23 152.714C139.97 147.647 142.661 142.579 144.711 138.942C146.505 135.693 147.658 133.485 149.068 133.485C149.58 133.485 150.221 133.874 150.99 134.524C162.521 145.048 184.176 169.474 177.897 177.66Z" fill="#B561FF" fill-opacity="0.5"/>
<path d="M151.629 144.788C147.145 144.788 141.379 151.934 141.379 155.312C141.379 156.741 142.276 157.521 143.685 157.521C150.348 157.651 157.267 161.938 162.392 164.927C165.468 166.746 167.646 168.045 168.927 168.045C169.311 168.045 169.696 167.915 169.952 167.655C170.208 167.395 170.336 166.876 170.336 166.096C169.824 159.86 158.164 147.387 153.423 144.918C152.783 144.918 152.27 144.788 151.629 144.788ZM169.311 166.486C169.311 167.006 169.311 167.265 169.183 167.265C169.183 167.265 169.055 167.395 168.927 167.395C167.902 167.395 165.596 165.966 162.905 164.407C157.78 161.289 150.604 156.871 143.813 156.871C142.788 156.871 142.404 156.482 142.404 155.572C142.404 152.584 147.785 145.957 151.758 145.957C152.27 145.957 152.654 146.087 153.039 146.217C158.036 148.686 168.927 160.769 169.311 166.486Z" fill="#B561FF" fill-opacity="0.5"/>
<path d="M135.741 26.9445C136.894 26.9445 137.663 25.3854 138.56 21.8773C141.763 8.62479 152.398 -8.91535 168.927 -18.2701C185.584 -27.7548 196.731 -30.2234 202.753 -31.5226C205.7 -32.1723 207.238 -32.5621 207.622 -33.3416C207.75 -33.6015 207.75 -33.9912 207.494 -34.381C206.341 -36.4599 185.712 -48.2832 155.857 -50.6219L154.576 -50.7518C151.885 -51.0117 149.579 -51.1416 147.401 -51.1416C139.585 -51.1416 133.434 -48.9328 118.827 -36.4599C116.521 -34.511 114.215 -32.692 111.908 -30.873C104.861 -25.4161 98.7108 -20.6088 99.0952 -15.2818C99.3515 -11.1241 103.452 -7.09637 111.78 -2.41901C121.006 2.77807 126.643 13.0423 130.359 19.7985C132.794 24.216 134.331 26.9445 135.741 26.9445ZM111.908 -2.67886C103.836 -7.2263 99.7359 -11.384 99.3515 -15.2818C98.9671 -20.4789 104.989 -25.1562 111.908 -30.6131C114.215 -32.4321 116.521 -34.2511 118.827 -36.2C133.306 -48.673 139.585 -50.8817 147.144 -50.8817C149.323 -50.8817 151.629 -50.7518 154.32 -50.492L155.601 -50.362C184.687 -48.0234 205.828 -36.3299 206.853 -34.2511C207.11 -33.8613 206.981 -33.6015 206.981 -33.4715C206.725 -32.8219 205.059 -32.562 202.497 -31.9124C196.475 -30.6131 185.327 -28.1445 168.542 -18.6599C151.885 -9.30513 141.25 8.36493 138.047 21.7474C137.278 24.9956 136.509 26.5547 135.613 26.5547C134.331 26.5547 132.666 23.4364 130.487 19.6686C127.028 12.7824 121.262 2.51822 111.908 -2.67886Z" fill="#B561FF" fill-opacity="0.5"/>
<path d="M138.177 49.2916C139.33 49.2916 140.099 47.9923 140.611 45.004C143.942 27.0741 151.118 1.73833 175.206 -11.7741C182.638 -15.9317 191.095 -19.3098 200.961 -21.9084C202.883 -22.4281 205.061 -23.8573 207.111 -25.2865C209.802 -27.1054 212.492 -28.9244 215.055 -28.9244C215.311 -28.9244 215.696 -28.9244 215.952 -28.7945C217.361 -28.5346 218.386 -27.7551 219.412 -26.8456C220.565 -25.9361 221.718 -25.0266 223.127 -25.0266C223.64 -25.0266 224.28 -25.1565 224.921 -25.4164C225.946 -25.8062 226.587 -26.7156 227.099 -27.4952C227.868 -28.6646 228.637 -29.704 230.815 -29.574C232.993 -29.4441 234.147 -27.7551 235.428 -25.9361C236.325 -24.6368 237.222 -23.4675 238.503 -22.6879C239.4 -22.1682 241.066 -21.6485 242.603 -21.6485C243.628 -21.6485 244.397 -21.9084 244.781 -22.4281C245.166 -22.9478 245.294 -23.7273 245.038 -24.6368C244.141 -27.7551 237.734 -30.6135 233.378 -32.4324C232.096 -32.9521 231.071 -33.4718 230.303 -33.8616C223.896 -37.2397 217.618 -40.228 212.108 -42.5667C189.429 -52.701 168.672 -58.8076 148.811 -61.4061C146.633 -61.666 144.583 -61.7959 142.917 -61.7959C133.179 -61.7959 125.492 -57.5083 110.5 -43.2164C106.784 -39.7083 102.941 -36.72 99.3529 -33.8616C91.1525 -27.3653 84.6179 -22.1682 84.746 -15.8018C84.8741 -10.7346 89.2306 -5.27772 98.456 1.34855C113.319 11.8726 123.185 27.9836 129.72 38.6376C133.564 45.004 136.255 49.2916 138.177 49.2916ZM98.456 0.828846C89.3587 -5.6675 85.0023 -10.9945 84.8741 -15.9317C84.746 -22.1682 91.1525 -27.2354 99.3529 -33.7317C103.069 -36.5901 106.913 -39.7083 110.628 -43.0864C125.62 -57.2485 133.179 -61.536 142.789 -61.536C144.583 -61.536 146.505 -61.4061 148.683 -61.1463C168.544 -58.5477 189.173 -52.4412 211.852 -42.4368C217.233 -40.0981 223.64 -37.1098 229.918 -33.7317C230.687 -33.3419 231.712 -32.8222 232.993 -32.3025C237.222 -30.4835 243.628 -27.6251 244.397 -24.7667C244.653 -23.9872 244.525 -23.3376 244.269 -22.9478C243.885 -22.4281 242.988 -22.2981 242.475 -22.2981C241.194 -22.2981 239.528 -22.8178 238.631 -23.3376C237.478 -23.9872 236.581 -25.2865 235.684 -26.4558C234.403 -28.2748 233.122 -30.0937 230.815 -30.2237C228.381 -30.4835 227.612 -29.1843 226.843 -28.0149C226.331 -27.2354 225.818 -26.4558 224.793 -26.066C224.152 -25.8062 223.64 -25.6762 223.127 -25.6762C221.718 -25.6762 220.693 -26.4558 219.668 -27.3653C218.643 -28.1448 217.49 -29.0543 215.952 -29.3142C215.696 -29.3142 215.311 -29.4441 215.055 -29.4441C212.364 -29.4441 209.545 -27.4952 206.855 -25.6762C204.676 -24.247 202.755 -22.8178 200.833 -22.2981C190.966 -19.6996 182.51 -16.3215 175.078 -12.1638C150.862 1.47848 143.558 26.9441 140.227 44.8741C139.714 47.4726 139.073 48.7719 138.177 48.7719C136.511 48.7719 133.692 44.3543 129.848 38.1179C123.313 27.5938 113.447 11.4828 98.456 0.828846Z" fill="#B561FF" fill-opacity="0.5"/>
<path d="M185.585 212.35C194.297 211.311 202.626 205.204 206.598 196.759C210.314 189.093 212.236 175.971 200.832 157.521C195.963 149.595 190.582 141.54 185.456 133.744C170.721 111.527 156.755 90.6086 151.117 69.5605C144.583 45.7839 149.836 26.1649 167.518 7.8452C182.894 -8.00588 203.138 -17.1008 223.127 -17.1008C238.118 -17.1008 251.572 -11.7738 260.925 -2.02924C271.176 8.62476 276.301 24.3459 275.66 43.1853C275.532 47.6028 275.276 52.1503 275.148 56.9576C274.379 73.978 273.482 93.3371 276.173 109.448C279.248 127.898 286.68 139.331 298.852 144.398C305.387 147.127 311.537 148.426 317.175 148.426C327.425 148.426 336.138 143.879 342.417 135.303C353.052 120.752 355.614 95.6758 348.823 73.0685C334.088 24.4758 298.852 -4.49786 246.575 -35.5504C206.854 -59.0671 173.284 -66.3431 143.045 -70.7606C140.739 -71.0204 138.689 -71.2803 136.639 -71.2803C123.954 -71.2803 117.931 -64.7839 110.372 -56.4686C107.425 -53.3504 104.478 -49.9723 100.634 -46.5942C96.2773 -42.6964 92.5615 -40.3577 89.2301 -38.2788C83.8486 -34.9007 79.2359 -32.0424 74.2388 -24.3767C64.1165 -9.0453 77.6983 0.309448 91.9208 10.1839C99.4806 15.381 107.297 20.8379 111.397 27.2043C137.664 67.4816 127.029 110.487 108.45 137.382C103.068 145.048 95.3804 152.324 87.0519 159.99C76.9295 169.344 66.5509 179.089 60.5288 189.873C57.9662 194.55 57.1974 197.668 58.3506 199.487C59.1194 200.787 60.9132 201.436 63.6039 201.436C68.4729 201.436 76.2889 199.357 85.3862 197.019C98.0711 193.641 113.831 189.483 127.797 189.483C135.229 189.483 141.507 190.652 146.633 192.991C151.758 195.33 155.986 198.708 160.215 201.956C167.006 207.413 173.54 212.48 182.637 212.48C183.534 212.48 184.559 212.48 185.585 212.35ZM146.761 192.601C141.507 190.133 135.357 188.963 127.797 188.963C113.831 188.963 97.943 193.121 85.258 196.499C76.2889 198.838 68.4729 200.917 63.6039 200.917C61.0413 200.917 59.3756 200.267 58.6068 199.098C57.5818 197.409 58.3506 194.29 60.7851 189.873C66.6791 179.089 77.1858 169.474 87.18 160.119C95.3804 152.454 103.196 145.178 108.578 137.512C119.469 121.791 126.004 103.861 127.285 85.6714C128.694 64.8831 123.441 45.1342 111.653 26.9445C107.425 20.4481 99.6087 14.9912 92.049 9.79411C77.9546 0.0495911 64.629 -9.30515 74.4951 -24.2467C79.4922 -31.9124 84.1049 -34.7708 89.3582 -38.019C92.6896 -40.0978 96.5336 -42.4365 100.89 -46.3343C104.606 -49.7124 107.681 -52.9606 110.628 -56.2088C118.188 -64.3941 124.21 -70.8905 136.639 -70.8905C138.56 -70.8905 140.739 -70.7606 142.917 -70.3708C173.156 -66.0832 206.598 -58.8073 246.319 -35.1606C298.468 -4.10807 333.704 24.7357 348.439 73.1984C355.23 95.6758 352.667 120.622 342.16 135.174C336.01 143.619 327.297 148.166 317.175 148.166C311.537 148.166 305.515 146.867 298.98 144.138C286.936 139.201 279.633 127.898 276.557 109.448C273.867 93.3371 274.764 74.1079 275.532 56.9576C275.789 52.1503 275.917 47.6028 276.045 43.1853C276.557 24.216 271.432 8.36491 261.182 -2.41902C251.828 -12.2935 238.246 -17.6205 223.127 -17.6205C203.01 -17.6205 182.637 -8.52559 167.262 7.45541C157.908 17.1999 152.014 27.2043 149.452 38.1182C147.145 47.8627 147.53 58.1269 150.733 69.4305C156.499 90.4787 170.465 111.527 185.2 133.744C190.325 141.54 195.707 149.465 200.576 157.521C211.851 175.841 209.929 188.833 206.342 196.369C202.37 204.684 194.297 210.661 185.585 211.7C184.559 211.83 183.663 211.83 182.637 211.83C173.668 211.83 167.262 206.763 160.471 201.436C156.243 198.448 151.886 194.94 146.761 192.601Z" fill="#B561FF" fill-opacity="0.5"/>
<path d="M193.911 196.24C197.242 193.771 199.292 190.263 199.805 185.976C201.342 173.243 190.195 154.533 180.073 142.45C167.516 127.378 155.087 111.268 149.065 95.6763C148.809 94.8968 148.296 92.688 147.784 89.9595C145.862 80.7347 142.53 65.2734 137.79 65.2734C137.405 65.2734 136.893 65.4034 136.508 65.6632C134.586 66.8326 133.946 69.1712 134.714 72.8092C135.355 75.7975 136.765 79.1756 138.046 82.1639C139.455 85.2822 140.608 88.1406 140.608 89.6997C140.608 93.7274 138.686 95.4165 136.893 97.2355C135.483 98.5347 134.074 99.9639 133.561 102.303C132.921 105.421 134.202 107.76 135.355 109.968C136.508 112.047 137.661 114.126 137.277 116.984C136.636 122.051 120.748 140.371 106.782 156.482C95.2501 169.865 85.2559 181.428 85.384 183.637C85.384 183.767 85.5122 183.897 85.5122 184.027C86.4091 184.806 88.2029 185.196 90.8937 185.196C94.9938 185.196 100.76 184.286 107.423 183.117C115.495 181.818 124.72 180.259 132.664 180.259C138.815 180.259 143.555 181.168 146.887 182.987C148.681 184.027 150.731 185.196 152.909 186.495C162.519 192.082 174.307 199.098 184.429 199.098C188.017 199.228 191.348 198.189 193.911 196.24ZM147.015 182.727C143.555 180.908 138.943 179.999 132.664 179.999C124.72 179.999 115.495 181.428 107.423 182.857C100.76 183.897 94.9938 184.936 90.8937 184.936C88.331 184.936 86.6653 184.546 85.7684 183.767C85.7684 183.767 85.7684 183.767 85.7684 183.637C85.6403 181.558 96.0189 169.605 107.038 156.742C121.004 140.501 137.021 122.181 137.661 116.984C138.046 114.126 136.893 111.917 135.739 109.708C134.458 107.37 133.305 105.291 133.946 102.303C134.458 99.9639 135.739 98.7946 137.149 97.3654C138.943 95.5464 140.865 93.7274 140.993 89.5698C140.993 87.8807 139.84 85.1523 138.43 81.9041C137.149 78.9158 135.739 75.5377 135.099 72.6793C134.33 69.3012 134.843 67.0924 136.636 65.9231C137.021 65.6632 137.405 65.5333 137.79 65.5333C142.274 65.5333 145.606 81.3844 147.399 89.9595C148.04 92.8179 148.424 94.8968 148.809 95.6763C154.959 111.268 167.388 127.378 179.945 142.45C189.939 154.403 201.086 172.983 199.549 185.586C199.036 189.873 197.114 193.251 193.911 195.59C191.348 197.539 188.145 198.448 184.429 198.448C174.435 198.448 162.647 191.432 153.165 185.846C150.859 184.936 148.809 183.767 147.015 182.727Z" fill="#B561FF" fill-opacity="0.5"/>
<path d="M189.557 179.869C190.711 169.215 179.435 152.324 173.797 145.958C164.059 134.784 157.268 125.299 152.784 119.063C148.299 112.826 145.865 109.448 144.327 109.448C143.174 109.448 142.661 110.877 142.277 114.385C139.458 140.891 122.545 155.183 112.551 163.758C108.194 167.526 105.247 169.994 105.119 172.073C105.119 172.723 105.247 173.242 105.76 173.632C106.657 174.672 108.194 175.061 110.373 175.061C112.807 175.061 116.01 174.412 119.598 173.762C124.339 172.853 129.72 171.943 135.102 171.943C142.533 171.943 148.555 173.892 153.553 177.66C160.472 183.117 170.722 188.964 178.794 188.964C181.741 188.964 184.176 188.184 186.226 186.755C188.02 185.066 189.301 182.857 189.557 179.869ZM178.538 188.574C170.594 188.574 160.472 182.727 153.553 177.4C148.555 173.502 142.405 171.553 134.974 171.553C129.464 171.553 124.083 172.593 119.342 173.372C115.754 174.022 112.551 174.672 110.116 174.672C108.066 174.672 106.657 174.282 105.76 173.372C105.375 172.982 105.247 172.593 105.247 172.073C105.375 170.254 108.322 167.655 112.551 164.018C122.673 155.442 139.586 141.02 142.405 114.385C142.79 111.267 143.302 109.838 144.071 109.838C145.48 109.838 148.043 113.476 152.271 119.323C156.756 125.559 163.547 135.174 173.285 146.218C178.923 152.584 190.198 169.345 189.045 179.869C188.789 182.727 187.507 184.936 185.585 186.365C183.791 187.794 181.357 188.574 178.538 188.574Z" fill="#B561FF" fill-opacity="0.5"/>
<path d="M299.107 72.939C297.826 93.2076 303.592 107.24 309.358 113.606C312.049 116.465 314.996 118.024 317.558 118.024C321.274 118.024 324.093 115.035 325.502 109.708C334.215 74.8879 304.489 38.2486 300.773 35.1303C299.748 34.2208 298.979 34.0909 298.467 34.6106C297.57 35.5201 297.826 38.6383 298.339 44.3551C298.979 51.1113 299.876 61.1157 299.107 72.939ZM298.979 35.1303C299.107 35.0004 299.107 35.0004 299.236 35.0004C299.364 35.0004 299.748 35.1303 300.389 35.65C303.976 38.6383 333.575 75.0179 324.862 109.448C323.58 114.516 321.018 117.374 317.558 117.374C315.124 117.374 312.305 115.815 309.742 113.086C303.976 106.85 298.339 93.0777 299.62 72.939C300.389 60.9858 299.492 50.9814 298.979 44.2252C298.595 39.4179 298.339 35.9099 298.979 35.1303Z" fill="#B561FF" fill-opacity="0.5"/>
<path d="M289.116 71.7696C287.578 91.5184 291.422 107.499 299.879 116.724C304.363 121.532 309.745 124.26 315.126 124.26C322.942 124.26 329.092 118.803 330.886 110.358C336.268 85.6717 327.939 63.3243 319.995 49.0324C310.642 32.2718 298.725 20.3185 292.96 16.4207C290.909 14.9915 289.372 14.082 288.475 14.082C288.091 14.082 287.834 14.212 287.706 14.4718C286.937 15.3813 287.322 17.72 287.834 22.5273C288.988 30.9725 291.038 46.8236 289.116 71.7696ZM288.091 14.7317C288.219 14.6017 288.347 14.4718 288.603 14.4718C289.372 14.4718 290.909 15.3813 292.831 16.6806C305.773 25.5156 340.368 65.5331 330.63 110.228C328.836 118.543 322.814 123.87 315.126 123.87C309.745 123.87 304.491 121.272 300.135 116.464C291.806 107.24 287.962 91.3885 289.372 71.8995C291.294 46.8236 289.244 30.9725 288.219 22.5273C287.834 18.1098 287.45 15.3813 288.091 14.7317Z" fill="#B561FF" fill-opacity="0.5"/>
<path d="M281.812 73.0692C280.275 97.6254 285.015 116.984 294.881 127.638C300.007 133.095 306.157 136.084 312.82 136.084C325.505 136.084 336.268 125.69 339.599 110.228C344.468 87.3612 340.24 64.8838 327.17 43.4459C313.845 21.6182 295.394 7.58605 285.528 1.08971C280.531 -2.15846 278.353 -3.58766 277.584 -2.54825C276.943 -1.76869 277.327 0.699923 278.224 5.37729C280.018 15.5116 283.99 36.6897 281.812 73.0692ZM277.712 -2.41832C277.84 -2.54825 277.968 -2.54825 278.224 -2.54825C279.249 -2.54825 281.556 -1.11905 285.272 1.34956C317.945 22.9174 349.337 62.805 339.215 110.098C335.883 125.43 325.377 135.694 312.82 135.694C306.285 135.694 300.135 132.836 295.138 127.379C285.272 116.855 280.787 97.4955 282.196 73.0692C284.375 36.5597 280.403 15.3817 278.481 5.11744C277.712 0.95978 277.199 -1.63876 277.712 -2.41832Z" fill="#B561FF" fill-opacity="0.5"/>
<path d="M145.48 -8.9153C154.193 -25.0262 170.209 -30.6131 183.022 -33.7313C184.303 -33.9912 184.432 -34.6408 184.303 -35.0306C184.047 -37.6291 171.875 -42.6963 153.808 -42.6963C151.758 -42.6963 149.708 -42.6963 147.658 -42.5664C139.458 -42.0467 119.982 -30.3532 112.935 -21.7781C111.141 -19.5693 110.244 -17.6204 110.5 -16.1912C111.013 -12.5533 114.088 -10.9941 117.804 -9.17515C121.647 -7.22625 126.004 -5.01749 128.182 0.179581C129.463 3.1679 131.001 4.72702 133.051 4.72702C136.383 4.72702 140.611 0.179581 145.48 -8.9153ZM128.823 -0.0802727C126.645 -5.40727 122.16 -7.74596 118.188 -9.69486C114.728 -11.5138 111.653 -12.943 111.269 -16.1912C111.141 -17.3605 111.91 -19.1795 113.575 -21.2584C120.494 -29.8335 139.714 -41.2671 147.786 -41.7868C149.836 -41.9167 151.886 -41.9167 153.936 -41.9167C171.619 -41.9167 183.535 -36.9795 183.791 -34.9007C183.791 -34.5109 183.278 -34.381 183.022 -34.251C169.953 -31.1328 153.808 -25.416 144.967 -9.04523C137.536 4.33724 132.026 7.71534 128.823 -0.0802727Z" fill="#B561FF" fill-opacity="0.5"/>
<path d="M314.099 102.562C314.74 102.562 315.38 102.042 315.893 101.133C318.327 96.3254 318.327 79.9546 311.664 69.9502C310.768 68.6509 309.614 68.7809 308.589 70.4699C306.155 74.7575 305.002 88.6597 311.793 100.613C312.561 101.912 313.33 102.562 314.099 102.562ZM309.358 70.9896C309.742 70.4699 309.999 70.0801 310.255 70.0801C310.511 70.0801 310.768 70.34 310.768 70.5998C317.046 80.2144 317.302 96.3254 314.868 100.873C314.611 101.522 314.227 101.782 313.843 101.782C313.458 101.782 312.946 101.263 312.433 100.353C306.155 88.6597 307.052 75.0174 309.358 70.9896Z" fill="#B561FF" fill-opacity="0.5"/>
<path d="M183.149 243.013C202.241 240.804 224.92 217.807 231.07 200.267C241.705 169.734 222.87 145.178 204.675 121.401C187.121 98.5342 170.592 76.8364 178.665 50.4612C185.712 27.4642 208.391 15.1211 226.201 15.1211C235.811 15.1211 244.011 18.6291 249.521 24.8656C256.056 32.2715 258.618 43.5751 256.953 57.4773C251.187 105.29 249.521 157.651 302.183 173.112C308.205 174.931 314.227 175.841 319.865 175.841C342.032 175.841 356.126 162.978 364.07 152.194C379.318 131.536 384.571 100.483 377.268 75.1473C370.989 53.5795 358.689 32.7912 339.597 11.3532C311.28 -20.4789 272.713 -47.8934 221.589 -72.3197L219.41 -73.3591C197.756 -83.7533 175.59 -94.4073 152.142 -100.254C150.732 -100.644 149.195 -101.034 147.529 -101.423C140.354 -103.372 131.384 -105.841 123.697 -105.841C120.621 -105.841 117.931 -105.451 115.752 -104.671C112.421 -103.502 110.499 -101.163 108.705 -98.9547C107.296 -97.2656 106.015 -95.5766 103.964 -94.2773C102.683 -93.4978 100.121 -92.4584 97.4298 -91.4189C93.0733 -89.7299 88.5887 -87.9109 87.1793 -86.3518C84.4886 -83.1036 85.2573 -81.1547 85.898 -79.2058C86.4105 -77.9065 86.923 -76.6073 86.2824 -74.6584L85.7699 -73.0992C81.9259 -61.5358 81.9259 -61.5358 72.9568 -58.9372C71.2911 -58.4175 69.1129 -57.7679 66.5502 -56.9883C59.1186 -54.6496 56.1716 -50.8817 53.2246 -47.3737C50.9183 -44.6453 48.8682 -42.0467 44.8961 -39.9679C44.768 -39.9679 44.6399 -39.9679 44.5117 -39.9679C39.899 -39.9679 4.91929 -37.6292 2.22854 -28.9241C1.45976 -26.5854 3.12546 -23.9869 6.84126 -21.3883C11.5821 -18.0102 15.2979 -17.6205 17.6042 -17.6205C18.7574 -17.6205 19.7825 -17.7504 20.6794 -17.8803C21.5763 -18.0103 22.3451 -18.0102 23.1139 -18.0102C25.9328 -18.0102 28.7516 -17.2307 32.7237 -7.48618C33.6206 -5.14749 34.3894 -3.06865 35.03 -1.50953C38.1052 6.54594 38.1052 6.67586 45.793 9.92403C47.715 10.7036 50.0214 11.743 53.0965 13.1722C62.9626 17.8496 65.0127 23.0466 67.5753 29.6729C68.9847 33.181 70.5223 37.2087 73.3412 41.6262C76.4163 46.4335 80.1321 50.3313 83.5916 53.9693C89.87 60.5955 95.7641 66.832 97.686 77.2262C100.889 95.286 91.2795 112.566 80.3884 128.547C75.135 136.343 64.2439 145.308 52.584 154.793C32.9799 171.033 10.8133 189.353 10.6852 206.373C10.6852 216.118 13.1197 223.524 17.9886 228.461C23.3701 233.918 31.4424 236.517 42.7179 236.517C59.1186 236.517 79.3633 230.93 97.1735 225.992C111.268 222.095 123.312 218.717 131.128 218.717C132.922 218.717 134.331 218.846 135.485 219.236C142.916 221.445 148.938 226.252 154.576 230.93C162.136 237.036 169.311 242.883 179.69 242.883C180.971 243.143 181.996 243.143 183.149 243.013ZM135.997 218.587C134.716 218.197 133.178 218.067 131.384 218.067C123.568 218.067 111.396 221.445 97.3016 225.343C79.4915 230.28 59.3749 235.867 43.1023 235.867C31.9549 235.867 24.1389 233.268 19.0137 228.071C14.2728 223.264 11.9665 215.988 11.9665 206.633C12.0946 190.003 34.1331 171.813 53.4809 155.832C65.0127 146.217 76.0319 137.252 81.4134 129.327C92.4327 113.216 102.171 95.8057 98.9673 77.3561C97.0454 66.7021 91.0232 60.3357 84.6167 53.5795C81.1572 49.9415 77.4414 46.0437 74.3662 41.3663C71.5473 36.9488 70.0098 33.051 68.6003 29.543C65.9096 22.6569 63.8595 17.3299 53.609 12.5226C50.5339 11.0934 48.2275 10.054 46.3056 9.2744C38.874 6.02622 38.874 6.02622 35.927 -1.63947C35.2863 -3.32851 34.5175 -5.27741 33.6206 -7.6161C29.9048 -16.9708 26.9578 -18.7898 23.242 -18.7898C22.4732 -18.7898 21.5763 -18.6599 20.8075 -18.6599C19.7825 -18.53 18.8856 -18.53 17.7324 -18.53C15.2979 -18.53 12.0946 -18.9197 7.48191 -22.1679C4.02238 -24.6365 2.61294 -26.8453 3.12546 -28.7942C5.43181 -36.3299 38.1052 -39.1883 44.5117 -39.1883C44.6399 -39.1883 44.768 -39.1883 44.768 -39.1883L44.8961 -39.5781L45.1524 -39.1883C49.3807 -41.3971 51.6871 -44.1255 53.9934 -46.854C56.9404 -50.492 59.7593 -53.8701 66.9346 -56.2087C69.4972 -56.9883 71.6755 -57.6379 73.3412 -58.1577C82.6947 -60.8861 82.8229 -61.016 86.7949 -72.9693L87.3074 -74.5284C88.0762 -76.7372 87.4356 -78.2963 86.923 -79.7255C86.2824 -81.5445 85.6417 -83.1036 88.0762 -85.8321C89.3575 -87.3912 93.9702 -89.0803 97.9423 -90.6394C100.633 -91.6788 103.196 -92.7182 104.605 -93.4978C106.783 -94.797 108.193 -96.616 109.602 -98.3051C111.396 -100.514 113.19 -102.593 116.265 -103.762C118.315 -104.542 120.878 -104.931 123.953 -104.931C131.513 -104.931 140.482 -102.463 147.657 -100.644C149.323 -100.254 150.86 -99.7343 152.27 -99.4744C175.59 -93.6277 197.756 -82.9737 219.154 -72.7095L221.332 -71.6701C272.328 -47.2438 310.768 -19.9592 338.956 11.743C357.92 33.051 370.22 53.8393 376.371 75.1473C383.674 100.223 378.421 130.886 363.301 151.414C355.485 162.068 341.519 174.671 319.737 174.671C314.099 174.671 308.205 173.762 302.311 172.073C250.418 156.871 252.084 104.901 257.721 57.4773C259.387 43.3152 256.825 31.7518 250.162 24.0861C244.524 17.5897 235.939 14.0817 226.201 14.0817C208.135 14.0817 185.071 26.6846 177.896 50.0714C169.696 76.8364 187.249 99.7035 204.163 121.791C222.229 145.308 240.808 169.734 230.43 199.747C224.407 217.027 202.113 239.765 183.277 241.844C182.252 241.973 181.227 241.973 180.202 241.973C170.208 241.973 163.161 236.257 155.729 230.15C149.579 225.733 143.685 220.925 135.997 218.587Z" fill="#B561FF" fill-opacity="0.5"/>
</g>
</svg>
