<svg xmlns="http://www.w3.org/2000/svg" viewBox="0 0 62 62"><defs><style>.cls-1{fill:#f0e4fb;}.cls-2{fill:#31005c;}</style></defs><g id="Layer_2" data-name="Layer 2"><g id="Layer_1-2" data-name="Layer 1"><circle class="cls-1" cx="31" cy="31" r="31"/><path class="cls-2" d="M18.25,19.79A9.28,9.28,0,0,1,31,19.31a9.28,9.28,0,0,1,12.74.47,9.64,9.64,0,0,1,.5,12.95L33,44.14a2.84,2.84,0,0,1-3.92.15L29,44.14,17.76,32.73a9.64,9.64,0,0,1,.49-12.94Zm2,2.07a6.67,6.67,0,0,0-.21,9.1l.21.23L31,42.07l7.65-7.77-5.1-5.18L32,30.67a4.27,4.27,0,0,1-6.12,0,4.44,4.44,0,0,1,0-6.22l3-3.08a6.4,6.4,0,0,0-8.42.28ZM32.53,26a1.42,1.42,0,0,1,2,0l6.12,6.21,1-1A6.66,6.66,0,0,0,41.82,22a6.41,6.41,0,0,0-9.07-.32l-.22.21-4.59,4.67a1.47,1.47,0,0,0-.11,1.94l.11.13a1.49,1.49,0,0,0,.94.43,1.37,1.37,0,0,0,1-.32L30,28.6Z"/></g></g></svg>