<svg width="177" height="52" viewBox="0 0 177 52" fill="none" xmlns="http://www.w3.org/2000/svg">
<path d="M170.347 0.657623H6.66169C3.34646 0.657623 0.658936 3.34014 0.658936 6.64919V45.3589C0.658936 48.668 3.34646 51.3505 6.66169 51.3505H170.347C173.662 51.3505 176.349 48.668 176.349 45.3589V6.64919C176.349 3.34014 173.662 0.657623 170.347 0.657623Z" fill="black"/>
<path d="M170.347 52H6.6616C4.89483 52 3.20043 51.2995 1.95114 50.0525C0.701845 48.8055 0 47.1143 0 45.3508L0 6.64918C0 4.88571 0.701845 3.19446 1.95114 1.9475C3.20043 0.700537 4.89483 0 6.6616 0H170.347C172.112 0.00215149 173.804 0.703638 175.052 1.95037C176.299 3.1971 177 4.88711 177 6.64918V45.3508C177 47.1129 176.299 48.8029 175.052 50.0496C173.804 51.2964 172.112 51.9978 170.347 52ZM6.6616 1.31522C5.2443 1.31522 3.88505 1.87719 2.88288 2.8775C1.8807 3.87781 1.31768 5.23453 1.31768 6.64918V45.3508C1.31768 46.7662 1.88044 48.1238 2.88238 49.1254C3.88433 50.127 5.24355 50.6907 6.6616 50.6929H170.347C171.765 50.6907 173.124 50.127 174.126 49.1254C175.128 48.1238 175.69 46.7662 175.69 45.3508V6.64918C175.69 5.23453 175.127 3.87781 174.125 2.8775C173.123 1.87719 171.764 1.31522 170.347 1.31522H6.6616Z" fill="#A7A9AC"/>
<path d="M58.9294 14.7841L58.1893 17.2197H56.5625L59.3036 8.67883H61.2964L64.0944 17.2115H62.4188L61.6461 14.7759L58.9294 14.7841ZM61.3696 13.6069L60.6945 11.5041C60.5318 10.9845 60.3935 10.4 60.2634 9.88039C60.1414 10.3675 60.0112 10.9683 59.8567 11.5041L59.1979 13.6069H61.3696Z" fill="white"/>
<path d="M66.4288 11.0333L67.4293 14.1671C67.6082 14.711 67.7384 15.2063 67.8522 15.7096C67.9661 15.2063 68.1044 14.7273 68.2671 14.1671L69.2594 11.0333H70.8861L68.5273 17.2116H67.0389L64.7451 11.0333H66.4288Z" fill="white"/>
<path d="M77.1655 15.7258C77.1576 16.2232 77.193 16.7203 77.2712 17.2116H75.8641L75.7502 16.5215C75.5289 16.789 75.2485 17.0015 74.9309 17.1424C74.6133 17.2833 74.2673 17.3486 73.9201 17.3333C73.6693 17.3478 73.4181 17.3107 73.1822 17.2245C72.9463 17.1382 72.7306 17.0046 72.5484 16.8319C72.3662 16.6592 72.2214 16.4511 72.123 16.2203C72.0246 15.9896 71.9746 15.7412 71.9761 15.4904C71.9761 13.9479 73.367 13.1522 75.6526 13.1603V13.0629C75.6526 12.657 75.4818 11.9831 74.3919 11.9831C73.819 11.9891 73.2578 12.1459 72.7651 12.4378L72.3909 11.4392C73.0765 11.0669 73.8474 10.8794 74.6277 10.8952C76.6043 10.8952 77.1736 12.1536 77.1736 13.5094L77.1655 15.7258ZM75.6445 14.1914C74.5383 14.1914 73.489 14.4106 73.489 15.3443C73.4764 15.4639 73.4906 15.5849 73.5306 15.6984C73.5705 15.8119 73.6353 15.9151 73.7202 16.0006C73.805 16.0861 73.9078 16.1517 74.0212 16.1926C74.1345 16.2335 74.2556 16.2488 74.3756 16.2373C74.6456 16.2513 74.9132 16.1806 75.1408 16.0349C75.3684 15.8893 75.5445 15.6762 75.6445 15.4255C75.6605 15.3124 75.6605 15.1976 75.6445 15.0845V14.1914Z" fill="white"/>
<path d="M80.1505 10.1483C79.9936 10.1342 79.8441 10.0748 79.7203 9.97742C79.5965 9.88005 79.5037 9.74888 79.4532 9.59985C79.4027 9.45083 79.3967 9.29037 79.4359 9.13799C79.4751 8.98561 79.5577 8.84787 79.6739 8.74152C79.79 8.63517 79.9346 8.56478 80.0901 8.53893C80.2455 8.51308 80.4052 8.53287 80.5496 8.59589C80.694 8.65891 80.817 8.76246 80.9035 8.89393C80.9901 9.02541 81.0365 9.17915 81.0371 9.33646C81.0376 9.44952 81.0144 9.56142 80.969 9.665C80.9236 9.76859 80.8571 9.86157 80.7736 9.938C80.6902 10.0144 80.5916 10.0726 80.4843 10.1088C80.377 10.1451 80.2633 10.1585 80.1505 10.1483ZM79.3372 17.2116V11.0333H80.8988V17.2116H79.3372Z" fill="white"/>
<path d="M83.1846 8.19983H84.7463V17.2115H83.1846V8.19983Z" fill="white"/>
<path d="M91.8064 15.7258C91.799 16.2232 91.8344 16.7203 91.9122 17.2116H90.505L90.3911 16.5215H90.3505C90.1304 16.7883 89.8514 17.0005 89.5352 17.1414C89.219 17.2823 88.8744 17.348 88.5285 17.3333C88.2777 17.3478 88.0265 17.3107 87.7906 17.2245C87.5547 17.1382 87.339 17.0046 87.1568 16.8319C86.9746 16.6592 86.8298 16.4511 86.7314 16.2203C86.633 15.9896 86.583 15.7412 86.5845 15.4904C86.5845 13.9479 87.9673 13.1522 90.2529 13.1603V13.0629C90.2529 12.657 90.0902 11.9831 88.9921 11.9831C88.4192 11.9891 87.858 12.1459 87.3654 12.4378L87.0319 11.4392C87.7178 11.068 88.4885 10.8806 89.2687 10.8952C91.2533 10.8952 91.8227 12.1536 91.8227 13.5094L91.8064 15.7258ZM90.2854 14.1914C89.1873 14.1914 88.1299 14.4106 88.1299 15.3443C88.1175 15.4632 88.1316 15.5834 88.1711 15.6962C88.2106 15.8091 88.2746 15.9119 88.3585 15.9972C88.4425 16.0825 88.5442 16.1483 88.6566 16.1898C88.7689 16.2313 88.889 16.2475 89.0084 16.2373C89.2797 16.2531 89.5491 16.1831 89.7784 16.0374C90.0076 15.8917 90.185 15.6775 90.2854 15.4255C90.3014 15.3124 90.3014 15.1976 90.2854 15.0845V14.1914Z" fill="white"/>
<path d="M94.0107 8.19983H95.5724V11.8857C95.7938 11.5563 96.0984 11.2911 96.4556 11.1172C96.8127 10.9432 97.2095 10.8667 97.6059 10.8952C99.1188 10.8952 100.192 12.1536 100.184 14.029C100.184 16.2454 98.769 17.3496 97.3781 17.3496C96.985 17.3695 96.594 17.2807 96.2481 17.0931C95.9022 16.9054 95.615 16.6262 95.4179 16.286L95.3447 17.2115H94.0107C94.0107 16.7894 94.0595 16.1074 94.0595 15.4823L94.0107 8.19983ZM95.5724 14.6948C95.56 14.8162 95.56 14.9386 95.5724 15.0601C95.6472 15.37 95.8243 15.6457 96.0751 15.843C96.3259 16.0403 96.6358 16.1478 96.9552 16.148C97.9312 16.148 98.5331 15.3361 98.5331 14.1264C98.5331 13.0304 98.0126 12.1455 96.9714 12.1455C96.6449 12.1541 96.3306 12.2714 96.0786 12.4789C95.8265 12.6863 95.6512 12.9719 95.5806 13.2902C95.5498 13.4234 95.5335 13.5595 95.5318 13.6962L95.5724 14.6948Z" fill="white"/>
<path d="M101.998 8.19983H103.56V17.2115H101.998V8.19983Z" fill="white"/>
<path d="M106.919 14.5567C106.925 14.7923 106.98 15.0241 107.082 15.2369C107.183 15.4496 107.329 15.6387 107.508 15.7919C107.688 15.945 107.897 16.0587 108.124 16.1257C108.35 16.1926 108.588 16.2113 108.822 16.1805C109.406 16.1883 109.987 16.0949 110.539 15.9044L110.766 16.968C110.081 17.2396 109.348 17.3721 108.611 17.3577C108.188 17.3978 107.761 17.3453 107.36 17.2038C106.959 17.0623 106.595 16.8351 106.291 16.5382C105.987 16.2414 105.752 15.8819 105.602 15.485C105.452 15.088 105.391 14.6632 105.422 14.2401C105.422 12.5352 106.463 10.9196 108.448 10.9196C110.433 10.9196 111.108 12.5433 111.108 13.9235C111.11 14.1437 111.094 14.3636 111.059 14.5811L106.919 14.5567ZM109.636 13.4688C109.662 13.2841 109.649 13.0959 109.598 12.9165C109.546 12.7371 109.457 12.5707 109.336 12.4281C109.216 12.2855 109.066 12.1699 108.898 12.089C108.729 12.0082 108.546 11.9638 108.359 11.9588C107.972 11.9833 107.609 12.1524 107.342 12.4323C107.076 12.7123 106.924 13.0824 106.919 13.4688H109.636Z" fill="white"/>
<path d="M118.819 17.3496C118.4 17.3653 117.983 17.293 117.593 17.1374C117.204 16.9818 116.852 16.7463 116.56 16.4463C116.268 16.1463 116.042 15.7884 115.898 15.3958C115.753 15.0031 115.692 14.5845 115.72 14.1671C115.691 13.7379 115.753 13.3074 115.902 12.904C116.052 12.5006 116.285 12.1334 116.587 11.8265C116.889 11.5197 117.253 11.2802 117.655 11.1239C118.056 10.9676 118.486 10.898 118.917 10.9196C119.333 10.9017 119.748 10.9714 120.136 11.1242C120.523 11.2771 120.874 11.5096 121.166 11.8067C121.457 12.1038 121.683 12.4589 121.828 12.8487C121.973 13.2386 122.034 13.6546 122.007 14.0696C122.035 14.4956 121.973 14.9227 121.825 15.3232C121.677 15.7237 121.446 16.0887 121.148 16.3948C120.85 16.7008 120.491 16.941 120.094 17.0999C119.697 17.2587 119.271 17.3327 118.843 17.3171L118.819 17.3496ZM118.868 16.2211C119.754 16.2211 120.381 15.3605 120.381 14.1021C120.381 13.1441 119.95 12.0237 118.876 12.0237C117.802 12.0237 117.33 13.1035 117.33 14.1265C117.33 15.3199 117.924 16.2211 118.851 16.2211H118.868Z" fill="white"/>
<path d="M123.829 12.8762C123.829 12.1617 123.829 11.5691 123.781 11.0332H125.139L125.212 11.9588H125.261C125.47 11.6256 125.762 11.3524 126.108 11.1659C126.455 10.9794 126.844 10.8862 127.237 10.8952C128.319 10.8952 129.434 11.5934 129.434 13.5419V17.2115H127.864V13.7205C127.864 12.8356 127.538 12.1617 126.684 12.1617C126.411 12.1704 126.147 12.2632 125.929 12.4274C125.71 12.5917 125.548 12.8193 125.464 13.0791C125.412 13.2389 125.387 13.4063 125.391 13.5744V17.2115H123.829V12.8762Z" fill="white"/>
<path d="M136.648 9.4501V11.0332H138.137V12.178H136.648V14.8896C136.648 15.6528 136.852 16.0343 137.462 16.0343C137.667 16.0429 137.873 16.021 138.072 15.9694V17.1466C137.707 17.264 137.324 17.3189 136.941 17.309C136.695 17.3219 136.448 17.2839 136.217 17.1973C135.986 17.1107 135.776 16.9773 135.599 16.8056C135.216 16.3114 135.039 15.6894 135.103 15.0682V12.178H134.208V11.0332H135.086V9.88039L136.648 9.4501Z" fill="white"/>
<path d="M139.845 8.19983H141.406V11.8695C141.612 11.5718 141.892 11.3337 142.22 11.1794C142.547 10.9937 142.917 10.8958 143.293 10.8952C144.351 10.8952 145.457 11.5934 145.457 13.5744V17.2115H143.887V13.7368C143.887 12.8518 143.554 12.1617 142.692 12.1617C142.422 12.1639 142.16 12.2495 141.942 12.4065C141.723 12.5635 141.559 12.7844 141.471 13.0385C141.424 13.1909 141.402 13.35 141.406 13.5094V17.2115H139.845V8.19983Z" fill="white"/>
<path d="M148.768 14.5567C148.773 14.7931 148.829 15.0256 148.931 15.239C149.033 15.4525 149.179 15.642 149.36 15.7952C149.54 15.9485 149.751 16.062 149.978 16.1284C150.205 16.1948 150.444 16.2125 150.679 16.1805C151.26 16.1884 151.838 16.095 152.387 15.9044L152.615 16.968C151.93 17.2396 151.197 17.3721 150.459 17.3577C150.036 17.3978 149.61 17.3453 149.209 17.2038C148.808 17.0623 148.443 16.8351 148.14 16.5382C147.836 16.2414 147.601 15.8819 147.451 15.485C147.301 15.088 147.239 14.6632 147.271 14.2401C147.271 12.5352 148.312 10.9196 150.297 10.9196C152.281 10.9196 152.965 12.5433 152.965 13.9235C152.965 14.1439 152.946 14.364 152.908 14.5811L148.768 14.5567ZM151.484 13.4688C151.511 13.2841 151.498 13.0959 151.446 12.9165C151.395 12.7371 151.306 12.5707 151.185 12.4281C151.064 12.2855 150.915 12.1699 150.746 12.089C150.578 12.0082 150.394 11.9638 150.207 11.9588C149.821 11.9833 149.458 12.1524 149.191 12.4323C148.924 12.7123 148.773 13.0824 148.768 13.4688H151.484Z" fill="white"/>
<path d="M39.506 25.4926C39.52 24.2122 39.8576 22.9561 40.4875 21.8406C41.1174 20.7251 42.0192 19.7863 43.1093 19.1113C42.4129 18.12 41.4945 17.3044 40.4271 16.7294C39.3596 16.1544 38.1725 15.8358 36.9601 15.7989C34.3736 15.5229 31.8684 17.3415 30.5507 17.3415C29.233 17.3415 27.1751 15.8233 24.9953 15.872C23.5822 15.9167 22.2048 16.3261 20.9974 17.0603C19.7901 17.7945 18.7939 18.8284 18.1059 20.0612C15.129 25.2084 17.3495 32.7669 20.2045 36.9318C21.636 38.9696 23.3034 41.2428 25.4833 41.1616C27.6632 41.0804 28.4684 39.7814 31.0143 39.7814C33.5602 39.7814 34.3248 41.1372 36.5453 41.0885C38.7658 41.0398 40.2787 39.0345 41.6615 36.9805C42.6899 35.5326 43.4781 33.929 43.9959 32.2311C42.6618 31.6728 41.5233 30.7324 40.7242 29.5288C39.9251 28.3251 39.5012 26.9122 39.506 25.4682" fill="white"/>
<path d="M35.2926 13.0629C36.5492 11.5688 37.1657 9.64091 37.0089 7.69647C35.101 7.89784 33.3387 8.80779 32.0717 10.2457C31.452 10.9514 30.9779 11.7721 30.6764 12.6609C30.3749 13.5497 30.252 14.4892 30.3148 15.4254C31.2691 15.4358 32.2133 15.2292 33.0758 14.8213C33.9382 14.4134 34.6964 13.8148 35.2926 13.071" fill="white"/>
<path d="M70.3658 40.8206H67.3888L65.762 35.714H60.0683L58.5636 40.8206H55.6436L61.264 23.4223H64.729L70.3658 40.8206ZM65.274 33.5625L63.8018 29.0242C63.6391 28.5614 63.3463 27.4654 62.9152 25.7767H62.8664C62.6956 26.5155 62.419 27.6116 62.053 29.0242L60.6052 33.5625H65.274Z" fill="white"/>
<path d="M84.8031 34.3906C84.9044 36.2395 84.2833 38.0555 83.0706 39.4567C82.5799 39.9845 81.9824 40.4022 81.3178 40.6821C80.6531 40.9621 79.9364 41.0978 79.2152 41.0804C78.5165 41.1399 77.8148 41.008 77.1856 40.699C76.5565 40.39 76.0236 39.9156 75.6445 39.3268H75.5957V45.9354H72.7976V32.4016C72.7976 31.062 72.7976 29.6899 72.6919 28.2773H75.132L75.2947 30.2664H75.3435C75.7665 29.6192 76.3352 29.0796 77.0041 28.6906C77.673 28.3016 78.4238 28.074 79.1964 28.0259C79.9691 27.9778 80.7423 28.1106 81.4545 28.4136C82.1667 28.7165 82.7981 29.1814 83.2984 29.7711C84.3365 31.0814 84.8651 32.722 84.7869 34.3906H84.8031ZM81.94 34.4962C81.9898 33.4296 81.7055 32.374 81.1267 31.476C80.8569 31.0814 80.492 30.7608 80.0656 30.5438C79.6392 30.3267 79.165 30.2202 78.6865 30.2339C78.0016 30.2326 77.3386 30.4743 76.8157 30.9159C76.2576 31.3754 75.8731 32.0112 75.7258 32.7182C75.6502 32.9827 75.6065 33.2552 75.5957 33.5301V35.6247C75.5644 36.4708 75.855 37.2974 76.409 37.9385C76.6822 38.2461 77.0198 38.4899 77.3979 38.6527C77.7761 38.8154 78.1854 38.8931 78.597 38.8803C79.0733 38.8967 79.5461 38.7938 79.9723 38.5811C80.3985 38.3684 80.7646 38.0526 81.0372 37.6625C81.6631 36.7165 81.9708 35.596 81.9156 34.4637" fill="white"/>
<path d="M99.2325 34.3906C99.335 36.2411 98.7105 38.0585 97.4919 39.4567C97.0034 39.9851 96.4074 40.4033 95.744 40.6834C95.0805 40.9634 94.3647 41.0987 93.6446 41.0804C92.9435 41.1373 92.2402 41.0018 91.6108 40.6884C90.9814 40.375 90.4499 39.8957 90.0738 39.3024H90.025V45.911H87.227V32.4016C87.227 31.062 87.227 29.6899 87.1294 28.2773H89.5695L89.7322 30.2664H89.781C90.204 29.6192 90.7727 29.0796 91.4416 28.6906C92.1105 28.3016 92.8613 28.074 93.6339 28.0259C94.4066 27.9778 95.1798 28.1106 95.892 28.4136C96.6042 28.7165 97.2356 29.1814 97.7359 29.7711C98.7769 31.0802 99.3085 32.721 99.2325 34.3906ZM96.3857 34.4962C96.4355 33.4296 96.1512 32.374 95.5723 31.476C95.3361 31.1449 95.034 30.8659 94.6849 30.6566C94.3358 30.4473 93.9471 30.3121 93.5433 30.2595C93.1394 30.2069 92.7291 30.2381 92.3378 30.351C91.9466 30.464 91.5829 30.6562 91.2695 30.9159C90.7084 31.3741 90.3209 32.01 90.1714 32.7182C90.0958 32.9827 90.0521 33.2552 90.0413 33.5301V35.6247C90.01 36.4708 90.3006 37.2974 90.8547 37.9385C91.1275 38.2465 91.465 38.4907 91.8432 38.6535C92.2214 38.8163 92.631 38.8937 93.0427 38.8803C93.5189 38.8967 93.9917 38.7938 94.4179 38.5811C94.8441 38.3684 95.2102 38.0526 95.4828 37.6625C96.1088 36.7165 96.4165 35.596 96.3613 34.4637" fill="white"/>
<path d="M115.435 35.9413C115.458 36.6212 115.33 37.2977 115.06 37.9223C114.79 38.5469 114.385 39.1042 113.874 39.5541C112.54 40.6425 110.843 41.1876 109.123 41.0804C107.546 41.1557 105.981 40.7811 104.609 40.0006L105.252 37.6706C106.476 38.4157 107.885 38.8012 109.319 38.7828C110.189 38.8319 111.05 38.5827 111.759 38.0765C112.044 37.8489 112.272 37.5578 112.425 37.2265C112.577 36.8953 112.65 36.533 112.637 36.1686C112.646 35.8384 112.587 35.5099 112.462 35.2038C112.338 34.8978 112.151 34.6209 111.913 34.3906C111.204 33.7744 110.373 33.3151 109.473 33.0429C106.442 31.9063 104.926 30.242 104.926 28.05C104.912 27.3791 105.05 26.7137 105.332 26.1045C105.614 25.4952 106.032 24.9583 106.553 24.5346C107.758 23.572 109.274 23.0838 110.815 23.1625C112.182 23.1086 113.542 23.3872 114.776 23.9744L114.077 26.2395C113.051 25.6937 111.904 25.4145 110.742 25.4276C109.911 25.3748 109.091 25.6324 108.44 26.1502C108.218 26.3475 108.04 26.5903 107.919 26.862C107.799 27.1337 107.738 27.428 107.741 27.7252C107.736 28.0526 107.807 28.3767 107.948 28.6723C108.089 28.9679 108.297 29.2272 108.554 29.4301C109.322 30.0101 110.179 30.4624 111.092 30.7697C112.345 31.211 113.478 31.9363 114.402 32.8887C115.121 33.7281 115.501 34.8049 115.468 35.9088" fill="white"/>
<path d="M124.667 30.3638H121.593V36.4609C121.593 38.0116 122.129 38.7828 123.219 38.7828C123.638 38.793 124.056 38.7494 124.464 38.6529L124.537 40.7719C123.836 40.9992 123.102 41.1036 122.365 41.0804C121.887 41.1084 121.408 41.033 120.962 40.8592C120.515 40.6855 120.112 40.4175 119.779 40.0737C119.064 39.0968 118.731 37.8928 118.843 36.6882V30.3638H117.013V28.2692H118.843V25.9797L121.593 25.1678V28.2854H124.667V30.3638Z" fill="white"/>
<path d="M138.56 34.4475C138.632 36.1781 138.052 37.8729 136.933 39.1969C136.351 39.8298 135.637 40.3284 134.842 40.6579C134.047 40.9874 133.189 41.1399 132.329 41.1048C131.503 41.1426 130.679 40.9978 129.915 40.6806C129.152 40.3634 128.468 39.8817 127.912 39.27C126.804 37.9911 126.223 36.3403 126.286 34.6504C126.216 32.9001 126.824 31.1901 127.986 29.8767C128.564 29.2531 129.272 28.7635 130.061 28.4423C130.849 28.1211 131.698 27.9761 132.549 28.0175C133.38 27.9804 134.209 28.1255 134.977 28.4425C135.746 28.7595 136.436 29.2407 136.998 29.8523C138.108 31.1204 138.69 32.7646 138.625 34.4475H138.56ZM135.729 34.5368C135.758 33.4939 135.5 32.463 134.981 31.5572C134.742 31.0839 134.372 30.689 133.915 30.4198C133.458 30.1506 132.933 30.0184 132.402 30.039C131.877 30.0249 131.359 30.1582 130.906 30.4238C130.453 30.6893 130.084 31.0764 129.84 31.541C129.318 32.4632 129.059 33.5106 129.092 34.5693C129.063 35.6122 129.322 36.643 129.84 37.5488C130.083 38.0084 130.449 38.392 130.897 38.6571C131.345 38.9222 131.857 39.0584 132.378 39.0507C132.896 39.0538 133.405 38.9126 133.848 38.643C134.29 38.3734 134.649 37.9861 134.883 37.5244C135.431 36.6192 135.713 35.5782 135.697 34.5205" fill="white"/>
<path d="M147.637 30.7291C147.348 30.6721 147.053 30.6449 146.759 30.6479C146.316 30.6295 145.876 30.7215 145.478 30.9157C145.081 31.11 144.738 31.4002 144.481 31.7602C143.996 32.4929 143.754 33.359 143.79 34.2364V40.8206H140.992V32.2229C140.992 30.7778 140.959 29.4626 140.894 28.2773H143.334L143.432 30.7129H143.513C143.776 29.9328 144.259 29.2449 144.904 28.7319C145.488 28.294 146.199 28.0575 146.929 28.0581C147.161 28.0564 147.392 28.0727 147.621 28.1068L147.637 30.7291Z" fill="white"/>
<path d="M160.13 33.9522C160.137 34.3765 160.104 34.8005 160.033 35.2187H151.655C151.636 35.7521 151.735 36.2829 151.945 36.7739C152.154 37.2649 152.469 37.7041 152.867 38.0603C153.642 38.6814 154.615 39.004 155.608 38.9696C156.766 38.9855 157.916 38.7845 159 38.3769L159.439 40.3173C158.102 40.8736 156.666 41.1499 155.218 41.1291C154.375 41.1749 153.533 41.0456 152.743 40.7493C151.953 40.453 151.234 39.9963 150.63 39.408C150.059 38.7903 149.617 38.0649 149.331 37.2743C149.045 36.4838 148.919 35.6442 148.963 34.8047C148.891 33.0816 149.443 31.3903 150.516 30.039C151.039 29.3841 151.709 28.8612 152.472 28.5128C153.236 28.1644 154.07 28.0003 154.909 28.0337C155.709 27.9877 156.508 28.148 157.229 28.4991C157.95 28.8503 158.568 29.3806 159.024 30.039C159.793 31.2116 160.179 32.5926 160.13 33.9928V33.9522ZM157.471 33.2703C157.507 32.5176 157.317 31.7713 156.926 31.1269C156.695 30.751 156.367 30.4445 155.976 30.2401C155.585 30.0356 155.146 29.9409 154.705 29.966C154.269 29.9584 153.837 30.0581 153.449 30.2563C153.06 30.4545 152.726 30.7452 152.477 31.1026C152.004 31.7328 151.721 32.485 151.663 33.2703H157.471Z" fill="white"/>
</svg>
