<svg width="177" height="52" viewBox="0 0 177 52" fill="none" xmlns="http://www.w3.org/2000/svg">
<path d="M170.347 0.657623H6.66169C3.34646 0.657623 0.658936 3.34014 0.658936 6.64919V45.3589C0.658936 48.668 3.34646 51.3505 6.66169 51.3505H170.347C173.662 51.3505 176.349 48.668 176.349 45.3589V6.64919C176.349 3.34014 173.662 0.657623 170.347 0.657623Z" fill="black"/>
<path d="M170.347 52H6.6616C4.89483 52 3.20043 51.2995 1.95114 50.0525C0.701845 48.8055 0 47.1143 0 45.3508L0 6.64918C0 4.88571 0.701845 3.19446 1.95114 1.9475C3.20043 0.700537 4.89483 0 6.6616 0H170.347C172.112 0.00215149 173.804 0.703638 175.052 1.95037C176.299 3.1971 177 4.88711 177 6.64918V45.3508C177 47.1129 176.299 48.8029 175.052 50.0496C173.804 51.2964 172.112 51.9978 170.347 52ZM6.6616 1.31522C5.2443 1.31522 3.88505 1.87719 2.88288 2.8775C1.8807 3.87781 1.31768 5.23453 1.31768 6.64918V45.3508C1.31768 46.7662 1.88044 48.1238 2.88238 49.1254C3.88433 50.127 5.24355 50.6907 6.6616 50.6929H170.347C171.765 50.6907 173.124 50.127 174.126 49.1254C175.128 48.1238 175.69 46.7662 175.69 45.3508V6.64918C175.69 5.23453 175.127 3.87781 174.125 2.8775C173.123 1.87719 171.764 1.31522 170.347 1.31522H6.6616Z" fill="#A7A9AC"/>
<path d="M89.2931 28.4153C88.1934 28.4185 87.1194 28.7469 86.2066 29.3591C85.2938 29.9712 84.5832 30.8396 84.1646 31.8546C83.746 32.8696 83.6382 33.9856 83.8547 35.0617C84.0712 36.1379 84.6023 37.1258 85.3811 37.9008C86.1598 38.6758 87.1511 39.2031 88.2299 39.4161C89.3087 39.629 90.4265 39.5181 91.4421 39.0973C92.4578 38.6766 93.3257 37.9648 93.9363 37.0519C94.547 36.1391 94.8729 35.0661 94.8729 33.9685C94.8839 33.2348 94.747 32.5064 94.4702 31.8266C94.1935 31.1468 93.7827 30.5296 93.2621 30.0115C92.7416 29.4934 92.1219 29.0851 91.4401 28.8109C90.7582 28.5367 90.0281 28.4021 89.2931 28.4153ZM89.2931 37.3458C88.6152 37.3947 87.9383 37.2388 87.3506 36.8983C86.7628 36.5578 86.2913 36.0485 85.9977 35.4368C85.704 34.8251 85.6016 34.1393 85.704 33.4687C85.8063 32.7981 86.1086 32.1738 86.5714 31.6771C87.0343 31.1804 87.6362 30.8343 88.2989 30.6839C88.9616 30.5335 89.6543 30.5858 90.2868 30.834C90.9193 31.0821 91.4623 31.5146 91.8451 32.0751C92.2278 32.6357 92.4326 33.2982 92.4327 33.9766C92.449 34.4038 92.3807 34.83 92.2316 35.2307C92.0825 35.6315 91.8556 35.9989 91.5639 36.312C91.2722 36.625 90.9214 36.8775 90.5317 37.0549C90.1421 37.2323 89.7211 37.3312 89.2931 37.3458ZM77.0923 28.4153C75.9927 28.4185 74.9186 28.7469 74.0058 29.3591C73.0931 29.9712 72.3825 30.8396 71.9639 31.8546C71.5453 32.8696 71.4375 33.9856 71.654 35.0617C71.8705 36.1379 72.4016 37.1258 73.1803 37.9008C73.9591 38.6758 74.9504 39.2031 76.0292 39.4161C77.108 39.629 78.2258 39.5181 79.2414 39.0973C80.2571 38.6766 81.125 37.9648 81.7356 37.0519C82.3462 36.1391 82.6721 35.0661 82.6721 33.9685C82.6831 33.2362 82.5467 32.5092 82.271 31.8305C81.9953 31.1518 81.5859 30.5352 81.067 30.0174C80.5482 29.4995 79.9305 29.0909 79.2506 28.8157C78.5706 28.5405 77.8422 28.4043 77.1086 28.4153H77.0923ZM77.0923 37.3458C76.4145 37.3947 75.7376 37.2388 75.1498 36.8983C74.5621 36.5578 74.0906 36.0485 73.7969 35.4368C73.5032 34.8251 73.4009 34.1393 73.5032 33.4687C73.6056 32.7981 73.9079 32.1738 74.3707 31.6771C74.8335 31.1804 75.4355 30.8343 76.0982 30.6839C76.7609 30.5335 77.4536 30.5858 78.0861 30.834C78.7186 31.0821 79.2616 31.5146 79.6443 32.0751C80.0271 32.6357 80.2318 33.2982 80.232 33.9766C80.265 34.8367 79.9546 35.6746 79.3689 36.3064C78.7832 36.9382 77.9703 37.312 77.1086 37.3458H77.0923ZM62.6304 30.1446V32.4746H68.2753C68.1931 33.5786 67.7403 34.6226 66.9901 35.4379C66.4269 36.0186 65.7478 36.4747 64.9968 36.7768C64.2458 37.0789 63.4396 37.2202 62.6304 37.1916C60.965 37.1916 59.3679 36.5312 58.1903 35.3558C57.0127 34.1804 56.3511 32.5862 56.3511 30.924C56.3511 29.2617 57.0127 27.6675 58.1903 26.4921C59.3679 25.3167 60.965 24.6564 62.6304 24.6564C64.2151 24.6341 65.7443 25.2382 66.8844 26.3369L68.5518 24.7132C67.7766 23.9358 66.8532 23.3213 65.8363 22.9057C64.8193 22.4902 63.7292 22.2822 62.6304 22.2938C61.4732 22.2584 60.3206 22.4553 59.2411 22.8728C58.1615 23.2904 57.177 23.9201 56.3459 24.7246C55.5148 25.5291 54.854 26.492 54.4028 27.5562C53.9515 28.6205 53.719 29.7643 53.719 30.9199C53.719 32.0755 53.9515 33.2193 54.4028 34.2835C54.854 35.3478 55.5148 36.3107 56.3459 37.1152C57.177 37.9197 58.1615 38.5494 59.2411 38.967C60.3206 39.3845 61.4732 39.5814 62.6304 39.546C63.7505 39.5892 64.8671 39.3944 65.9062 38.9745C66.9452 38.5547 67.8831 37.9192 68.6576 37.1104C70.0342 35.6101 70.7671 33.6311 70.6992 31.5978C70.7041 31.1053 70.6633 30.6133 70.5771 30.1283L62.6304 30.1446ZM121.902 31.9713C121.57 30.9596 120.933 30.075 120.079 29.4384C119.224 28.8019 118.193 28.4445 117.127 28.4153C116.412 28.4198 115.706 28.5689 115.05 28.8537C114.395 29.1384 113.804 29.5528 113.314 30.0719C112.824 30.5909 112.444 31.2039 112.197 31.8736C111.951 32.5433 111.843 33.256 111.881 33.9685C111.865 34.6985 111.997 35.4241 112.269 36.1021C112.541 36.7801 112.946 37.3966 113.462 37.9148C113.977 38.433 114.592 38.8423 115.269 39.1184C115.946 39.3945 116.672 39.5316 117.404 39.5216C118.318 39.5298 119.22 39.3115 120.029 38.8865C120.838 38.4615 121.529 37.8429 122.04 37.086L120.145 35.8195C119.86 36.2913 119.458 36.6814 118.978 36.9518C118.498 37.2222 117.955 37.3635 117.404 37.3621C116.833 37.387 116.268 37.2391 115.783 36.9377C115.298 36.6363 114.916 36.1956 114.687 35.6734L122.129 32.6045L121.902 31.9713ZM114.313 33.8223C114.285 33.4171 114.339 33.0106 114.471 32.6265C114.604 32.2425 114.812 31.8888 115.083 31.5861C115.354 31.2835 115.684 31.0382 116.051 30.8645C116.419 30.6908 116.818 30.5923 117.225 30.5749C117.647 30.5481 118.067 30.6454 118.434 30.8546C118.801 31.0638 119.099 31.3758 119.291 31.7521L114.313 33.8223ZM108.269 39.2131H110.709V22.8865H108.269V39.2131ZM104.259 29.6818H104.178C103.807 29.2783 103.354 28.9587 102.849 28.7444C102.343 28.5302 101.798 28.4263 101.25 28.4396C99.8263 28.5165 98.4864 29.1351 97.506 30.1681C96.5255 31.2011 95.9791 32.5699 95.9791 33.9928C95.9791 35.4157 96.5255 36.7846 97.506 37.8176C98.4864 38.8505 99.8263 39.4691 101.25 39.546C101.8 39.5605 102.347 39.4555 102.853 39.2382C103.358 39.021 103.81 38.6966 104.178 38.2876H104.259V39.0994C104.259 41.2265 103.121 42.3469 101.29 42.3469C100.679 42.3321 100.085 42.1358 99.5851 41.783C99.0853 41.4302 98.7021 40.9369 98.4843 40.366L96.3613 41.2509C96.7669 42.2196 97.4523 43.0459 98.3302 43.6243C99.208 44.2026 100.239 44.5069 101.29 44.4984C104.154 44.4984 106.577 42.8178 106.577 38.7179V28.7725H104.259V29.6818ZM101.445 37.3458C101.02 37.3345 100.601 37.2383 100.214 37.063C99.8264 36.8878 99.4781 36.6369 99.1893 36.3252C98.9005 36.0135 98.6772 35.6473 98.5323 35.2481C98.3875 34.849 98.3241 34.4249 98.346 34.0009C98.3062 33.1408 98.6104 32.3001 99.1915 31.6637C99.7727 31.0273 100.583 30.6473 101.445 30.6073C103.072 30.6073 104.414 32.0443 104.414 34.0009C104.446 34.4166 104.394 34.8344 104.261 35.2296C104.128 35.6248 103.917 35.9893 103.64 36.3013C103.363 36.6134 103.026 36.8667 102.649 37.0461C102.272 37.2255 101.862 37.3274 101.445 37.3458ZM133.338 22.8702H127.489V39.2131H129.93V33.0267H133.338C134.022 33.054 134.704 32.9431 135.345 32.7006C135.985 32.4582 136.569 32.0891 137.063 31.6156C137.557 31.1421 137.95 30.5739 138.218 29.9452C138.486 29.3164 138.625 28.64 138.625 27.9566C138.625 27.2732 138.486 26.5968 138.218 25.968C137.95 25.3392 137.557 24.7711 137.063 24.2976C136.569 23.8241 135.985 23.455 135.345 23.2125C134.704 22.9701 134.022 22.8592 133.338 22.8865V22.8702ZM133.403 30.7372H129.93V25.1678H133.395C133.775 25.1474 134.156 25.2045 134.514 25.3358C134.872 25.4671 135.199 25.6698 135.476 25.9315C135.752 26.1933 135.973 26.5085 136.124 26.8581C136.274 27.2077 136.352 27.5842 136.352 27.9647C136.352 28.3452 136.274 28.7218 136.124 29.0713C135.973 29.4209 135.752 29.7361 135.476 29.9979C135.199 30.2596 134.872 30.4623 134.514 30.5936C134.156 30.7249 133.775 30.7821 133.395 30.7616L133.403 30.7372ZM148.483 28.4153C147.592 28.3638 146.706 28.573 145.933 29.0172C145.16 29.4614 144.534 30.1213 144.131 30.9158L146.295 31.817C146.511 31.4227 146.838 31.0998 147.235 30.8879C147.632 30.6759 148.083 30.5841 148.532 30.6236C149.792 30.6236 151.078 31.3786 151.094 32.7263V32.8887C150.31 32.4741 149.435 32.2594 148.548 32.2635C146.214 32.2635 143.838 33.5382 143.838 35.9332C143.838 38.1171 145.75 39.5297 147.905 39.5297C148.523 39.5627 149.138 39.4293 149.686 39.1437C150.234 38.858 150.695 38.4305 151.021 37.906H151.102V39.1644H153.461V32.9211C153.453 30.039 151.289 28.4153 148.483 28.4153ZM148.19 37.3458C147.377 37.3458 146.279 36.948 146.279 35.9575C146.279 34.6991 147.669 34.2201 148.865 34.2201C149.644 34.1976 150.414 34.3855 151.094 34.7641C151.005 35.4725 150.662 36.1247 150.128 36.5995C149.594 37.0743 148.905 37.3395 148.19 37.3458ZM162.018 28.7563L159.219 35.8357H159.138L156.234 28.7563H153.607L157.959 38.6529L155.478 44.1493H158.024L164.734 28.7238L162.018 28.7563ZM140.056 39.205H142.496V22.8865H140.056V39.205Z" fill="white"/>
<path d="M13.8274 9.88853C13.4003 10.4015 13.1851 11.0576 13.2255 11.7233V40.5933C13.186 41.254 13.4013 41.9047 13.8274 42.4119L13.925 42.5093L30.0951 26.345V25.9797L13.9006 9.79922L13.8274 9.88853Z" fill="#5BC9F4"/>
<path d="M35.4961 31.7358L30.0952 26.3451V25.9797L35.4961 20.5889L35.6181 20.6539L42.0113 24.2829C43.8414 25.3221 43.8414 27.0189 42.0113 28.05L35.6181 31.6628L35.4961 31.7358Z" fill="url(#paint0_linear_541_5997)"/>
<path d="M35.6179 31.6628L30.095 26.1502L13.8274 42.3875C14.4293 43.0208 15.4542 43.102 16.5441 42.4687L35.6179 31.6628Z" fill="url(#paint1_linear_541_5997)"/>
<path d="M35.6179 20.6376L16.5197 9.80733C15.3972 9.17407 14.4049 9.25526 13.803 9.88851L30.0706 26.1258L35.6179 20.6376Z" fill="url(#paint2_linear_541_5997)"/>
<path d="M60.1332 10.814C59.6212 10.3612 58.9628 10.1076 58.2787 10.0996C57.8964 10.1049 57.5188 10.1857 57.1679 10.3374C56.817 10.489 56.4997 10.7086 56.2343 10.9833C55.9688 11.2581 55.7605 11.5826 55.6214 11.9382C55.4823 12.2937 55.4151 12.6732 55.4238 13.0548C55.414 13.4363 55.4805 13.8159 55.6193 14.1714C55.7581 14.527 55.9665 14.8514 56.2323 15.1257C56.498 15.4001 56.8158 15.6188 57.1672 15.7693C57.5186 15.9197 57.8964 15.9988 58.2787 16.0019C58.5765 16.0296 58.8769 15.9975 59.162 15.9074C59.4471 15.8173 59.7112 15.671 59.9387 15.4772C60.1662 15.2835 60.3525 15.0461 60.4865 14.7792C60.6205 14.5124 60.6995 14.2214 60.7189 13.9235H58.5634V12.9898H61.9308C61.9308 15.6852 60.4911 16.9599 58.295 16.9599C57.2787 16.9138 56.3193 16.4784 55.6164 15.7443C54.9135 15.0101 54.5212 14.0337 54.5212 13.0183C54.5212 12.0028 54.9135 11.0264 55.6164 10.2922C56.3193 9.5581 57.2787 9.1227 58.295 9.07665C59.2601 9.07335 60.1905 9.43609 60.8978 10.0915L60.1332 10.814Z" fill="white"/>
<path d="M67.8931 9.19843V10.1645H64.3793V12.6001H67.4457V13.5744H64.3793V15.9126H68.0069V16.8787H63.3381V9.19843H67.8931Z" fill="white"/>
<path d="M74.6277 9.19843V10.1808H72.2933V16.8787H71.2441V10.1808H68.9097V9.19843H74.6277Z" fill="white"/>
<path d="M79.6139 9.19843V16.8787H78.5728V9.19843H79.6139Z" fill="white"/>
<path d="M86.6983 9.19843V10.1808H84.3639V16.8787H83.3146V10.1808H80.9802V9.19843H86.6983Z" fill="white"/>
<path d="M94.0269 9.10915C94.8114 9.09626 95.582 9.31666 96.2406 9.74231C96.8992 10.168 97.4159 10.7796 97.7251 11.4993C98.0343 12.2191 98.122 13.0144 97.9769 13.784C97.8318 14.5536 97.4605 15.2627 96.9103 15.821C96.3602 16.3794 95.656 16.7617 94.8875 16.9192C94.1189 17.0768 93.3208 17.0026 92.5947 16.7059C91.8685 16.4093 91.2473 15.9037 90.81 15.2535C90.3727 14.6033 90.1391 13.8379 90.139 13.0548C90.1325 12.5403 90.2282 12.0297 90.4205 11.5523C90.6128 11.0749 90.8979 10.6403 91.2594 10.2735C91.6208 9.90664 92.0515 9.61489 92.5265 9.41506C93.0015 9.21522 93.5115 9.11125 94.0269 9.10915ZM94.0269 15.9856C94.4085 15.9847 94.786 15.9076 95.1373 15.759C95.4886 15.6103 95.8065 15.3931 96.0725 15.1201C96.3385 14.847 96.5471 14.5237 96.6861 14.169C96.8251 13.8143 96.8917 13.4355 96.8819 13.0548C96.9116 12.6636 96.86 12.2705 96.7303 11.9001C96.6007 11.5297 96.3959 11.19 96.1286 10.9023C95.8614 10.6146 95.5375 10.3851 95.1772 10.2282C94.817 10.0712 94.4281 9.99021 94.0351 9.99021C93.642 9.99021 93.2532 10.0712 92.8929 10.2282C92.5327 10.3851 92.2088 10.6146 91.9416 10.9023C91.6743 11.19 91.4694 11.5297 91.3398 11.9001C91.2102 12.2705 91.1586 12.6636 91.1882 13.0548C91.1785 13.4342 91.2446 13.8116 91.3826 14.1652C91.5206 14.5188 91.7277 14.8415 91.992 15.1143C92.2562 15.3871 92.5723 15.6047 92.9216 15.7543C93.271 15.9039 93.6468 15.9825 94.0269 15.9856Z" fill="white"/>
<path d="M104.113 16.8787L100.607 11.0901V16.8787H99.5662V9.19843H100.591L104.064 14.9383V9.19843H105.105V16.8787H104.113Z" fill="white"/>
<defs>
<linearGradient id="paint0_linear_541_5997" x1="40.8237" y1="26.1502" x2="9.1913" y2="26.1502" gradientUnits="userSpaceOnUse">
<stop stop-color="#FEE000"/>
<stop offset="0.42" stop-color="#FBBC0E"/>
<stop offset="0.78" stop-color="#FAA418"/>
<stop offset="1" stop-color="#F99B1C"/>
</linearGradient>
<linearGradient id="paint1_linear_541_5997" x1="32.6165" y1="29.146" x2="2.92663" y2="58.8913" gradientUnits="userSpaceOnUse">
<stop stop-color="#EF4547"/>
<stop offset="1" stop-color="#C6186D"/>
</linearGradient>
<linearGradient id="paint2_linear_541_5997" x1="2.73285" y1="-6.66543" x2="26.9751" y2="17.6221" gradientUnits="userSpaceOnUse">
<stop stop-color="#279E6F"/>
<stop offset="0.04" stop-color="#2BA06F"/>
<stop offset="0.46" stop-color="#53B26C"/>
<stop offset="0.8" stop-color="#6BBD6A"/>
<stop offset="1" stop-color="#74C169"/>
</linearGradient>
</defs>
</svg>
