<svg width="125" height="28" viewBox="0 0 125 28" fill="none" xmlns="http://www.w3.org/2000/svg">
<path d="M15.4571 25.463V14.904H19.0011L19.5323 10.7894H15.4583V8.16209C15.4583 6.96996 15.7881 6.15862 17.4965 6.15862L19.6759 6.15746V2.47691C18.6213 2.3653 17.5615 2.31121 16.5011 2.31487C13.3587 2.31487 11.2083 4.2327 11.2083 7.75469V10.7894H7.65503V14.904H11.2083V25.463H15.4571Z" fill="#C4C4C4"/>
<path d="M74.0739 6.70851C73.2071 7.09274 72.2875 7.34477 71.3459 7.45619C72.3381 6.86296 73.0806 5.92915 73.435 4.82888C72.5029 5.38266 71.4827 5.77257 70.4188 5.98165C69.767 5.2877 68.9217 4.8056 67.9925 4.59787C67.0633 4.39013 66.0932 4.46635 65.2079 4.81664C64.3226 5.16692 63.5629 5.77512 63.0274 6.56236C62.4919 7.34959 62.2053 8.27956 62.2047 9.23165C62.2041 9.59582 62.2448 9.95888 62.3262 10.3138C60.4382 10.219 58.5913 9.72832 56.9052 8.87352C55.2191 8.01871 53.7316 6.81893 52.5392 5.35202C51.9319 6.39758 51.7458 7.63528 52.0189 8.81318C52.292 9.99109 53.0037 11.0207 54.0091 11.6923C53.2544 11.6692 52.5162 11.4656 51.8563 11.0986V11.1587C51.8565 12.2553 52.236 13.3181 52.9305 14.1668C53.625 15.0155 54.5916 15.5978 55.6665 15.815C55.2587 15.9259 54.8379 15.9815 54.4154 15.9805C54.1152 15.9806 53.8157 15.9527 53.5207 15.8972C53.824 16.8406 54.4145 17.6657 55.2097 18.2572C56.0049 18.8486 56.965 19.1767 57.9559 19.1958C55.9645 20.7544 53.4367 21.4606 50.9258 21.1599C53.0971 22.5557 55.6246 23.2967 58.2059 23.2942C59.9834 23.3062 61.7456 22.9649 63.3901 22.2902C65.0346 21.6154 66.5287 20.6207 67.7855 19.3637C69.0424 18.1068 70.037 16.6126 70.7116 14.968C71.3862 13.3235 71.7273 11.5612 71.7151 9.78374C71.7151 9.57772 71.7101 9.37324 71.7001 9.17031C72.6313 8.49716 73.4351 7.66354 74.0739 6.70851Z" fill="#C4C4C4"/>
<path d="M103.014 8.10192H102.98C102.625 8.12414 102.269 8.07274 101.934 7.95094C101.6 7.82915 101.294 7.63959 101.036 7.39413C100.778 7.14866 100.573 6.85259 100.435 6.52444C100.297 6.19629 100.228 5.84313 100.232 5.48708C100.237 5.13102 100.315 4.77975 100.462 4.45524C100.608 4.13073 100.82 3.83998 101.084 3.60119C101.348 3.36241 101.659 3.18073 101.997 3.06754C102.334 2.95434 102.692 2.91207 103.046 2.94336C103.402 2.91853 103.758 2.96738 104.094 3.08685C104.43 3.20632 104.737 3.39382 104.997 3.63762C105.257 3.88141 105.463 4.17624 105.604 4.50362C105.744 4.831 105.816 5.18387 105.813 5.54013C105.811 5.89638 105.735 6.24833 105.591 6.57392C105.446 6.89951 105.236 7.19171 104.973 7.43222C104.71 7.67274 104.4 7.85637 104.063 7.97161C103.726 8.08685 103.369 8.13121 103.014 8.10192Z" fill="#C4C4C4"/>
<path d="M100.715 11.574H105.345V25.4629H100.715V11.574Z" fill="#C4C4C4"/>
<path d="M117.498 11.574C116.718 11.5761 115.948 11.7545 115.247 12.0958C114.545 12.4371 113.93 12.9325 113.447 13.545V11.574H108.817V25.4629H113.447V19.0971C113.447 18.4832 113.691 17.8944 114.125 17.4603C114.559 17.0262 115.148 16.7823 115.762 16.7823C116.376 16.7823 116.964 17.0262 117.398 17.4603C117.833 17.8944 118.076 18.4832 118.076 19.0971V25.4629H122.706V16.7823C122.706 15.401 122.157 14.0762 121.181 13.0995C120.204 12.1227 118.879 11.574 117.498 11.574Z" fill="#C4C4C4"/>
</svg>
