<svg width="401" height="94" viewBox="0 0 401 94" fill="none" xmlns="http://www.w3.org/2000/svg">
<path d="M47.0801 32.5215L49.0689 32.3104L48.3764 25.7867L45.3117 31.5872L47.0801 32.5215ZM51.377 73L49.3881 73.2111L49.578 75H51.377V73ZM69.2969 73V75H70.5019L71.065 73.9346L69.2969 73ZM106.309 2.98047L108.077 3.91511L109.628 0.980469H106.309V2.98047ZM85.2148 2.98047V0.980469H83.973L83.4223 2.09348L85.2148 2.98047ZM64.2188 45.4121L62.2256 45.5772L62.8198 52.7489L66.0113 46.2991L64.2188 45.4121ZM60.7031 2.98047L62.6963 2.81533L62.5443 0.980469H60.7031V2.98047ZM44.5898 2.98047V0.980469H43.3633L42.8072 2.07376L44.5898 2.98047ZM23.0078 45.4121L21.0136 45.5636L21.5542 52.6816L24.7905 46.3188L23.0078 45.4121ZM19.7852 2.98047L21.7794 2.82901L21.639 0.980469H19.7852V2.98047ZM0.302734 2.98047V0.980469H-1.92973L-1.68524 3.19951L0.302734 2.98047ZM8.01758 73L6.02961 73.219L6.22584 75H8.01758V73ZM25.6934 73V75H26.8987L27.4617 73.9343L25.6934 73ZM45.0913 32.7326L49.3881 73.2111L53.3658 72.7889L49.0689 32.3104L45.0913 32.7326ZM51.377 75H69.2969V71H51.377V75ZM71.065 73.9346L108.077 3.91511L104.54 2.04583L67.5287 72.0654L71.065 73.9346ZM106.309 0.980469H85.2148V4.98047H106.309V0.980469ZM83.4223 2.09348L62.4262 44.5251L66.0113 46.2991L87.0074 3.86746L83.4223 2.09348ZM66.2119 45.247L62.6963 2.81533L58.71 3.14561L62.2256 45.5772L66.2119 45.247ZM60.7031 0.980469H44.5898V4.98047H60.7031V0.980469ZM42.8072 2.07376L21.2252 44.5054L24.7905 46.3188L46.3725 3.88718L42.8072 2.07376ZM25.0021 45.2607L21.7794 2.82901L17.7909 3.13193L21.0136 45.5636L25.0021 45.2607ZM19.7852 0.980469H0.302734V4.98047H19.7852V0.980469ZM-1.68524 3.19951L6.02961 73.219L10.0055 72.781L2.2907 2.76143L-1.68524 3.19951ZM8.01758 75H25.6934V71H8.01758V75ZM27.4617 73.9343L48.8484 33.4558L45.3117 31.5872L23.925 72.0657L27.4617 73.9343ZM130.332 2.98047L132.289 3.39412L132.799 0.980469H130.332V2.98047ZM113.34 2.98047V0.980469H111.718L111.383 2.567L113.34 2.98047ZM98.5449 73L96.5881 72.5865L96.0782 75H98.5449V73ZM115.537 73V75H117.159L117.494 73.4136L115.537 73ZM120.615 48.9766L118.666 48.5292L118.662 48.546L118.658 48.5629L120.615 48.9766ZM124.18 41.7988L125.633 43.1732L125.652 43.1531L125.67 43.1324L124.18 41.7988ZM134.482 40.7246L133.099 42.1686L133.115 42.1839L133.131 42.1989L134.482 40.7246ZM136.045 47.0723L138.001 47.4878L138.024 47.3805L138.035 47.2713L136.045 47.0723ZM130.527 73.0488L128.571 72.6333L128.058 75.0488H130.527V73.0488ZM147.52 73.0488V75.0488H149.142L149.477 73.4607L147.52 73.0488ZM153.623 44.0449L155.58 44.4568L155.582 44.4468L153.623 44.0449ZM150.01 27.2969L151.436 25.895L151.43 25.8888L151.424 25.8827L150.01 27.2969ZM131.357 24.8555L132.209 26.6651L132.223 26.6583L132.238 26.6513L131.357 24.8555ZM124.717 29.543L122.76 29.1293L126.279 30.7924L124.717 29.543ZM130.332 0.980469H113.34V4.98047H130.332V0.980469ZM111.383 2.567L96.5881 72.5865L100.502 73.4135L115.297 3.39393L111.383 2.567ZM98.5449 75H115.537V71H98.5449V75ZM117.494 73.4136L122.572 49.3902L118.658 48.5629L113.58 72.5864L117.494 73.4136ZM122.565 49.424C123.189 46.7018 124.226 44.6601 125.633 43.1732L122.727 40.4244C120.715 42.5508 119.408 45.2943 118.666 48.5292L122.565 49.424ZM125.67 43.1324C126.962 41.6885 128.427 41.0645 130.137 41.0645V37.0645C127.256 37.0645 124.718 38.1982 122.689 40.4652L125.67 43.1324ZM130.137 41.0645C131.391 41.0645 132.341 41.4421 133.099 42.1686L135.866 39.2806C134.281 37.761 132.301 37.0645 130.137 37.0645V41.0645ZM133.131 42.1989C133.808 42.8199 134.24 43.7526 134.24 45.168H138.24C138.24 42.8724 137.5 40.7777 135.834 39.2503L133.131 42.1989ZM134.24 45.168C134.24 45.1474 134.241 45.1688 134.232 45.2683C134.223 45.3593 134.211 45.4766 134.192 45.6345C134.157 45.9404 134.106 46.3653 134.055 46.8733L138.035 47.2713C138.082 46.8027 138.128 46.4219 138.166 46.093C138.198 45.8181 138.24 45.4555 138.24 45.168H134.24ZM134.089 46.6567L128.571 72.6333L132.484 73.4644L138.001 47.4878L134.089 46.6567ZM130.527 75.0488H147.52V71.0488H130.527V75.0488ZM149.477 73.4607L155.58 44.4568L151.666 43.6331L145.562 72.637L149.477 73.4607ZM155.582 44.4468C155.996 42.428 156.209 40.4859 156.209 38.625H152.209C152.209 40.1821 152.031 41.8533 151.664 43.643L155.582 44.4468ZM156.209 38.625C156.209 33.4603 154.649 29.1644 151.436 25.895L148.583 28.6987C150.937 31.0934 152.209 34.3171 152.209 38.625H156.209ZM151.424 25.8827C148.176 22.6351 144.035 21.0488 139.121 21.0488V25.0488C143.094 25.0488 146.179 26.2946 148.596 28.7111L151.424 25.8827ZM139.121 21.0488C136.132 21.0488 133.243 21.7037 130.477 23.0596L132.238 26.6513C134.452 25.5658 136.739 25.0488 139.121 25.0488V21.0488ZM130.506 23.0458C128.002 24.224 126.137 25.3114 125.107 26.2773L127.842 29.1954C128.375 28.6964 129.732 27.8307 132.209 26.6651L130.506 23.0458ZM125.107 26.2773C124.324 27.0114 123.644 27.6827 123.155 28.2936L126.279 30.7924C126.571 30.4266 127.063 29.9261 127.842 29.1954L125.107 26.2773ZM126.674 29.9566L132.289 3.39412L128.375 2.56682L122.76 29.1293L126.674 29.9566ZM187.461 23.9766L189.417 24.3916L189.93 21.9766H187.461V23.9766ZM170.469 23.9766V21.9766H168.849L168.512 23.5615L170.469 23.9766ZM160.068 73L158.112 72.5849L157.6 75H160.068V73ZM177.061 73V75H178.681L179.017 73.4151L177.061 73ZM174.473 16.3105L173.125 17.7885L173.137 17.7994L173.149 17.8102L174.473 16.3105ZM189.023 2.88281L190.416 1.44701L190.405 1.43663L190.394 1.42641L189.023 2.88281ZM187.461 21.9766H170.469V25.9766H187.461V21.9766ZM168.512 23.5615L158.112 72.5849L162.025 73.4151L172.425 24.3916L168.512 23.5615ZM160.068 75H177.061V71H160.068V75ZM179.017 73.4151L189.417 24.3916L185.504 23.5615L175.104 72.5849L179.017 73.4151ZM170.031 10.5977C170.031 13.409 171.017 15.8659 173.125 17.7885L175.82 14.8326C174.608 13.7279 174.031 12.3761 174.031 10.5977H170.031ZM173.149 17.8102C175.226 19.6423 177.866 20.5566 180.967 20.5566V16.5566C178.696 16.5566 177.04 15.9085 175.796 14.8109L173.149 17.8102ZM180.967 20.5566C184.299 20.5566 187.226 19.3081 189.671 16.9768L186.911 14.0818C185.157 15.7544 183.201 16.5566 180.967 16.5566V20.5566ZM189.671 16.9768C192.117 14.6443 193.465 11.795 193.465 8.54688H189.465C189.465 10.5722 188.664 12.4104 186.911 14.0818L189.671 16.9768ZM193.465 8.54688C193.465 5.73114 192.395 3.36586 190.416 1.44701L187.631 4.31861C188.875 5.52477 189.465 6.87042 189.465 8.54688H193.465ZM190.394 1.42641C188.316 -0.529577 185.705 -1.46094 182.676 -1.46094V2.53906C184.823 2.53906 186.411 3.1702 187.653 4.33921L190.394 1.42641ZM182.676 -1.46094C179.188 -1.46094 176.134 -0.23941 173.693 2.20102L176.522 5.02945C178.183 3.36832 180.207 2.53906 182.676 2.53906V-1.46094ZM173.693 2.20102C171.313 4.58157 170.031 7.41853 170.031 10.5977H174.031C174.031 8.601 174.801 6.75046 176.522 5.02945L173.693 2.20102ZM232.041 93.9961L230.085 93.58L229.571 95.9961H232.041V93.9961ZM249.033 93.9961V95.9961H250.656L250.99 94.4083L249.033 93.9961ZM254.844 66.4082L256.54 65.3482L253.909 61.1398L252.887 65.996L254.844 66.4082ZM255.332 67.1895L257.121 66.295L257.078 66.21L257.028 66.1295L255.332 67.1895ZM259.531 71.3398L260.731 69.7398L260.713 69.7259L260.694 69.7124L259.531 71.3398ZM263.486 73.1953L264.119 71.2979L264.085 71.2867L264.051 71.2766L263.486 73.1953ZM287.51 65.334L286.071 63.9443L286.065 63.9507L287.51 65.334ZM271.836 23.7324L271.272 21.8137L271.264 21.816L271.256 21.8184L271.836 23.7324ZM267.881 25.2461L266.953 23.4744L266.938 23.4822L266.923 23.4903L267.881 25.2461ZM265 27.1992L263.72 25.6628L263.695 25.6832L263.671 25.7044L265 27.1992ZM262.754 29.3965L260.799 28.9738L264.543 30.2909L262.754 29.3965ZM263.926 23.9766L265.881 24.3992L265.881 24.3956L263.926 23.9766ZM225.01 6.78906L223.747 5.23827L223.737 5.24612L225.01 6.78906ZM216.123 23L216.178 24.9992L217.821 24.9539L218.095 23.3333L216.123 23ZM204.746 53.4688L203.965 55.3099L203.975 55.3141L203.985 55.3181L204.746 53.4688ZM209.434 59.6699L208.324 58.0058L208.302 58.0206L208.28 58.036L209.434 59.6699ZM200.986 59.1816L199.982 60.9112L199.994 60.9181L200.006 60.9248L200.986 59.1816ZM196.982 55.7148L198.719 54.7226L197.515 52.6164L195.677 54.1994L196.982 55.7148ZM186.777 64.5039L185.472 62.9885L184.056 64.2084L185.177 65.7039L186.777 64.5039ZM187.51 65.4805L189.137 64.318L189.124 64.2991L189.11 64.2805L187.51 65.4805ZM193.955 70.6074L195.015 68.9114L194.996 68.8993L194.976 68.8877L193.955 70.6074ZM200.107 73L200.627 71.0688L200.61 71.0641L200.592 71.0597L200.107 73ZM225.352 68.8984L224.082 67.3529L224.071 67.362L225.352 68.8984ZM229.746 50.0996L231.41 48.9902L231.403 48.9793L231.396 48.9686L229.746 50.0996ZM225.547 46.0469L224.51 47.7573L224.522 47.7641L224.533 47.7707L225.547 46.0469ZM219.346 36.4766L219.389 34.477L219.367 34.4766H219.346V36.4766ZM225.84 38.918L224.628 40.5088L225.919 41.4928L227.148 40.4311L225.84 38.918ZM235.557 30.5195L236.864 32.0327L238.771 30.3845L236.733 28.9021L235.557 30.5195ZM234.873 18.3613L236.223 19.8374L236.233 19.8276L236.244 19.8177L234.873 18.3613ZM246.934 23.9766L248.89 24.3926L248.915 24.2762L248.925 24.1576L246.934 23.9766ZM275.547 40.4805L277.003 39.1097L276.993 39.0985L276.982 39.0875L275.547 40.4805ZM274.473 55.4219L275.901 56.8214L275.909 56.8139L275.916 56.8063L274.473 55.4219ZM260.898 56.4473L262.354 55.0752L262.333 55.0538L262.313 55.0331L260.898 56.4473ZM261.826 41.7012L260.354 40.3471L260.348 40.3543L260.341 40.3616L261.826 41.7012ZM232.041 95.9961H249.033V91.9961H232.041V95.9961ZM250.99 94.4083L256.801 66.8204L252.887 65.996L247.076 93.5839L250.99 94.4083ZM253.148 67.4682L253.636 68.2495L257.028 66.1295L256.54 65.3482L253.148 67.4682ZM253.543 68.0839C253.989 68.9757 254.724 69.8005 255.48 70.5568L258.309 67.7284C257.6 67.0198 257.261 66.5751 257.121 66.295L253.543 68.0839ZM255.48 70.5568C256.305 71.3817 257.272 72.1841 258.369 72.9673L260.694 69.7124C259.74 69.0308 258.949 68.3683 258.309 67.7284L255.48 70.5568ZM258.331 72.9398C259.547 73.8515 261.098 74.5776 262.922 75.114L264.051 71.2766C262.554 70.8365 261.469 70.293 260.731 69.7398L258.331 72.9398ZM262.854 75.0927C264.699 75.7076 266.625 75.9766 268.613 75.9766V71.9766C266.988 71.9766 265.497 71.7572 264.119 71.2979L262.854 75.0927ZM268.613 75.9766C276.31 75.9766 283.112 72.8181 288.954 66.7173L286.065 63.9507C280.872 69.3733 275.076 71.9766 268.613 71.9766V75.9766ZM288.948 66.7236C294.914 60.5487 297.811 52.8054 297.811 43.6055H293.811C293.811 51.886 291.239 58.5958 286.071 63.9444L288.948 66.7236ZM297.811 43.6055C297.811 37.4167 295.783 32.0402 291.711 27.6463L288.777 30.3654C292.127 33.9793 293.811 38.3685 293.811 43.6055H297.811ZM291.711 27.6463C287.649 23.2638 282.735 21 276.963 21V25C281.543 25 285.417 26.7402 288.777 30.3654L291.711 27.6463ZM276.963 21C275.017 21 273.118 21.2707 271.272 21.8137L272.4 25.6512C273.874 25.2176 275.393 25 276.963 25V21ZM271.256 21.8184C269.599 22.3206 268.142 22.8516 266.953 23.4744L268.809 27.0178C269.671 26.5664 270.85 26.1209 272.416 25.6465L271.256 21.8184ZM266.923 23.4903C265.735 24.1384 264.699 24.8465 263.72 25.6628L266.28 28.7357C267.059 28.0871 267.878 27.5257 268.839 27.0019L266.923 23.4903ZM263.671 25.7044C262.807 26.4725 262.22 27.004 261.926 27.2987L264.754 30.1271C264.948 29.9335 265.435 29.4884 266.329 28.694L263.671 25.7044ZM261.926 27.2987C261.737 27.4876 261.243 27.9457 260.965 28.5021L264.543 30.2909C264.508 30.3607 264.476 30.4063 264.463 30.4248C264.45 30.4424 264.448 30.4426 264.468 30.42C264.488 30.3975 264.52 30.3641 264.57 30.3125C264.621 30.2605 264.679 30.2025 264.754 30.1271L261.926 27.2987ZM264.709 29.8191L265.881 24.3992L261.971 23.5539L260.799 28.9738L264.709 29.8191ZM265.881 24.3956C266.206 22.883 266.414 21.082 266.414 18.9961H262.414C262.414 20.8164 262.232 22.3357 261.97 23.5575L265.881 24.3956ZM266.414 18.9961C266.414 13.2055 264.083 8.35317 259.542 4.56903L256.981 7.64191C260.643 10.6937 262.414 14.4351 262.414 18.9961H266.414ZM259.542 4.56903C255.033 0.811552 249.483 -1.02148 243.027 -1.02148V2.97852C248.681 2.97852 253.287 4.56345 256.981 7.64191L259.542 4.56903ZM243.027 -1.02148C235.378 -1.02148 228.901 1.04032 223.747 5.2383L226.273 8.33982C230.591 4.82296 236.126 2.97852 243.027 2.97852V-1.02148ZM223.737 5.24612C218.584 9.49638 215.392 15.3213 214.151 22.6667L218.095 23.3333C219.197 16.8115 221.963 11.8942 226.282 8.332L223.737 5.24612ZM216.068 21.0008C208.689 21.2043 202.722 23.0956 198.362 26.8566L200.974 29.8856C204.426 26.9083 209.397 25.1863 216.178 24.9992L216.068 21.0008ZM198.362 26.8566C194.03 30.5923 191.809 35.3376 191.809 40.9199H195.809C195.809 36.5413 197.493 32.8882 200.974 29.8856L198.362 26.8566ZM191.809 40.9199C191.809 43.5346 192.497 45.9277 193.902 48.0352L197.23 45.8164C196.292 44.4083 195.809 42.7974 195.809 40.9199H191.809ZM193.902 48.0352C195.239 50.0406 196.876 51.5705 198.8 52.7024L200.828 49.2546C199.432 48.4334 198.237 47.3266 197.23 45.8164L193.902 48.0352ZM198.8 52.7024C200.535 53.7229 202.273 54.5922 203.965 55.3099L205.527 51.6276C203.996 50.9781 202.414 50.1873 200.828 49.2546L198.8 52.7024ZM203.985 55.3181C205.567 55.9696 206.851 56.6133 207.938 57.2471L209.953 53.792C208.696 53.0586 207.246 52.3351 205.508 51.6194L203.985 55.3181ZM207.938 57.2471C208.417 57.5269 208.658 57.7403 208.757 57.8539C208.856 57.9672 208.703 57.8476 208.703 57.5215H212.703C212.703 56.5606 212.258 55.7819 211.771 55.2237C211.284 54.6659 210.645 54.1958 209.953 53.792L207.938 57.2471ZM208.703 57.5215C208.703 57.647 208.68 57.6809 208.673 57.6941C208.656 57.7228 208.581 57.8343 208.324 58.0058L210.543 61.334C211.165 60.9196 211.725 60.3963 212.123 59.717C212.531 59.0222 212.703 58.2749 212.703 57.5215H208.703ZM208.28 58.036C207.947 58.2713 207.27 58.5 205.967 58.5V62.5C207.594 62.5 209.26 62.2404 210.587 61.3039L208.28 58.036ZM205.967 58.5C204.56 58.5 203.236 58.1525 201.967 57.4385L200.006 60.9248C201.861 61.9686 203.858 62.5 205.967 62.5V58.5ZM201.991 57.4521C200.519 56.5974 199.762 55.9896 199.488 55.6879L196.528 58.3785C197.23 59.151 198.427 60.008 199.982 60.9112L201.991 57.4521ZM199.488 55.6879C199.03 55.1845 198.805 54.8731 198.719 54.7226L195.246 56.7071C195.551 57.2402 196.009 57.8077 196.528 58.3785L199.488 55.6879ZM195.677 54.1994L185.472 62.9885L188.083 66.0193L198.288 57.2303L195.677 54.1994ZM185.177 65.7039L185.91 66.6805L189.11 64.2805L188.377 63.3039L185.177 65.7039ZM185.882 66.6429C186.503 67.512 187.428 68.4761 188.67 69.4481L191.135 66.298C190.131 65.5122 189.493 64.8162 189.137 64.318L185.882 66.6429ZM188.67 69.4481C189.872 70.3887 191.312 71.3639 192.934 72.3271L194.976 68.8877C193.473 67.9955 192.179 67.1152 191.135 66.298L188.67 69.4481ZM192.895 72.3034C194.702 73.4329 196.974 74.2783 199.622 74.9403L200.592 71.0597C198.162 70.4522 196.333 69.7351 195.015 68.9114L192.895 72.3034ZM199.587 74.9312C202.33 75.6697 205.196 75.9766 208.164 75.9766V71.9766C205.468 71.9766 202.963 71.6975 200.627 71.0688L199.587 74.9312ZM208.164 75.9766C215.817 75.9766 222.049 74.254 226.632 70.4349L224.071 67.362C220.451 70.3788 215.257 71.9766 208.164 71.9766V75.9766ZM226.621 70.4439C231.169 66.7082 233.504 61.9005 233.504 56.1055H229.504C229.504 60.662 227.737 64.3504 224.082 67.353L226.621 70.4439ZM233.504 56.1055C233.504 53.4908 232.815 51.0977 231.41 48.9902L228.082 51.209C229.021 52.6171 229.504 54.228 229.504 56.1055H233.504ZM231.396 48.9686C230.092 47.0682 228.522 45.4764 226.561 44.323L224.533 47.7707C225.892 48.5705 227.056 49.7131 228.097 51.2307L231.396 48.9686ZM226.583 44.3365C224.882 43.305 223.129 42.4289 221.377 41.7073L219.854 45.406C221.422 46.0516 222.99 46.8356 224.51 47.7573L226.583 44.3365ZM221.377 41.7073C219.776 41.0482 218.447 40.4037 217.375 39.7783L215.359 43.2334C216.631 43.9752 218.134 44.6979 219.854 45.406L221.377 41.7073ZM217.375 39.7783C216.883 39.4915 216.67 39.2956 216.596 39.208C216.566 39.1728 216.584 39.1848 216.609 39.2458C216.637 39.3129 216.658 39.4039 216.658 39.5039H212.658C212.658 41.3715 214.138 42.5209 215.359 43.2334L217.375 39.7783ZM216.658 39.5039C216.658 39.3779 216.681 39.3337 216.696 39.3089C216.718 39.27 216.794 39.1577 217.032 38.9894L214.726 35.7215C213.464 36.6117 212.658 37.8618 212.658 39.5039H216.658ZM217.032 38.9894C217.401 38.7291 218.111 38.4766 219.346 38.4766V34.4766C217.651 34.4766 216.017 34.81 214.726 35.7215L217.032 38.9894ZM219.302 38.4761C221.062 38.5143 222.859 39.1612 224.628 40.5088L227.052 37.3271C224.719 35.5498 222.122 34.5364 219.389 34.477L219.302 38.4761ZM227.148 40.4311L236.864 32.0327L234.249 29.0064L224.532 37.4048L227.148 40.4311ZM236.733 28.9021C235.049 27.6773 234.334 26.2523 234.334 24.5137H230.334C230.334 27.6579 231.767 30.2368 234.38 32.137L236.733 28.9021ZM234.334 24.5137C234.334 22.4601 234.981 20.9726 236.223 19.8374L233.524 16.8853C231.347 18.8751 230.334 21.4891 230.334 24.5137H234.334ZM236.244 19.8177C237.505 18.6306 239.054 18.0176 241.025 18.0176V14.0176C238.114 14.0176 235.561 14.967 233.502 16.9049L236.244 19.8177ZM241.025 18.0176C242.283 18.0176 243.251 18.3989 244.02 19.1032L246.723 16.1546C245.147 14.7104 243.186 14.0176 241.025 14.0176V18.0176ZM244.02 19.1032C244.751 19.7739 245.129 20.5933 245.129 21.7793H249.129C249.129 19.5474 248.335 17.6324 246.723 16.1546L244.02 19.1032ZM245.129 21.7793C245.129 21.8567 245.117 22.035 245.078 22.4226C245.043 22.7692 244.992 23.2469 244.942 23.7955L248.925 24.1576C248.973 23.632 249.019 23.2064 249.058 22.8206C249.092 22.4757 249.129 22.0925 249.129 21.7793H245.129ZM244.977 23.5605L230.085 93.58L233.997 94.4122L248.89 24.3926L244.977 23.5605ZM269.932 39.9902C271.488 39.9902 272.84 40.563 274.112 41.8734L276.982 39.0875C275.031 37.0776 272.672 35.9902 269.932 35.9902V39.9902ZM274.09 41.8512C275.314 43.151 275.939 44.6665 275.939 46.4863H279.939C279.939 43.6187 278.905 41.1303 277.003 39.1097L274.09 41.8512ZM275.939 46.4863C275.939 49.5668 274.945 52.0397 273.029 54.0374L275.916 56.8063C278.59 54.0189 279.939 50.5348 279.939 46.4863H275.939ZM273.044 54.0223C271.018 56.09 268.926 56.9863 266.611 56.9863V60.9863C270.156 60.9863 273.239 59.5389 275.901 56.8214L273.044 54.0223ZM266.611 56.9863C264.991 56.9863 263.605 56.4027 262.354 55.0752L259.443 57.8193C261.414 59.9098 263.837 60.9863 266.611 60.9863V56.9863ZM262.313 55.0331C261.064 53.7846 260.457 52.2601 260.457 50.2949H256.457C256.457 53.2126 257.412 55.7896 259.484 57.8615L262.313 55.0331ZM260.457 50.2949C260.457 47.5847 261.385 45.1768 263.311 43.0407L260.341 40.3616C257.775 43.2061 256.457 46.5599 256.457 50.2949H260.457ZM263.298 43.0553C265.2 40.988 267.415 39.9902 269.932 39.9902V35.9902C266.198 35.9902 262.945 37.5315 260.354 40.3471L263.298 43.0553ZM352.207 52.9805V54.9805H353.54L354.053 53.7497L352.207 52.9805ZM348.057 28.6152L349.381 27.1166L349.372 27.109L348.057 28.6152ZM308.408 67.5801L309.775 66.12L309.767 66.1123L308.408 67.5801ZM346.006 66.8965L347.42 68.3107L348.411 67.3196L347.818 66.0499L346.006 66.8965ZM340.781 55.7148L342.593 54.8682L341.479 52.4829L339.48 54.1963L340.781 55.7148ZM339.414 56.8867L340.709 58.4106L340.716 58.4052L339.414 56.8867ZM318.516 52.9805V50.9805H316.096L316.551 53.3566L318.516 52.9805ZM335.605 38.0391L337.02 36.6248L337.007 36.6124L336.995 36.6003L335.605 38.0391ZM337.803 43.0684V45.0684H339.903L339.8 42.9709L337.803 43.0684ZM320.176 43.0684L318.372 42.2041L317 45.0684H320.176V43.0684ZM354.053 53.7497C355.61 50.0126 356.404 46.2364 356.404 42.4824H352.404C352.404 45.662 351.733 48.9171 350.361 52.2112L354.053 53.7497ZM356.404 42.4824C356.404 36.3716 353.995 31.1937 349.381 27.1166L346.732 30.1139C350.517 33.4586 352.404 37.5581 352.404 42.4824H356.404ZM349.372 27.109C344.724 23.0481 338.969 21 332.188 21V25C338.102 25 342.893 26.7605 346.741 30.1215L349.372 27.109ZM332.188 21C323.463 21 315.797 24.0839 309.33 30.1882L312.076 33.0969C317.817 27.6778 324.506 25 332.188 25V21ZM309.33 30.1882C302.841 36.3143 299.572 43.7682 299.572 52.3945H303.572C303.572 44.9076 306.359 38.4943 312.076 33.0969L309.33 30.1882ZM299.572 52.3945C299.572 58.838 302.071 64.4399 307.05 69.0479L309.767 66.1123C305.566 62.2241 303.572 57.6698 303.572 52.3945H299.572ZM307.041 69.0401C312.033 73.7133 318.15 75.9766 325.303 75.9766V71.9766C319.076 71.9766 313.963 70.0406 309.775 66.12L307.041 69.0401ZM325.303 75.9766C327.831 75.9766 330.36 75.7186 332.84 75.2021L332.024 71.2862C329.815 71.7462 327.56 71.9766 325.303 71.9766V75.9766ZM332.84 75.2021C335.227 74.7047 337.337 74.1349 338.989 73.4191L337.398 69.7489C336.12 70.3026 334.324 70.807 332.024 71.2862L332.84 75.2021ZM338.989 73.4191C340.537 72.748 342.034 71.9736 343.479 71.0963L341.403 67.6771C340.114 68.46 338.779 69.1504 337.398 69.7489L338.989 73.4191ZM343.479 71.0963C344.859 70.2586 345.806 69.6316 346.278 69.2777L343.878 66.0777C343.569 66.3098 342.758 66.8547 341.403 67.6771L343.479 71.0963ZM346.278 69.2777C346.716 68.9492 347.137 68.594 347.42 68.3107L344.592 65.4823C344.484 65.5896 344.221 65.8203 343.878 66.0777L346.278 69.2777ZM347.818 66.0499L342.593 54.8682L338.969 56.5615L344.194 67.7431L347.818 66.0499ZM339.48 54.1963L338.112 55.3682L340.716 58.4052L342.083 57.2334L339.48 54.1963ZM338.119 55.3628C337.372 55.9975 336.129 56.7293 334.244 57.465L335.698 61.1913C337.817 60.3644 339.503 59.4361 340.709 58.4106L338.119 55.3628ZM334.244 57.465C332.459 58.1613 330.703 58.5 328.916 58.5V62.5C331.23 62.5 333.478 62.0574 335.698 61.1913L334.244 57.465ZM328.916 58.5C326.42 58.5 324.565 57.904 323.12 56.8391L320.747 60.0593C323.013 61.7288 325.748 62.5 328.916 62.5V58.5ZM323.12 56.8391C321.68 55.7782 320.827 54.4174 320.48 52.6043L316.551 53.3566C317.083 56.1334 318.476 58.3858 320.747 60.0593L323.12 56.8391ZM318.516 54.9805H352.207V50.9805H318.516V54.9805ZM330.186 37.9883C331.93 37.9883 333.218 38.5138 334.216 39.4779L336.995 36.6003C335.161 34.8299 332.836 33.9883 330.186 33.9883V37.9883ZM334.191 39.4533C335.199 40.4606 335.731 41.6477 335.805 43.1658L339.8 42.9709C339.679 40.4851 338.747 38.3519 337.02 36.6248L334.191 39.4533ZM337.803 41.0684H320.176V45.0684H337.803V41.0684ZM321.979 43.9326C322.994 41.8157 324.201 40.3445 325.531 39.4028C326.842 38.474 328.374 37.9883 330.186 37.9883V33.9883C327.603 33.9883 325.252 34.6988 323.219 36.1382C321.205 37.5647 319.604 39.6335 318.372 42.2041L321.979 43.9326ZM396.787 41.0176L395.864 42.792L398.199 44.0059L398.744 41.4318L396.787 41.0176ZM400.498 23.4883L402.455 23.9025L402.966 21.4883H400.498V23.4883ZM390.635 25.1973L389.826 23.3682L389.811 23.3747L389.797 23.3813L390.635 25.1973ZM385.605 27.9316L386.877 29.4755L386.9 29.4565L386.922 29.4368L385.605 27.9316ZM383.701 29.5918L381.747 29.1669L380.3 35.8211L385.115 31.006L383.701 29.5918ZM384.922 23.9766L386.876 24.4014L387.403 21.9766H384.922V23.9766ZM367.881 23.9766V21.9766H366.261L365.924 23.5615L367.881 23.9766ZM357.48 73L355.524 72.5849L355.012 75H357.48V73ZM374.521 73V75H376.146L376.479 73.4101L374.521 73ZM378.818 52.4922L376.862 52.0765L376.861 52.082L378.818 52.4922ZM392.002 39.9922L392.052 37.9928L392.027 37.9922H392.002V39.9922ZM398.744 41.4318L402.455 23.9025L398.541 23.0741L394.83 40.6034L398.744 41.4318ZM400.498 21.4883H398.496V25.4883H400.498V21.4883ZM398.496 21.4883C395.513 21.4883 392.602 22.1403 389.826 23.3682L391.444 27.0263C393.746 26.0082 396.108 25.4883 398.496 25.4883V21.4883ZM389.797 23.3813C388.516 23.9723 387.411 24.5048 386.516 24.985C385.65 25.4495 384.859 25.9275 384.288 26.4265L386.922 29.4368C387.133 29.2522 387.588 28.949 388.406 28.5101C389.195 28.087 390.214 27.5941 391.473 27.0132L389.797 23.3813ZM384.334 26.3878C383.515 27.0619 382.806 27.6588 382.287 28.1776L385.115 31.006C385.475 30.6459 386.035 30.1686 386.877 29.4755L384.334 26.3878ZM385.656 30.0167L386.876 24.4014L382.968 23.5517L381.747 29.1669L385.656 30.0167ZM384.922 21.9766H367.881V25.9766H384.922V21.9766ZM365.924 23.5615L355.524 72.5849L359.437 73.4151L369.837 24.3916L365.924 23.5615ZM357.48 75H374.521V71H357.48V75ZM376.479 73.4101L380.776 52.9023L376.861 52.082L372.564 72.5899L376.479 73.4101ZM380.775 52.9079C381.54 49.308 382.989 46.6305 384.971 44.7716L382.236 41.8534C379.531 44.3891 377.757 47.8639 376.862 52.0765L380.775 52.9079ZM384.971 44.7716C386.948 42.9185 389.243 41.9922 392.002 41.9922V37.9922C388.218 37.9922 384.947 39.3119 382.236 41.8534L384.971 44.7716ZM391.952 41.9916C393.725 42.0359 395.006 42.3455 395.864 42.792L397.71 39.2431C396.127 38.4201 394.185 38.0461 392.052 37.9928L391.952 41.9916Z" fill="#B561FF" fill-opacity="0.5"/>
</svg>
